<svg width="112" height="103" viewBox="0 0 112 103" fill="none" xmlns="http://www.w3.org/2000/svg">
<mask id="mask0_339_43" style="mask-type:luminance" maskUnits="userSpaceOnUse" x="0" y="0" width="45" height="103">
<path d="M0 11L0 91.9995C0 98.0746 4.92486 102.999 11 102.999H33.8C39.8751 102.999 44.8 98.0746 44.8 91.9995V11C44.8 4.92485 39.8751 -1.52588e-05 33.8 -1.52588e-05H11C4.92487 -1.52588e-05 0 4.92485 0 11Z" fill="white"/>
</mask>
<g mask="url(#mask0_339_43)">
<path d="M50.0356 -129.844H-5.23438C-11.3095 -129.844 -16.2344 -124.919 -16.2344 -118.844L-16.2344 162.896C-16.2344 168.972 -11.3095 173.896 -5.23439 173.896H50.0356C56.1107 173.896 61.0356 168.972 61.0356 162.896L61.0356 -118.844C61.0356 -124.919 56.1107 -129.844 50.0356 -129.844Z" fill="#19424B" fill-opacity="0.4"/>
<path d="M-2.46045 -3.40905C-3.88042 -0.817867 -5.13474 1.81143 -5.98672 4.51693C-7.52502 7.90833 -9.15799 11.2997 -10.8383 14.6721C-12.5183 18.0158 -14.2673 21.341 -16.1307 24.666C-16.183 24.7592 -16.2105 24.8643 -16.2105 24.9712V24.9712C-16.2105 25.6023 -15.3813 25.8329 -15.0569 25.2915C-13.3696 22.4751 -11.7097 19.6437 -10.1283 16.787C-8.68466 14.1958 -7.31202 11.5855 -5.98672 8.97528C-4.16442 5.66009 -2.43681 2.28774 -0.898512 -1.12272C0.663454 -4.53317 2.05977 -7.98173 3.21941 -11.4684V-11.4684C3.41222 -12.0548 2.68329 -12.3686 2.39744 -11.8215C2.27287 -11.5831 2.15212 -11.3447 2.0361 -11.1064C0.545136 -8.55332 -1.04048 -6.00023 -2.46045 -3.40905ZM-6.48867 -65.4831C-6.49744 -65.4831 -6.50327 -65.474 -6.49967 -65.466C-5.87072 -64.0691 -5.37062 -62.6763 -4.95116 -61.2856C-4.69299 -60.4298 -5.86559 -59.9406 -6.36538 -60.6818V-60.6818C-8.25629 -63.7766 -10.3661 -66.798 -12.759 -69.6814C-13.3499 -70.3935 -14.3544 -70.6047 -15.1724 -70.1723C-15.3526 -70.077 -15.5299 -69.9812 -15.7046 -69.8846C-16.0194 -69.7106 -16.2105 -69.377 -16.2105 -69.0173V-67.6886C-16.2105 -67.272 -15.7169 -67.0766 -15.432 -67.3804V-67.3804C-15.2808 -67.5417 -15.035 -67.5686 -14.8506 -67.4466C-9.60022 -63.9743 -5.94437 -59.7963 -3.73903 -55.3474C-3.40941 -54.6825 -3.18641 -53.9717 -3.02617 -53.247C-2.55891 -51.1339 -2.05937 -49.0305 -1.33981 -46.9135C-1.32966 -46.8837 -1.32285 -46.8525 -1.31978 -46.8211V-46.8211C-1.27581 -46.3711 -1.89761 -46.2274 -2.10544 -46.629C-2.93747 -48.2367 -3.96354 -49.8155 -5.14499 -51.3344C-5.85892 -52.2522 -6.98055 -51.291 -6.55393 -50.2092V-50.2092C-6.09896 -49.0556 -8.14464 -48.1493 -8.97361 -49.0715V-49.0715C-9.6609 -49.8362 -11.1005 -49.4424 -10.7989 -48.4595C-10.0376 -45.9787 -9.44051 -43.4987 -9.27631 -41.0003C-9.68558 -34.7216 -12.2575 -29.463 -14.8094 -29.2458C-15.0004 -29.2295 -15.1597 -29.3395 -15.2332 -29.5166V-29.5166C-15.442 -30.0195 -16.1868 -29.8796 -16.1868 -29.3351V-29.1016C-16.1868 -28.7012 -15.7754 -28.4331 -15.4123 -28.6017C-9.29205 -31.443 -6.10239 -35.2193 -5.46606 -39.1712C-5.59979 -36.8026 -5.92245 -34.4847 -6.41425 -32.3449C-6.47397 -32.085 -6.47053 -31.815 -6.42864 -31.5516C-6.22196 -30.2525 -6.52353 -29.0658 -7.12065 -27.9398C-7.61213 -27.0131 -6.74774 -25.9141 -5.89511 -26.5252C-5.3016 -26.9506 -4.75454 -27.3916 -4.25176 -27.8469C-3.94584 -28.1239 -3.42422 -27.8372 -3.5367 -27.4401V-27.4401C-3.54503 -27.4107 -3.54986 -27.381 -3.55159 -27.3505C-3.75947 -23.6733 -6.28331 -20.4291 -9.3 -17.2795V-17.2795C-10.1515 -16.3853 -9.35883 -15.1309 -8.2598 -15.6937C-8.21989 -15.7142 -8.18007 -15.7347 -8.14034 -15.7553V-15.7553C-6.44949 -16.905 -3.12347 -14.8936 -3.97478 -13.0346C-4.0218 -12.9319 -4.06924 -12.829 -4.11711 -12.7259C-4.4721 -11.9066 -4.87442 -11.0683 -5.30041 -10.2681C-5.08742 -10.592 -4.85076 -10.8968 -4.63777 -11.2207C6.93413 -28.3479 9.89282 -49.3804 -6.48015 -65.4796C-6.48241 -65.4818 -6.4855 -65.4831 -6.48867 -65.4831V-65.4831ZM-15.1692 -74.9183C-15.1692 -74.9158 -15.1703 -74.9134 -15.1723 -74.9118C-15.4092 -74.721 -15.6462 -74.5217 -15.876 -74.3253C-16.0889 -74.1434 -16.2105 -73.8769 -16.2105 -73.5968V-73.5968C-16.2105 -73.2665 -16.0408 -72.9595 -15.7627 -72.7811C-12.8671 -70.9237 -10.2755 -68.981 -8.06935 -66.9693C-7.95039 -66.861 -7.83256 -66.7536 -7.71587 -66.6468C-7.45526 -66.4082 -7.053 -66.6946 -7.21737 -67.0074V-67.0074C-8.84852 -69.8431 -11.3061 -72.5077 -15.1563 -74.9253C-15.1619 -74.9288 -15.1692 -74.9248 -15.1692 -74.9183V-74.9183ZM-13.1594 -52.6606C-13.166 -52.6606 -13.1686 -52.652 -13.1631 -52.6483C-12.9501 -52.5037 -12.7424 -52.359 -12.5374 -52.2123C-12.3421 -52.0725 -12.0688 -52.2724 -12.1445 -52.5003C-12.1733 -52.5868 -12.2021 -52.6736 -12.2314 -52.7609C-12.2942 -52.9486 -12.5108 -53.0331 -12.683 -52.9355C-12.844 -52.8441 -13 -52.7528 -13.156 -52.6615C-13.157 -52.6609 -13.1582 -52.6606 -13.1594 -52.6606V-52.6606ZM6.72973 -26.8379C6.51635 -25.0861 8.0524 -24.5788 7.84534 -26.3314V-26.3314C7.8253 -26.501 7.82795 -26.682 7.86069 -26.8497C8.59675 -30.6196 8.94779 -34.3881 8.92891 -38.0947C8.92366 -39.125 8.73088 -40.1427 8.44424 -41.1324C5.83081 -50.1557 5.54939 -60.0757 0.166457 -69.4652C-0.893504 -71.2385 -2.20845 -72.9559 -3.85138 -74.5911C-4.23929 -74.9772 -4.83236 -74.4783 -4.56677 -73.9997V-73.9997C5.41166 -58.8377 8.66344 -42.7134 6.72973 -26.8379ZM-16.2105 -58.9802C-16.2105 -58.1137 -15.2689 -57.5734 -14.5003 -57.9735C-13.9792 -58.2448 -13.4394 -58.5074 -12.8736 -58.7575C-13.4194 -59.1587 -13.9712 -59.5408 -14.5289 -59.9085C-15.258 -60.3891 -16.2105 -59.8534 -16.2105 -58.9802V-58.9802ZM-12.8736 -58.7575C-12.5451 -58.5167 -12.2211 -58.2712 -11.901 -58.0213C-11.2964 -57.5494 -10.3634 -58.2562 -10.6797 -58.9549V-58.9549C-10.8344 -59.2964 -11.2335 -59.4661 -11.5798 -59.3224C-12.0221 -59.139 -12.4534 -58.9527 -12.8736 -58.7575ZM12.2362 -32.7504C12.1889 -32.3312 12.1416 -31.893 12.0706 -31.4739C12.1115 -31.6385 12.1524 -31.789 12.1933 -31.9498C12.2062 -32.0006 12.2125 -32.0529 12.2125 -32.1053C12.2125 -32.3155 12.2125 -32.5145 12.2125 -32.7267C12.2125 -32.7398 12.2231 -32.7504 12.2362 -32.7504V-32.7504ZM-16.2105 73.6858C-16.2105 75.2842 -14.0518 75.6818 -13.52 74.1745C-11.193 67.5782 -9.39979 60.9921 -9.08698 54.4163C-9.66775 60.8499 -12.5745 66.9715 -16.0166 72.9612C-16.1433 73.1817 -16.2105 73.4315 -16.2105 73.6858V73.6858ZM-2.46045 8.05194C-2.46045 8.04521 -2.45876 8.03859 -2.45553 8.03269C-0.705919 4.83471 1.02003 1.5797 2.69875 -1.71335C7.00599 -11.1826 10.7452 -21.2806 12.0942 -31.4739C9.89326 -22.0618 5.77535 -12.5544 1.51544 -2.95177C-0.0938528 0.210995 -1.7268 3.37375 -3.31243 6.59368C-4.70873 9.7374 -6.10504 12.8811 -7.45401 16.0248C-10.6889 23.5145 -13.7589 31.0232 -16.1938 38.6454C-16.2049 38.6801 -16.2105 38.7162 -16.2105 38.7526V38.7526C-16.2105 39.1595 -15.6146 39.2492 -15.4896 38.8619C-13.5137 32.7427 -10.8153 26.3524 -7.85636 19.7973C-6.10625 15.9322 -4.28521 12.01 -2.46415 8.06876C-2.46171 8.06349 -2.46045 8.05775 -2.46045 8.05194V8.05194ZM-2.24746 -66.9121C-2.55512 -67.4837 -2.86278 -68.0743 -3.17044 -68.6459C-3.76209 -69.4652 -4.40107 -70.2654 -5.08739 -71.0466C-4.49574 -70.2082 -3.92778 -69.3509 -3.38346 -68.4935C-2.98114 -67.9791 -2.60245 -67.4456 -2.24746 -66.9121ZM-0.259516 -72.304C-0.851169 -72.9328 -1.49016 -73.5425 -2.15281 -74.1712C-1.40229 -72.934 -0.719226 -71.7077 -0.083252 -70.4758C0.326489 -69.6821 0.824206 -68.935 1.3595 -68.2199C7.67338 -59.7861 5.39082 -50.7998 10.2566 -42.3573C11.3928 -40.3858 12.349 -38.2564 12.3425 -35.981C12.3394 -34.9098 12.304 -33.8323 12.2362 -32.7504C13.7499 -46.1935 10.9853 -59.7699 -0.262692 -72.3003C-0.264701 -72.3025 -0.261857 -72.3059 -0.259516 -72.304V-72.304ZM5.64995 -40.8547C5.56151 -40.1511 5.50176 -39.443 5.50201 -38.7338C5.50316 -35.478 5.21773 -32.1803 4.66305 -28.8827C4.49456 -23.847 1.13993 -19.4601 -0.0303087 -14.6075C-0.318073 -13.4142 -0.61697 -12.2139 -1.17087 -11.1185C-2.19803 -9.0872 -3.32952 -7.0601 -4.51943 -5.00948C-6.03406 -2.39924 -7.66703 0.230041 -9.37099 2.93554C-11.0986 5.50767 -13.0155 8.0417 -15.1455 10.5567C-15.4482 10.8978 -15.7509 11.2528 -16.0536 11.598C-16.1544 11.713 -16.2105 11.8605 -16.2105 12.0134V12.0134C-16.2105 12.5888 -15.5013 12.8564 -15.1257 12.4205C-13.8123 10.8963 -12.5491 9.35103 -11.3589 7.79402C-9.03966 4.82178 -6.86238 1.79238 -4.89809 -1.31323C-2.93381 -4.39979 -1.13517 -7.54352 0.403133 -10.7444C8.40229 -29.1304 9.96426 -49.4597 -2.24746 -66.9121C2.1727 -58.6578 6.79026 -49.9267 5.64995 -40.8547ZM-11.9979 -84.1671C-11.9979 -84.1629 -12.0032 -84.1609 -12.006 -84.1641C-12.706 -84.9547 -13.425 -85.7351 -14.1565 -86.5079C-14.9008 -87.2943 -16.2105 -86.76 -16.2105 -85.6772V-81.845C-16.2105 -80.8773 -15.7055 -79.9818 -14.8855 -79.4679C-13.5912 -78.6566 -12.3869 -77.8615 -11.5009 -77.1625C-9.06332 -75.2382 -6.93335 -73.1805 -5.08739 -71.0275C-6.50736 -73.0852 -8.06935 -75.1048 -9.77331 -77.1054V-77.1054C-10.5048 -77.8579 -9.78278 -78.9769 -8.84315 -78.5095C-8.59768 -78.3874 -8.36291 -78.2622 -8.14034 -78.1342C-7.77641 -77.8803 -7.42491 -77.6264 -7.08266 -77.3724C-6.90062 -77.2374 -6.66257 -77.4548 -6.79009 -77.6422V-77.6422C-6.92059 -77.834 -6.67654 -78.0744 -6.49443 -77.9307C-4.93075 -76.6969 -3.47931 -75.4403 -2.15281 -74.1712C-3.17046 -75.886 -4.33008 -77.5817 -5.60805 -79.2774C-7.0979 -80.9718 -9.15492 -83.0467 -11.9916 -84.1714C-11.9946 -84.1726 -11.9979 -84.1704 -11.9979 -84.1671V-84.1671ZM-16.2105 -21.8297C-16.2105 -21.7358 -16.1666 -21.6474 -16.0915 -21.5911C-15.5743 -21.2038 -15.0463 -20.8326 -14.5006 -20.4721C-14.0971 -20.2055 -13.5756 -20.2963 -13.2792 -20.6785V-20.6785C-12.6711 -21.4627 -13.5419 -22.8205 -14.493 -22.5373C-14.9767 -22.3932 -15.4741 -22.2543 -15.9858 -22.1201C-16.118 -22.0855 -16.2105 -21.9663 -16.2105 -21.8297V-21.8297ZM60.6334 -72.4184V-72.4184C60.6824 -72.1623 61.0595 -72.198 61.0595 -72.4587V-85.1457V-85.1457C60.4962 -92.7066 57.1913 -93.0142 58.3482 -85.5211C59.0227 -81.1527 59.8199 -76.7835 60.6334 -72.4184ZM45.5226 -75.6002C45.5296 -75.6002 45.5357 -75.5955 45.5374 -75.5887C46.4358 -72.0487 47.3577 -68.5087 48.2797 -64.9497C59.8761 -33.9317 52.3266 -2.03724 47.0018 29.7619C46.4101 33.2867 45.8421 36.8305 45.3688 40.3743C42.7419 65.6003 35.0504 91.4359 34.009 116.205C33.867 119.31 33.7724 133.828 33.7487 136.934C33.6794 149.017 34.7141 161.064 37.5341 173.039C37.6579 173.565 38.1285 173.935 38.6686 173.935V173.935C39.3978 173.935 39.9497 173.277 39.8314 172.558C37.2776 157.031 36.5538 131.241 36.9673 116.224C37.062 113.118 37.204 110.031 37.3696 106.945C38.1269 84.1958 42.7182 61.5801 46.9544 38.7929C48.1377 34.6775 49.2737 30.5621 50.2914 26.4277C57.4385 -2.4183 59.7815 -31.4167 50.2677 -60.5485C49.5341 -64.3781 48.8004 -68.1886 48.0667 -71.9802C47.6296 -74.2125 47.1844 -76.4433 46.7357 -78.6732C45.7824 -83.4119 43.597 -83.2416 44.7672 -78.5518C45.0117 -77.5722 45.2588 -76.5922 45.5079 -75.6117C45.5096 -75.6049 45.5157 -75.6002 45.5226 -75.6002V-75.6002ZM24.3266 -129.008C24.3284 -129.006 24.3292 -129.004 24.3286 -129.001C22.4707 -121.839 23.3587 -114.94 25.5831 -108.092C26.5326 -105.168 28.7333 -106.067 27.3825 -108.828V-108.828C24.3097 -115.279 27.3749 -122.528 24.3174 -129C24.3146 -129.006 24.3216 -129.012 24.3266 -129.008V-129.008ZM56.6812 109.422C56.0483 126.973 57.2498 155.648 59.8717 173.28C59.9152 173.573 60.1656 173.782 60.4613 173.782V173.782C60.7916 173.782 61.0595 173.514 61.0595 173.184V165.932C58.5745 147.375 58.7875 117.1 60.3731 98.4283C60.5624 96.0467 60.8228 93.6651 61.0595 91.3025V91.3025C61.0595 89.4005 58.2093 89.171 57.9766 91.0587C57.6606 93.6217 57.4125 96.2019 57.2729 98.8093C56.9889 102.353 56.7995 105.897 56.6812 109.441V109.422ZM56.9064 45.6046C56.9011 45.6004 56.8933 45.6036 56.8926 45.6103C55.0465 63.9917 51.9711 83.3627 50.1494 101.839C49.8654 105.897 49.6524 109.936 49.534 113.994C49.047 129.866 49.9237 156.643 52.3869 172.878C52.4733 173.447 52.9632 173.858 53.539 173.858V173.858C54.2496 173.858 54.7972 173.236 54.7061 172.532C52.416 154.805 51.3981 126.722 52.1137 109.441C52.2557 105.897 52.4923 102.353 52.7763 98.8093C53.5336 80.9568 59.6631 63.9998 59.9235 45.9568C60.1601 42.7178 60.3731 39.4598 60.5861 36.2208C60.7281 34.2012 60.8938 32.1816 61.0831 30.162V30.162C61.0831 29.4822 60.0507 29.3626 59.884 30.0217C59.474 31.6419 59.0385 33.2622 58.5745 34.8871C58.0073 38.4642 57.4637 42.0222 56.9201 45.5993C56.9191 45.6057 56.9115 45.6087 56.9064 45.6046V45.6046ZM56.8824 -68.9317C56.8892 -68.9317 56.895 -68.9268 56.8961 -68.92C57.5344 -64.9228 58.1492 -60.9065 58.8348 -56.8713C59.0799 -55.9919 59.3167 -55.111 59.5458 -54.2293C59.7599 -53.4051 61.0595 -53.5575 61.0595 -54.4091V-54.4091C61.0595 -54.4752 61.0503 -54.541 61.0321 -54.6045C60.7956 -55.4309 60.5471 -56.2571 60.2866 -57.0761C60.0958 -57.6763 59.9479 -58.2895 59.8543 -58.9123C59.3059 -62.5633 58.7391 -66.2143 58.1722 -69.8653C55.1666 -89.6421 52.5397 -109.324 53.4863 -129.005C50.5996 -108.813 53.7217 -88.9449 56.8687 -68.9434C56.8698 -68.9367 56.8756 -68.9317 56.8824 -68.9317V-68.9317ZM50.9658 -70.6369C50.9586 -70.6311 50.9555 -70.6216 50.9578 -70.6127C51.9505 -66.7499 52.9433 -62.887 53.9596 -59.0052C64.3017 -29.8163 57.3675 -0.208166 52.7763 29.6476C52.1137 33.9154 51.4983 38.1832 51.0013 42.4511C50.4334 63.9617 42.7655 84.9579 42.1502 106.888C41.8899 109.974 41.7005 113.08 41.5585 116.185C40.8387 131.384 41.5314 157.551 44.9333 173C45.0475 173.519 45.5079 173.877 46.0391 173.877V173.877C46.7663 173.877 47.3088 173.209 47.1694 172.495C44.1393 156.985 43.3962 131.201 43.9015 116.185C43.9962 113.099 44.1618 109.993 44.3512 106.888C47.3568 84.9579 48.8951 62.3422 53.226 40.622C54.0306 36.6781 54.8353 32.7151 55.5926 28.7521C58.5982 13.1669 61.0358 -2.55167 61.0595 -18.194V-18.3655C61.0595 -30.5212 59.5921 -42.6388 55.7819 -54.604C54.9772 -58.7766 54.2909 -62.911 53.6283 -67.0264C53.2288 -69.4602 52.823 -71.895 52.4195 -74.3308C51.1499 -81.9963 48.0724 -82.2769 49.9466 -74.7364C50.2843 -73.3776 50.6279 -72.0192 50.9739 -70.6612C50.9762 -70.6522 50.973 -70.6427 50.9658 -70.6369V-70.6369ZM-16.2105 -12.216C-16.2105 -11.525 -15.3365 -11.1985 -14.8664 -11.705C-14.8435 -11.7297 -14.8205 -11.7544 -14.7975 -11.7791C-14.2835 -12.3307 -14.8534 -13.3452 -15.5953 -13.2111V-13.2111C-15.9428 -13.1482 -16.2105 -12.8469 -16.2105 -12.4937V-12.216ZM39.6889 -77.334V-77.334C39.5474 -77.665 39.0115 -77.4751 39.0973 -77.1255C39.1052 -77.0934 39.1131 -77.0612 39.1209 -77.0291C39.9966 -73.5044 40.7539 -69.9606 41.3456 -66.4358V-66.4358C41.3798 -66.3257 41.5541 -66.3504 41.5495 -66.4656C41.5274 -67.0178 41.5027 -67.5651 41.4876 -68.1124C41.2509 -71.1609 40.7066 -74.2284 39.6889 -77.334ZM-11.1933 -2.38021C-12.5684 -1.07353 -14.1367 0.181313 -15.9188 1.36781C-16.0855 1.47882 -16.1868 1.66541 -16.1868 1.86572V1.86572C-16.1868 2.40476 -15.5278 2.66331 -15.1648 2.26481C-14.251 1.26152 -13.3658 0.255491 -12.5186 -0.76071C-12.0731 -1.28922 -11.6276 -1.81773 -11.2052 -2.34625C-11.1974 -2.35589 -11.1933 -2.36786 -11.1933 -2.38021V-2.38021ZM-16.1868 -50.4893C-16.1868 -50.4281 -16.0959 -50.4185 -16.0831 -50.4783C-16.0704 -50.538 -16.0576 -50.5983 -16.0448 -50.66C-16.0882 -50.6077 -16.1316 -50.5713 -16.175 -50.5216C-16.1827 -50.5127 -16.1868 -50.5011 -16.1868 -50.4893V-50.4893ZM-16.0448 -50.66C-15.5265 -51.1142 -14.9492 -51.5525 -14.3004 -51.98C-13.783 -52.321 -13.7379 -53.0798 -14.2624 -53.4098V-53.4098C-14.7077 -53.69 -15.3015 -53.4759 -15.4498 -52.9711C-15.6685 -52.226 -15.8602 -51.4619 -16.0405 -50.6976C-16.0434 -50.6853 -16.0448 -50.6727 -16.0448 -50.66V-50.66ZM21.8091 136.896C21.7932 136.904 21.7739 136.896 21.7742 136.878C21.8221 133.715 21.9637 119.279 22.1523 116.205C24.3296 88.1969 32.0211 60.7418 37.843 32.6198C38.979 28.9998 40.0202 25.3607 40.9905 21.7216C47.325 -2.4497 49.2442 -26.9966 44.847 -51.4577C44.4887 -53.4509 42.1452 -53.121 42.2449 -51.0983V-51.0983C41.2982 -56.0711 39.9019 -61.0629 37.985 -66.0357C36.8017 -70.3226 35.3343 -74.5904 33.7487 -78.8582C27.4062 -95.9105 18.9574 -112.868 16.6618 -129.825C17.6084 -113.172 24.5663 -97.1489 31.1691 -80.9731C32.4944 -77.7341 33.7961 -74.4951 35.0267 -71.2371C38.3844 -64.8079 40.6547 -58.3436 42.0669 -51.8611C42.1884 -51.3032 42.2587 -50.7356 42.2858 -50.1652C42.7411 -40.5793 43.1198 -30.9585 43.0969 -21.3378C41.8189 -10.8397 39.1446 -0.341554 35.926 10.0994C34.7427 13.9671 33.4884 17.8348 32.2104 21.6835C25.8916 54.2829 15.1471 98.0281 12.8989 131.009C12.7805 134.591 12.7569 138.172 12.8042 141.754C12.9421 152.192 13.7946 162.612 15.7304 172.962C15.8298 173.494 16.2953 173.877 16.8364 173.877V173.877C17.5444 173.877 18.0777 173.233 17.9502 172.537C15.8166 160.877 14.6879 149.114 14.4372 137.315C14.3425 133.238 14.3898 117.729 14.5555 113.671C15.1649 86.8378 27.2185 59.65 30.5078 32.1071C30.5716 31.5731 30.6695 31.044 30.8109 30.5251C31.733 27.1421 32.785 23.8494 33.7961 20.5403C37.8903 7.26051 41.5112 -6.1336 43.0969 -19.623C42.9549 -6.22886 41.8899 7.18431 38.766 20.5784C37.8903 24.2747 36.8727 27.99 35.6894 31.6862C30.5301 59.9035 22.8386 88.1588 19.9514 116.166C19.8094 119.253 19.7147 133.79 19.691 136.877C19.5755 148.969 20.4527 161.024 23.0054 173.008C23.1136 173.516 23.5638 173.877 24.0835 173.877V173.877C24.7998 173.877 25.3272 173.207 25.1673 172.509C22.4669 160.719 21.6187 148.827 21.8439 136.917C21.8442 136.899 21.825 136.887 21.8091 136.896V136.896ZM-5.30041 -10.2681C-7.12271 -7.56257 -9.11064 -4.93329 -11.1933 -2.38021C-10.6253 -2.93274 -10.0809 -3.48526 -9.56029 -4.05684C-7.78533 -6.03833 -6.41272 -8.1151 -5.30041 -10.2681ZM-8.47167 51.1394C-8.47167 51.142 -8.46795 51.1424 -8.46736 51.1399C-8.04312 49.3359 -7.66581 47.513 -7.31201 45.6901C-7.12269 44.7184 -6.98071 43.7467 -6.81505 42.775C-7.07537 43.9563 -7.31203 45.1375 -7.54869 46.2998C-7.85634 47.9192 -8.16398 49.5196 -8.47163 51.139C-8.47166 51.1391 -8.47167 51.1393 -8.47167 51.1394V51.1394ZM-9.08698 54.4163C-9.08698 54.4163 -9.08698 54.34 -9.08698 54.3019C-9.08698 54.34 -9.08698 54.3781 -9.08698 54.3972V54.4163ZM-3.97512 -126.071C-4.23544 -127.329 -4.49576 -128.586 -4.85075 -129.844C-4.61409 -128.586 -4.30644 -127.329 -3.97512 -126.071ZM16.2594 -86.6889C16.2742 -86.6889 16.2879 -86.6814 16.2958 -86.6689C16.9539 -85.6277 17.5888 -84.5864 18.2237 -83.5452C19.8094 -80.954 21.3477 -78.3247 22.815 -75.6764C22.7203 -75.905 22.6256 -76.1337 22.5073 -76.3433C20.8507 -79.8109 18.7917 -83.2594 16.2594 -86.6889V-86.6889ZM15.0886 -110.448C15.0943 -110.448 15.0985 -110.453 15.0972 -110.459C14.7156 -112.061 14.3339 -113.664 13.9759 -115.266C13.102 -119.177 10.0338 -119.404 11.1276 -115.549C12.163 -111.899 13.7742 -108.27 15.0998 -104.789C19.0994 -94.5768 24.5663 -84.7074 29.1102 -74.8952C28.9918 -75.2001 28.8972 -75.4859 28.7788 -75.7907C24.4494 -87.1615 19.1266 -98.6274 15.0802 -110.436C15.0782 -110.442 15.0825 -110.448 15.0886 -110.448V-110.448ZM0.178928 131.809C0.172325 131.809 0.167213 131.803 0.168087 131.797C4.35815 100.417 15.1006 56.6985 20.9217 25.3988C22.1996 21.3024 23.6906 17.3585 25.1342 13.4146C35.1687 -14.212 41.8425 -42.1434 28.9918 -69.2937C27.4535 -72.7804 25.6549 -76.248 23.7616 -79.7347C18.0817 -90.1946 11.4552 -100.674 7.43198 -111.267C7.20894 -112.204 7.01824 -113.123 6.8505 -114.031C5.76285 -119.917 4.08051 -120.21 5.89369 -114.506V-114.506C8.78096 -102.998 15.3128 -91.8332 21.324 -80.7063C23.3119 -76.991 25.2526 -73.2948 26.9802 -69.5795C43.4045 -41.6862 34.0327 -13.5452 23.1699 14.3863C21.6316 18.3683 20.0934 22.3885 18.9101 26.6182C13.5852 51.8441 10.5086 75.26 1.30246 100.276C-1.60614 106.383 -3.13986 123.421 -2.21884 130.641C-2.12046 131.412 -2.04094 132.182 -2.04691 132.959C-2.07058 136.041 -2.02386 139.136 -1.93983 142.231C-1.59495 152.393 -0.602274 162.591 1.25514 172.842C1.34992 173.365 1.8063 173.744 2.33788 173.744V173.744C3.03711 173.744 3.55984 173.102 3.4241 172.416C1.42735 162.326 0.439534 152.27 0.190147 142.25C0.0955841 138.767 0.0954822 135.284 0.189841 131.82C0.190008 131.814 0.185074 131.809 0.178928 131.809V131.809ZM33.4536 -64.7782C33.459 -64.7782 33.4626 -64.7836 33.4607 -64.7885C32.1601 -68.1002 30.7416 -71.3739 29.2285 -74.6666V-74.6666C29.2116 -74.6939 29.1963 -74.6874 29.2077 -74.6573C30.4959 -71.2563 31.6946 -67.8544 32.8257 -64.4162C42.1502 -43.8772 40.4699 -23.3383 35.287 -2.7803C41.6284 -23.4298 44.2082 -44.1746 33.4469 -64.767C33.4443 -64.772 33.4479 -64.7782 33.4536 -64.7782V-64.7782ZM7.40833 -96.7298C10.8399 -93.4146 13.7745 -90.0613 16.2594 -86.6889C8.09462 -99.7782 -0.425183 -112.467 -3.99877 -126.071C-1.98715 -116.03 -2.12913 -106.066 7.40833 -96.7298ZM-1.80915 -102.388C-1.8047 -102.388 -1.80247 -102.394 -1.80538 -102.397C-5.54951 -106.738 -5.99845 -111.274 -6.55601 -115.815C-7.26952 -121.626 -11.4301 -120.092 -9.08832 -114.727C-3.96515 -102.989 5.95836 -91.8091 14.4608 -80.5349C14.4682 -80.5251 14.4756 -80.5153 14.483 -80.5055C14.6862 -80.2361 15.0577 -80.4725 14.8868 -80.7635V-80.7635C10.676 -88.0958 5.09368 -95.3138 -1.81284 -102.38C-1.81606 -102.383 -1.81375 -102.388 -1.80915 -102.388V-102.388ZM7.89438 130.981C7.89931 130.985 7.90667 130.982 7.90782 130.976C13.5638 100.397 21.23 59.0987 25.8916 28.7902C26.9566 24.751 28.2345 20.8833 29.4888 16.9965C31.6188 10.4042 33.6541 3.81197 35.3107 -2.7803C33.3937 3.43092 31.1454 9.66118 28.8262 15.8534C27.3825 19.683 25.9152 23.5126 24.7083 27.4565C19.7147 47.8049 18.1764 68.0009 10.4849 88.9781C7.4083 99.4762 5.87 120.606 5.75167 130.99C5.586 134.571 5.51503 138.153 5.51503 141.716C5.53804 152.167 6.34447 162.581 8.41318 172.924C8.51538 173.435 8.96535 173.801 9.48645 173.801V173.801C10.1918 173.801 10.7144 173.146 10.566 172.457C8.37728 162.283 7.57499 152.008 7.59766 141.716C7.59766 138.14 7.69203 134.563 7.88078 130.987C7.88114 130.98 7.88906 130.976 7.89438 130.981V130.981ZM-13.2159 141.441C-13.2112 141.444 -13.2042 141.442 -13.2036 141.436C-12.5442 134.32 -14.0796 116.448 -12.5422 109.174C-1.9029 77.9878 5.71972 48.3894 13.5426 17.2897C13.6968 16.6769 13.9035 16.0774 14.1609 15.5003C15.857 11.6981 17.5648 7.92652 19.1704 4.15492C28.2345 -17.1461 33.9617 -38.5425 25.0632 -60.2436C30.6958 -39.4951 25.8916 -18.6132 17.7741 2.00194C16.1884 6.02209 14.4845 10.0422 12.7095 14.0624C2.76974 41.346 1.23146 68.0009 -11.0513 96.2562C-15.6662 107.555 -15.6662 130.304 -15.7135 141.43C-15.6662 144.993 -15.5479 148.556 -15.3585 152.138C-14.974 158.968 -14.2867 165.797 -13.1727 172.643C-13.0835 173.191 -12.6091 173.592 -12.0541 173.592V173.592C-11.3623 173.592 -10.831 172.979 -10.9248 172.294C-11.8432 165.579 -12.4705 158.85 -12.8262 152.138C-13.0153 148.581 -13.1571 145.004 -13.2282 141.447C-13.2284 141.44 -13.2209 141.437 -13.2159 141.441V141.441ZM28.4238 138.687C28.2251 135.008 28.1088 121.382 28.1325 116.351C28.1355 115.719 28.1983 115.092 28.313 114.471C33.5789 85.9327 36.6609 56.3896 43.2862 27.7042C44.4458 23.6269 45.4871 19.5496 46.4101 15.4532C51.948 -9.0868 53.084 -33.8364 47.3094 -58.3764C46.5521 -62.3966 45.7948 -66.3596 44.9191 -70.2845C40.5172 -89.966 32.9441 -109.343 31.9974 -129.024C31.9974 -120.946 30.4591 -113.687 31.9974 -105.608C34.5534 -97.2632 37.275 -89.0896 39.7362 -81.0112C40.9669 -76.972 42.1265 -72.9328 43.1442 -68.9126C53.8649 -40.1429 52.09 -11.1254 44.2565 17.7967C43.2862 21.4168 42.2212 25.0368 41.0616 28.6378C33.5121 57.4837 31.9738 87.3776 27.2642 116.166C27.0512 119.272 26.9092 133.79 26.8146 136.896C26.4912 148.981 27.2723 161.031 30.1913 173.008C30.3187 173.531 30.7888 173.896 31.3269 173.896V173.896C32.0508 173.896 32.6024 173.248 32.4876 172.534C30.6815 161.288 29.0608 150.022 28.4238 138.668V138.687ZM16.61 -77.6025C16.6129 -77.6014 16.6153 -77.5992 16.6167 -77.5964C16.6458 -77.5411 16.6748 -77.4858 16.7037 -77.4305C17.0029 -76.8578 15.9929 -76.2661 15.5741 -76.7582C15.4106 -76.9503 15.2447 -77.1422 15.0761 -77.334C4.35373 -90.4845 -8.20237 -103.635 -14.7455 -117.549C-15.0842 -118.269 -16.2578 -118.031 -16.2578 -117.235V-117.235C-16.2578 -117.107 -16.2242 -116.982 -16.1585 -116.872C-16.001 -116.61 -15.8379 -116.358 -15.6425 -116.106C-9.20532 -106.18 -1.63214 -96.2344 4.97072 -86.2698C6.97893 -83.2449 8.90832 -80.2041 10.669 -77.162C11.0055 -76.5806 11.3913 -76.028 11.8169 -75.5083C19.8331 -65.721 23.817 -55.827 25.0159 -45.8968C24.9206 -50.5016 24.4733 -55.1149 23.6095 -59.7426C23.4386 -60.6582 24.6889 -61.1064 25.0396 -60.2436V-60.2436C24.0693 -63.8065 22.815 -67.3503 21.182 -70.8941C19.7699 -73.1298 18.2175 -75.3655 16.5944 -77.5825C16.5866 -77.5932 16.5977 -77.6075 16.61 -77.6025V-77.6025ZM25.0396 -45.8778C25.2763 -34.0841 23.1936 -22.3476 19.6437 -10.7253C23.9983 -22.4428 26.4596 -34.1984 25.0396 -45.8778ZM11.5385 7.57526C11.5453 7.5807 11.5476 7.58993 11.5443 7.59796C8.94005 13.918 4.33064 19.5542 2.81709 26.0085C0.0341127 47.9956 -7.82557 68.6771 -16.1478 91.0135C-16.2048 91.1665 -16.2342 91.329 -16.2342 91.4923V91.4923C-16.2342 93.1303 -13.6712 93.4371 -13.2472 91.855C-5.57 63.2049 6.15536 34.8134 13.5378 6.23167C15.1708 2.24963 16.7091 -1.77052 18.0581 -5.77161C18.6261 -7.42921 19.1467 -9.0868 19.6437 -10.7444C18.8627 -8.62953 18.0107 -6.53371 17.1114 -4.41885C15.4095 -0.422484 13.5186 3.57387 11.5333 7.55125C11.5291 7.55949 11.5313 7.56948 11.5385 7.57526V7.57526ZM-6.7677 132.514C-3.33611 98.8093 10.4849 54.2829 19.5254 20.6737C21.1583 16.7869 22.7913 12.9573 24.3059 9.12771C34.9084 -17.7749 39.5469 -45.1538 24.9449 -71.7896C24.2586 -73.0852 23.525 -74.3808 22.815 -75.6573C24.3059 -72.4184 25.4656 -69.1603 26.4359 -65.8642C37.133 -41.7243 32.0211 -17.832 22.673 5.79346C21.2331 9.42922 19.7127 13.0488 18.1304 16.682C17.8626 17.2971 17.6518 17.928 17.4973 18.5809C8.6558 55.9408 -7.95246 103.995 -8.11669 141.488C-7.99836 145.051 -7.83268 148.632 -7.61969 152.195C-7.21288 159.018 -6.63342 165.859 -5.92252 172.717C-5.86533 173.268 -5.40011 173.687 -4.84553 173.687V173.687C-4.17007 173.687 -3.65935 173.076 -3.77458 172.41C-5.4764 162.581 -6.40182 152.7 -6.69671 142.802C-6.79137 139.373 -6.8387 135.924 -6.7677 132.514ZM-1.73103 -78.2104C-1.7284 -78.2104 -1.72595 -78.2091 -1.72454 -78.2069C-1.20464 -77.3888 -0.684788 -76.5707 -0.18852 -75.7526C5.82268 -63.616 15.6441 -52.3176 15.4075 -39.3046C15.5968 -36.7896 15.5731 -34.1794 15.3602 -31.531C17.3001 -47.8731 13.0672 -64.3294 -1.73616 -78.197C-1.74125 -78.2018 -1.738 -78.2104 -1.73103 -78.2104V-78.2104ZM15.3838 -31.531C15.1945 -29.9877 14.9578 -28.4445 14.6738 -26.9202C14.7062 -27.0244 14.7368 -27.1301 14.7665 -27.2363C14.9245 -27.7998 15.0491 -28.3732 15.1213 -28.9539C15.2287 -29.8183 15.3129 -30.6746 15.3838 -31.531ZM11.0529 -13.9643C10.1063 -11.4112 9.06494 -8.89627 7.90529 -6.4194C7.71597 -6.07645 7.50297 -5.7335 7.31364 -5.4096C6.93498 -4.60938 6.58001 -3.7901 6.22502 -2.98989C5.37304 -1.35134 4.52105 0.287202 3.66907 1.92574C1.0658 6.87948 -1.56115 11.8713 -3.88043 16.9203C-5.58439 20.6356 -7.14635 24.37 -8.42433 28.1424C-9.67863 31.9149 -10.649 35.7445 -11.146 39.6313C-11.8796 43.0227 -12.5659 46.4331 -13.3232 49.8626C-14.0806 53.2731 -14.8852 56.7026 -15.8792 60.1321C-15.993 60.517 -16.1068 60.9018 -16.2206 61.2697C-16.2296 61.2987 -16.2342 61.3288 -16.2342 61.3591V62.7086C-16.2342 62.9218 -15.9198 62.9517 -15.8792 62.7423V62.7423C-15.1455 59.1033 -14.4119 55.4642 -13.6309 51.8251C-12.8499 48.186 -12.0216 44.5278 -11.1223 40.8506C-9.58397 33.8202 -7.05168 26.6563 -4.16441 19.4353C-2.72078 15.8343 -1.18249 12.1952 0.37948 8.55612C1.94145 5.48861 3.50341 2.38299 5.04171 -0.741668C5.34937 -1.31325 5.63334 -1.88483 5.941 -2.45641C5.32568 -1.0465 4.71037 0.382452 4.14239 1.79236C2.22543 6.61272 0.687138 11.4521 -0.472502 16.2916C-1.56114 19.8925 -2.57879 23.5126 -3.50177 27.1136C-4.44841 30.7146 -5.32408 34.3346 -6.1524 37.9356C-6.36539 39.5551 -6.62571 41.1555 -6.88604 42.7559C-6.57838 41.2698 -6.24706 39.7837 -5.89207 38.3166C-4.82709 34.5823 -3.62012 30.8479 -2.27115 27.0755C-0.945848 23.303 0.497806 19.5115 1.96511 15.72C3.8584 12.0618 5.72802 8.34652 7.55032 4.61217C9.34894 0.877817 11.1002 -2.91367 12.6149 -6.70518V-6.70518C14.0381 -11.2332 10.9464 -12.3143 8.77912 -8.09159C8.59565 -7.73414 8.40724 -7.37984 8.21297 -7.02908C9.31765 -9.28082 10.2356 -11.589 10.99 -13.9348C10.9984 -13.961 11.0273 -13.9746 11.0529 -13.9643V-13.9643ZM-11.9387 -93.3955C-11.9463 -93.3955 -11.9534 -93.3988 -11.9583 -93.4045C-13.2256 -94.8816 -14.5733 -96.3263 -15.8898 -97.7836C-16.0026 -97.9086 -16.2105 -97.8288 -16.2105 -97.6605V-97.6605C-16.2105 -97.6251 -16.2003 -97.5904 -16.181 -97.5607C-14.7679 -95.3853 -13.1455 -93.2471 -11.4063 -91.0901C-8.00018 -86.8817 -4.33402 -82.7113 -1.89639 -78.3698C-1.8938 -78.3652 -1.88997 -78.3608 -1.88588 -78.3575V-78.3575C-1.84972 -78.3278 -1.80999 -78.3613 -1.8349 -78.4009C-2.80863 -79.949 -3.78234 -81.4812 -4.75607 -83.0308C-6.4585 -86.6285 -9.05862 -90.0551 -11.9192 -93.3865C-11.9241 -93.3922 -11.9312 -93.3955 -11.9387 -93.3955V-93.3955ZM11.0529 -13.9643C12.6149 -18.2322 13.8455 -22.5571 14.6738 -26.9202C13.4905 -22.7286 12.4729 -18.3084 11.0529 -13.9643ZM-2.55513 41.5937V41.5937C-2.55513 41.4712 -2.7002 41.4471 -2.72885 41.5663C-3.08985 43.067 -3.45388 44.5752 -3.83309 46.0711C-4.33008 48.6433 -4.92176 51.2154 -5.63174 53.7875C-8.48258 62.8921 -12.2013 72.1667 -16.1807 81.4984C-16.216 81.581 -16.2342 81.67 -16.2342 81.7598V81.7598C-16.2342 82.4532 -15.3266 82.674 -15.022 82.0511C-9.8432 71.4611 -7.44597 60.4803 -4.49574 49.615C-3.88183 46.9157 -3.26795 44.2543 -2.56003 41.5931C-2.55928 41.5902 -2.55513 41.5908 -2.55513 41.5937V41.5937ZM-9.08698 54.3019C-8.89765 53.254 -8.68465 52.2061 -8.49532 51.1773C-8.5961 51.6293 -8.69688 52.0813 -8.80299 52.5334C-8.93937 53.1144 -9.03772 53.7072 -9.08698 54.3019V54.3019ZM-1.17126 -89.9279C-1.167 -89.9279 -1.16502 -89.9332 -1.16826 -89.936C-1.47105 -90.1947 -1.78027 -90.4598 -2.09509 -90.7301C-2.50168 -91.0792 -3.06922 -90.5615 -2.76045 -90.1235C-1.28518 -88.0308 0.189028 -85.9353 1.72843 -83.831C3.36139 -81.3922 4.85237 -78.9535 6.24867 -76.4766C7.95263 -73.371 9.58559 -70.2463 11.1239 -67.1217C9.68026 -69.6367 7.99996 -72.1135 6.05934 -74.5523V-74.5523C5.73693 -74.9824 5.19322 -74.6157 5.4554 -74.1465C10.7422 -64.6835 16.2333 -55.1903 18.0107 -45.3253C17.5374 -49.8789 16.5908 -54.3563 15.0051 -58.7575V-58.7575C15.3007 -58.0713 16.2559 -58.3681 16.0494 -59.0861C13.953 -66.3747 10.8371 -73.5913 6.60365 -80.6492C4.45192 -83.8473 1.87496 -86.9312 -1.17446 -89.92C-1.17739 -89.9229 -1.17537 -89.9279 -1.17126 -89.9279V-89.9279ZM21.7569 -39.0797C21.7524 -39.1406 21.7423 -39.2018 21.7274 -39.261V-39.261C21.404 -40.5467 19.2968 -40.0859 19.3497 -38.7612C19.6654 -30.8564 18.9021 -22.9654 17.1824 -15.2027C18.4394 -18.3588 19.6389 -21.4993 20.8154 -24.6523C21.0755 -25.3493 21.2661 -26.071 21.366 -26.8083C21.9347 -31.0025 22.053 -35.1123 21.7569 -39.0797ZM17.4924 -27.0395C17.4436 -26.6971 17.9225 -26.4995 18.1277 -26.7779V-26.7779C18.1592 -26.8205 18.1804 -26.8715 18.188 -26.924C18.7938 -31.1261 18.9555 -35.2526 18.6497 -39.2474C18.6497 -41.2861 18.3894 -43.3247 18.0344 -45.3253C18.6491 -39.298 18.3677 -33.1723 17.4924 -27.0395ZM2.22544 25.0274C2.22544 25.0291 2.2279 25.0295 2.22846 25.0279C3.53577 21.1753 4.88906 17.3227 6.22022 13.4518C6.25491 13.351 6.29755 13.2529 6.34759 13.1587C8.37686 9.33819 10.2214 5.51719 11.8812 1.65901C14.1295 -3.86631 15.9044 -9.50595 17.1824 -15.2027C15.6678 -11.3922 14.0585 -7.56255 12.2599 -3.69483C10.9819 -1.23702 9.70393 1.23984 8.4733 3.73576C6.01202 8.7276 3.76374 13.8337 2.01245 19.0352C0.829142 22.7505 -0.188525 26.4848 -0.969507 30.2382C-1.41607 32.3594 -1.77837 34.4956 -2.05052 36.6422C-2.10014 37.0336 -1.61579 37.1164 -1.51382 36.7352V36.7352C-0.355077 32.8324 0.921815 28.9487 2.22241 25.0269C2.22296 25.0252 2.22544 25.0256 2.22544 25.0274V25.0274ZM-13.2565 -99.7592C-13.2538 -99.7592 -13.2511 -99.7582 -13.2489 -99.7565C-13.1312 -99.6625 -12.9908 -99.5868 -12.8736 -99.4924V-99.4924C-11.6854 -98.6459 -10.1583 -100.119 -11.0971 -101.236C-12.23 -102.584 -13.4219 -103.921 -14.6959 -105.246V-105.246C-15.2485 -105.825 -16.2105 -105.41 -16.2105 -104.61L-16.2105 -98.8924C-16.2105 -98.4623 -15.943 -98.0801 -15.5486 -97.9085C-14.7343 -97.5543 -13.9509 -97.1285 -13.1936 -96.6432C-12.6666 -96.3055 -11.8805 -96.9717 -12.1636 -97.53V-97.53C-12.5393 -98.2672 -12.915 -99.0045 -13.2675 -99.7417C-13.2714 -99.7498 -13.2655 -99.7592 -13.2565 -99.7592V-99.7592ZM-9.56029 -93.7956V-93.7956C-9.78986 -94.0051 -10.0909 -93.7587 -9.93475 -93.4901C-8.53916 -91.089 -6.96703 -88.725 -5.07604 -86.4555C-5.03643 -86.408 -4.99291 -86.3635 -4.94643 -86.3227C-2.888 -84.5145 -0.997039 -82.6905 0.73917 -80.8559C1.07404 -80.502 1.7485 -80.976 1.52329 -81.408V-81.408C1.5021 -81.4487 1.47505 -81.484 1.44163 -81.5154C-1.95029 -84.7015 -5.41549 -89.89 -9.56029 -93.7956Z" fill="#19424B" fill-opacity="0.4"/>
</g>
<path d="M96.0186 44.3643L63.16 75.7255C59.0522 79.6461 56.9983 81.6065 55.2336 80.9575C53.4689 80.3085 53.4689 77.5928 53.4689 72.1615L53.4689 29.7351C53.4755 26.3361 54.9506 23.0775 57.5726 20.6699L63.509 15.2379L65.9307 13.5438C71.5827 9.58994 74.4087 7.61299 77.4868 7.00556C80.0204 6.50558 82.6557 6.65564 85.102 7.43917C88.074 8.39109 90.6104 10.6734 95.6831 15.238C101.309 20.3857 104.122 22.9596 105.165 25.9074C106.054 28.4214 106.077 31.1249 105.229 33.651C104.236 36.6129 101.497 39.1967 96.0186 44.3643Z" fill="#19424B" fill-opacity="0.7"/>
<path d="M60.728 103H89.4868C97.3671 103 101.307 103 104.317 101.597C106.965 100.362 109.117 98.3927 110.466 95.9701C112 93.216 112 89.6107 112 82.4C112 75.1893 112 71.584 110.466 68.8299C109.117 66.4073 106.965 64.4377 104.317 63.2033C101.307 61.8 97.3671 61.8 89.4868 61.8H88.2501L55.5967 91.6596C54.2343 92.9053 53.4689 94.4462 53.4689 96.2086C53.4689 99.877 56.7189 103 60.728 103Z" fill="#19424B"/>
</svg>
