<?xml version="1.0" encoding="utf-8"?>
<!-- Generator: Adobe Illustrator 28.0.0, SVG Export Plug-In . SVG Version: 6.00 Build 0)  -->
<svg version="1.1" id="Layer_1" xmlns="http://www.w3.org/2000/svg" xmlns:xlink="http://www.w3.org/1999/xlink" x="0px" y="0px"
	 viewBox="0 0 188 190" style="enable-background:new 0 0 188 190;" xml:space="preserve">
<style type="text/css">
	.st0{fill:#FFFFFF;filter:url(#Adobe_OpacityMaskFilter);}
	.st1{mask:url(#mask0_336_40_00000072965857327995635310000006885511683712952711_);}
	.st2{fill:#19424B;}
	.st3{fill:#FFFFFF;filter:url(#Adobe_OpacityMaskFilter_00000150066440874888834010000007775730885516579746_);}
	.st4{mask:url(#mask1_336_40_00000056399246587378302680000011876376657350758838_);}
	.st5{fill:#19424B;fill-opacity:0.45;}
</style>
<defs>
	<filter id="Adobe_OpacityMaskFilter" filterUnits="userSpaceOnUse" x="-72.7" y="-93.3" width="316.2" height="307.1">
		<feColorMatrix  type="matrix" values="1 0 0 0 0  0 1 0 0 0  0 0 1 0 0  0 0 0 1 0"/>
	</filter>
</defs>
<mask maskUnits="userSpaceOnUse" x="-72.7" y="-93.3" width="316.2" height="307.1" id="mask0_336_40_00000072965857327995635310000006885511683712952711_">
	<path class="st0" d="M86,29.3l-83.6,80c-2,1.9-2.1,5.1-0.2,7.1L25.8,141c1.9,2,5.1,2.1,7.1,0.2l83.6-80c2-1.9,2.1-5.1,0.2-7.1
		L93,29.4C91.1,27.4,88,27.4,86,29.3z"/>
</mask>
<g class="st1">
	<path class="st2" d="M242.1-44.1l-45.6-47.6c-1.9-2-5.1-2.1-7.1-0.2L-71.2,157.7c-2,1.9-2.1,5.1-0.2,7.1l45.6,47.6
		c1.9,2,5.1,2.1,7.1,0.2L241.9-37C243.9-38.9,244-42.1,242.1-44.1z"/>
</g>
<defs>
	
		<filter id="Adobe_OpacityMaskFilter_00000022530743875476533580000009110664081649498036_" filterUnits="userSpaceOnUse" x="-98.7" y="84.8" width="370.8" height="76">
		<feColorMatrix  type="matrix" values="1 0 0 0 0  0 1 0 0 0  0 0 1 0 0  0 0 0 1 0"/>
	</filter>
</defs>
<mask maskUnits="userSpaceOnUse" x="-98.7" y="84.8" width="370.8" height="76" id="mask1_336_40_00000056399246587378302680000011876376657350758838_">
	<path style="fill:#FFFFFF;filter:url(#Adobe_OpacityMaskFilter_00000022530743875476533580000009110664081649498036_);" d="
		M64.8,144.8h115.7c2.8,0,5-2.2,5-5v-34c0-2.8-2.2-5-5-5H64.8c-2.8,0-5,2.2-5,5v34C59.8,142.6,62,144.8,64.8,144.8z"/>
</mask>
<g class="st4">
	<path class="st5" d="M-98.7,89.9v65.9c0,2.8,2.2,5,5,5h360.8c2.8,0,5-2.2,5-5V89.9c0-2.8-2.2-5-5-5H-93.7
		C-96.5,84.9-98.7,87.1-98.7,89.9z"/>
	<path class="st5" d="M55.6,147.3c3.2,1.4,6.4,2.6,9.7,3.5c4.1,1.5,8.3,3.1,12.4,4.8c4.1,1.7,8.2,3.4,12.2,5.2
		c0.1,0,0.2,0.1,0.3,0.1l0,0c0.7,0,0.9-0.9,0.3-1.2c-3.4-1.6-6.8-3.2-10.2-4.8c-3.2-1.4-6.3-2.8-9.5-4.1c-4-1.8-8.2-3.5-12.3-5
		c-4.2-1.5-8.4-2.9-12.6-4l0,0c-0.6-0.2-0.9,0.6-0.3,0.9c0.2,0.1,0.5,0.2,0.7,0.3C49.3,144.3,52.4,145.9,55.6,147.3z M-20.2,151.2
		C-20.2,151.2-20.2,151.2-20.2,151.2c1.8-0.6,3.6-1.1,5.4-1.6c0.9-0.2,1.3,1,0.5,1.4l0,0c-3.8,1.8-7.4,3.9-10.9,6.2
		c-0.9,0.6-1.1,1.7-0.5,2.6c0.1,0.1,0.2,0.3,0.3,0.4c0.2,0.3,0.5,0.5,0.9,0.5h1.9c0.4,0,0.6-0.5,0.3-0.8l0,0
		c-0.2-0.1-0.2-0.4-0.1-0.6c4.5-5.4,9.9-9.1,15.6-11.2c0.3-0.1,0.5-0.2,0.8-0.2c2.9-0.5,5.8-1,8.7-1.8c0,0,0.1,0,0.1,0l0,0
		c0.5,0,0.6,0.6,0.2,0.8c-2,0.8-3.9,1.8-5.7,3c-1,0.6-0.3,1.9,0.8,1.5c0.2-0.1,0.4-0.1,0.7-0.2c1.2-0.4,2,1.9,1,2.6l0,0
		c-0.8,0.6-0.4,1.9,0.5,1.7c3.2-0.8,6.4-1.5,9.6-1.6c7.6,0.4,14.1,2.9,14.3,5.4c0,0.2-0.1,0.4-0.3,0.4l0,0c-0.5,0.2-0.4,1,0.1,1h0.4
		c0.4,0,0.7-0.5,0.5-0.8c-3.5-6-8.1-9.1-12.9-9.7c2.9,0.1,5.8,0.5,8.4,0.9c0.3,0,0.5,0,0.8,0c1.9-0.3,3.6,0.2,5.2,1
		c1,0.5,2-0.5,1.3-1.3c-0.5-0.6-1.1-1.2-1.7-1.7c-0.3-0.3-0.1-0.9,0.4-0.8l0,0c0,0,0.1,0,0.1,0c4.5,0.2,8.5,2.7,12.3,5.6
		c0.1,0.1,0.1,0.1,0.2,0.2c1.1,0.8,2.4-0.1,1.6-1.3l0,0l0,0c-1.3-1.5,0.5-5.1,2.4-4.4c0.4,0.2,0.9,0.3,1.3,0.5c1,0.3,2,0.7,3,1.2
		c-0.4-0.2-0.8-0.4-1.2-0.7C25.2,138-0.5,135.1-20.2,151.2C-20.2,151.2-20.2,151.2-20.2,151.2L-20.2,151.2z M-31.7,159.7
		C-31.7,159.7-31.7,159.7-31.7,159.7c0.2,0.2,0.5,0.4,0.7,0.7c0.2,0.2,0.6,0.4,0.9,0.4l0,0c0.4,0,0.8-0.2,1.1-0.5
		c2.2-2.8,4.6-5.3,7-7.5c0.1-0.1,0.2-0.2,0.3-0.3c0.3-0.3,0-0.7-0.3-0.6l0,0C-25.5,153.5-28.7,155.9-31.7,159.7
		C-31.7,159.7-31.7,159.7-31.7,159.7L-31.7,159.7z M-4.5,157.8C-4.5,157.8-4.5,157.8-4.5,157.8c0.2-0.2,0.3-0.4,0.5-0.5
		c0.2-0.2,0-0.5-0.3-0.5c-0.1,0-0.2,0.1-0.3,0.1c-0.2,0.1-0.3,0.3-0.2,0.5C-4.7,157.5-4.6,157.6-4.5,157.8
		C-4.5,157.8-4.5,157.8-4.5,157.8L-4.5,157.8z M27.1,138.2c1.8,0.2,2.2-1.3,0.4-1.1l0,0c-0.1,0-0.3,0-0.4,0
		c-5.1-0.8-10.2-1.1-15.1-1c-0.4,0-0.8,0.1-1.1,0.2c-11.3,2.9-23.9,2.9-35.8,8.4c-2.1,1-4.1,2.3-6.1,3.8c-0.5,0.4,0,1.1,0.6,0.8l0,0
		C-12,139.5,7.7,136.3,27.1,138.2z M-12.2,160.8c1,0,1.6-1.1,1-2c-0.3-0.4-0.5-0.9-0.8-1.3c-0.4,0.5-0.8,0.9-1.2,1.4
		C-13.8,159.6-13.2,160.8-12.2,160.8L-12.2,160.8z M-12,157.5c0.2-0.3,0.5-0.5,0.7-0.7c0.6-0.6-0.1-1.7-0.9-1.4l0,0
		c-0.4,0.2-0.6,0.6-0.4,1C-12.4,156.7-12.2,157.1-12,157.5z M19.8,132.8c0.5,0,1,0.1,1.6,0.2c-0.2,0-0.4-0.1-0.6-0.1
		c-0.1,0-0.1,0-0.2,0C20.3,132.8,20.1,132.8,19.8,132.8C19.8,132.8,19.8,132.8,19.8,132.8L19.8,132.8z M149.6,160.8
		c1.7,0,2-2.3,0.4-2.7c-7.9-2.2-15.9-4-23.8-4.3c7.9,0.6,15.4,3.5,22.8,6.9C149.1,160.7,149.4,160.8,149.6,160.8L149.6,160.8z
		 M69.6,147.3C69.6,147.3,69.6,147.3,69.6,147.3c-3.9-1.7-7.9-3.4-11.9-5.1c-11.6-4.2-23.9-7.9-36.3-9.2
		c11.5,2.2,23.1,6.2,34.8,10.4c3.9,1.6,7.7,3.2,11.7,4.7c3.8,1.4,7.7,2.7,11.5,4.1c9.1,3.2,18.3,6.2,27.6,8.6c0,0,0.1,0,0.1,0l0,0
		c0.4,0,0.5-0.6,0.1-0.7c-7.4-1.9-15.2-4.6-23.2-7.5C79.2,150.8,74.4,149,69.6,147.3C69.6,147.3,69.6,147.3,69.6,147.3L69.6,147.3z
		 M-21.9,147c-0.7,0.3-1.4,0.6-2.1,0.9c-1,0.6-2,1.2-2.9,1.9c1-0.6,2.1-1.1,3.1-1.7C-23.2,147.8-22.6,147.4-21.9,147z M-28.5,145.1
		c-0.8,0.6-1.5,1.2-2.3,1.9c1.8-0.9,3.6-1.7,5.5-2.4c0.3-0.1,0.7-0.3,1-0.5c11.3-7.4,23.5-3.9,34.8-10.5c0.8-0.4,1.6-0.7,2.5-0.8
		c2.3-0.1,4.6-0.1,6.9,0.1C3.4,131.3-13.2,134-28.5,145.1C-28.5,145.1-28.5,145.1-28.5,145.1L-28.5,145.1z M10.8,139.4
		c0.3,0,0.5,0.1,0.8,0c4.3,0,8.6,0.2,12.9,0.8c6.7,0.2,12.4,4,19,4.9c0.5,0.1,0.9,0.2,1.3,0.3c2.9,1.1,5.9,2.5,8.8,3.8
		c3.2,1.5,6.4,3.1,9.7,4.8c3.1,1.7,6.2,3.6,9.3,5.7c0.4,0.3,0.9,0.6,1.3,0.9c0.1,0.1,0.2,0.1,0.4,0.1l0,0c0.7,0,0.9-0.8,0.4-1.2
		c-1.8-1.2-3.6-2.4-5.5-3.6c-3.6-2.3-7.3-4.4-11.1-6.3c-3.8-1.9-7.6-3.7-11.5-5.2c-22.4-7.9-47.3-9.4-68.6,2.6
		C-11.6,142.6-0.6,137.9,10.8,139.4z M-43,156.6C-43,156.6-43,156.6-43,156.6c-1,0.7-1.9,1.4-2.9,2.1c-0.9,0.7-0.4,2,0.7,2h5.4
		c0.9,0,1.8-0.4,2.4-1.2c1-1.3,2-2.5,2.9-3.4c2.3-2.4,4.9-4.5,7.5-6.3c-2.5,1.4-5,2.9-7.4,4.6l0,0c-1,0.8-2.2-0.2-1.5-1.2
		c0.1-0.1,0.2-0.3,0.3-0.4c0.3-0.3,0.6-0.7,0.9-1c0.2-0.2,0-0.5-0.3-0.4l0,0c-0.2,0.1-0.5-0.2-0.3-0.4c1.5-1.5,3-2.9,4.5-4.2
		c-2.1,1-4.2,2.1-6.2,3.4C-39.1,151.8-41.6,153.8-43,156.6C-43,156.6-43,156.6-43,156.6L-43,156.6z M33.1,160.8c0.1,0,0.2,0,0.3-0.1
		c0.4-0.4,0.8-0.9,1.2-1.3c0.4-0.5,0.3-1.2-0.3-1.5l0,0c-0.9-0.6-2.4,0.5-2,1.6c0.1,0.4,0.3,0.8,0.4,1.1
		C32.8,160.7,33,160.8,33.1,160.8L33.1,160.8z M-28.6,85.3L-28.6,85.3c0.3,0,0.2-0.4,0-0.4h-15.5c-4.2,0.3-8.4,0.5-12.6,0.6
		c-5.9,0.2-6.1,3.8-0.2,3.3C-47.6,88.1-38.1,86.7-28.6,85.3z M-32.5,100.1C-32.5,100.1-32.5,100.1-32.5,100.1
		c4.3-0.9,8.7-1.8,13-2.7c37.9-11.4,76.8-4,115.6,1.3c4.3,0.6,8.6,1.1,13,1.6c30.8,2.6,62.3,10.1,92.6,11.2
		c3.8,0.1,21.5,0.2,25.3,0.3c14.8,0.1,29.6-1,44.2-3.7c0.5-0.1,0.9-0.6,0.9-1.1l0,0c0-0.7-0.6-1.2-1.3-1.1
		c-18.9,2.5-50.7,3.3-69.1,2.9c-3.8-0.1-7.6-0.2-11.3-0.4c-27.8-0.7-55.4-5.3-83.2-9.4c-5-1.2-10-2.3-15.1-3.3
		c-35.2-7-70.6-9.3-106.2,0c-4.7,0.7-9.3,1.4-14,2.2c-23.2,3.7-46.2,7.9-69.6,9.8C-75.5,108.3-54.1,104.5-32.5,100.1
		C-32.5,100.1-32.5,100.1-32.5,100.1L-32.5,100.1z M-97.7,120.9C-97.7,120.9-97.7,120.9-97.7,120.9c20.3,4.2,38.8-6,58.8-13.5
		c-11.4,2.5-22.8,6-34.2,10.5C-81,121-89.8,117.9-97.7,120.9C-97.7,120.9-97.7,120.9-97.7,120.9L-97.7,120.9z M193.3,89.1
		c21.5,0.6,56.6-0.6,78.1-3.1c0.3,0,0.5-0.3,0.5-0.6l0,0c0-0.3-0.3-0.6-0.6-0.6h-9c-22.7,2.4-59.6,2.2-82.4,0.7
		c-2.9-0.2-5.8-0.4-8.7-0.7h-24.1c11,1.4,21.9,3.2,33.3,3.7C184.7,88.8,189,89,193.3,89.1L193.3,89.1z M115.4,88.9
		C115.4,88.9,115.4,88.9,115.4,88.9c22.4,1.8,46.1,4.8,68.6,6.6c5,0.3,9.9,0.5,14.8,0.6c19.4,0.5,52.3-0.4,72.1-2.8
		c0.6-0.1,1-0.6,1-1.1l0,0c0-0.7-0.6-1.2-1.3-1.2c-21.6,2.3-56.2,3.3-77.4,2.6c-4.3-0.1-8.7-0.4-13-0.7c-21.8-0.7-42.5-6.8-64.5-7
		c-4-0.2-7.9-0.4-11.9-0.7c-2.5-0.1-4.9-0.3-7.4-0.5l0,0c-0.7,0-0.8,1.1-0.1,1.2c2,0.4,3.9,0.8,5.9,1.3
		C106.7,87.8,111.1,88.4,115.4,88.9C115.4,88.9,115.4,88.9,115.4,88.9L115.4,88.9z M-24.4,89C-24.4,88.9-24.4,88.9-24.4,89
		c4.9-0.6,9.8-1.2,14.7-1.9c1-0.2,2.1-0.5,3.1-0.7c0.8-0.2,0.7-1.5-0.1-1.5l0,0c-0.1,0-0.1,0-0.2,0c-1.4,0.3-2.8,0.7-4.2,1
		c-4.8,0.6-9.7,1.2-14.5,1.8c-24.1,3-48.2,5.5-72.2,4.6C-73.1,95.1-48.8,92.1-24.4,89C-24.4,89-24.4,89-24.4,89L-24.4,89z
		 M-26.5,94.8C-26.5,94.8-26.4,94.8-26.5,94.8c4.7-1,9.5-1.9,14.2-2.9C23.4,81.7,59.5,88.5,96,93c5.2,0.7,10.4,1.3,15.6,1.7
		c26.3,0.6,51.9,8.1,78.7,8.7c3.8,0.3,7.6,0.4,11.4,0.6c18.6,0.7,50.7,0,69.5-3.3c0.5-0.1,0.9-0.6,0.9-1.1l0,0
		c0-0.7-0.6-1.2-1.3-1.1c-18.9,3-50.7,3.8-69.1,3.3c-3.8-0.1-7.6-0.3-11.4-0.4c-26.8-3-54.4-4.5-80.9-8.7c-4.8-0.8-9.7-1.6-14.5-2.3
		c-19-3-38.2-5.3-57.3-5.4h-0.2c-14.8,0-29.6,1.4-44.2,5.2c-5.1,0.8-10.1,1.5-15.2,2.1c-8.1,1.1-16.2,2.2-24.2,3.2
		c-6,0.7-6.2,4.2-0.2,3.2C-39.8,97.4-33.1,96.1-26.5,94.8C-26.5,94.8-26.5,94.8-26.5,94.8L-26.5,94.8z M44.7,160.8
		c0.8,0,1.1-1.1,0.5-1.5c0,0-0.1-0.1-0.1-0.1c-0.6-0.5-1.6,0.2-1.5,1l0,0c0.1,0.4,0.4,0.6,0.8,0.6H44.7z M-34.6,105.8
		c-1.4,0.5-2.9,1-4.3,1.5c1.5-0.3,3.1-0.7,4.6-1c4.3-0.9,8.6-1.6,12.9-2.2l0,0c0.1,0,0.1-0.2,0-0.2c-0.7,0-1.4,0-2,0.1
		C-27.1,104.3-30.8,104.8-34.6,105.8z M56.9,155.8c1.6,1.4,3.1,2.9,4.6,4.7c0.1,0.1,0.3,0.2,0.5,0.2l0,0c0.6,0,0.9-0.8,0.4-1.1
		c-1.2-0.8-2.3-1.7-3.5-2.5C58.2,156.7,57.6,156.3,56.9,155.8C56.9,155.8,56.9,155.8,56.9,155.8L56.9,155.8z M-1.9,160.7
		c0.1,0,0.1-0.1,0-0.1c-0.1,0-0.1,0-0.2,0C-2,160.6-2,160.7-1.9,160.7C-1.9,160.7-1.9,160.7-1.9,160.7L-1.9,160.7z M-2.1,160.6
		c-0.6-0.6-1.2-1.2-1.8-1.9c-0.4-0.5-1.1-0.5-1.5,0l0,0c-0.4,0.5-0.1,1.2,0.5,1.4C-3.9,160.2-3,160.4-2.1,160.6
		C-2.1,160.6-2.1,160.6-2.1,160.6L-2.1,160.6z M226.9,123.4C226.9,123.4,226.9,123.4,226.9,123.4c-3.9,0-21.5-0.2-25.3-0.3
		c-34.2-2.1-67.7-9.7-102-15.4c-4.4-1.1-8.9-2.1-13.3-3.1c-29.5-6.2-59.4-8.1-89.2-3.8c-2,0.3-1.8,2.7,0.3,2.6l0,0
		c-6.1,0.9-12.2,2.3-18.2,4.2c-5.2,1.2-10.4,2.6-15.7,4.2c-20.8,6.2-41.5,14.5-62.2,16.8c20.3-0.9,39.9-7.8,59.6-14.3
		c4-1.3,7.9-2.6,11.9-3.8c8.2-3.4,16.4-5.7,24.7-7.1c12-0.5,24.1-0.9,36.2-0.8c12.8,1.3,25.6,3.9,38.4,7c4.7,1.2,9.4,2.4,14.1,3.7
		c39.8,6.2,93.2,16.8,133.5,19c4.4,0.1,8.7,0.1,13.1,0.1c12.8-0.1,25.6-1,38.3-2.9c0.5-0.1,0.9-0.6,0.9-1.1l0,0
		c0-0.7-0.6-1.2-1.3-1.1c-14.3,2.1-28.8,3.3-43.3,3.5c-5,0.1-23.9,0-28.9-0.1c-33.1-0.6-66.6-12.7-100.5-15.8
		c-4.5-1-8.8-2.1-13.1-3.1c-16.2-4-32.6-7.6-49-9.1c16.4,0.1,32.7,1.2,49.1,4.3c4.5,0.9,9,1.9,13.6,3c34.4,5.1,68.9,12.6,103.1,15.5
		c3.8,0.1,21.5,0.2,25.3,0.3c14.8,0.1,29.6-0.8,44.3-3.3c0.5-0.1,0.9-0.5,0.9-1.1l0,0c0-0.7-0.6-1.2-1.3-1.1
		C256.2,122.8,241.6,123.6,226.9,123.4C226.9,123.4,226.9,123.4,226.9,123.4L226.9,123.4z M47.2,150c3.3,1.8,6.5,3.7,9.6,5.8
		c-0.7-0.6-1.3-1.1-2-1.6C52.4,152.5,49.9,151.1,47.2,150z M122.2,153.2C122.2,153.2,122.2,153.2,122.2,153.2
		c-2.2-0.4-4.4-0.8-6.7-1.1c-1.2-0.2-2.4-0.3-3.6-0.5c1.4,0.3,2.9,0.5,4.3,0.7C118.3,152.6,120.2,152.9,122.2,153.2
		C122.2,153.2,122.2,153.2,122.2,153.2L122.2,153.2z M126.2,153.8c0,0-0.1,0-0.1,0C126.1,153.8,126.2,153.8,126.2,153.8L126.2,153.8
		z M-94.1,148.7c-1.5,0.3-3.1,0.5-4.6,0.9C-97.2,149.4-95.7,149.1-94.1,148.7z M-46.1,128.9C-46.1,128.8-46,128.8-46.1,128.9
		c1.3-0.7,2.6-1.3,3.8-1.9c3.2-1.6,6.4-3.1,9.6-4.5c-0.3,0.1-0.6,0.2-0.8,0.3C-37.7,124.4-41.9,126.4-46.1,128.9L-46.1,128.9z
		 M-75.1,130C-75.1,130-75.1,130-75.1,130c-1.6,0.3-3.3,0.6-4.9,0.9c-4.4,0.8-4.5,3.8-0.2,2.7c4.1-1,8.2-2.5,12.1-3.6
		c12.5-3.9,24.5-9.3,36.5-13.8c-0.4,0.1-0.7,0.2-1.1,0.3C-46.6,120.8-60.6,126-75.1,130C-75.1,130-75.1,130-75.1,130L-75.1,130z
		 M220.7,144.7C220.7,144.7,220.7,144.7,220.7,144.7c-38.3-4.1-91.7-14.7-129.9-20.4c-5-1.3-9.8-2.7-14.6-4.1
		c-33.7-9.9-67.8-16.4-101-3.8c-4.3,1.5-8.5,3.3-12.7,5.1c-12.8,5.6-25.6,12.1-38.5,16c-2.8,0.5-5.6,0.9-8.3,1.2
		c-4.7,0.5-4.8,2.9-0.2,1.6c1.6-0.4,3.1-0.9,4.5-1.3c14-2.8,27.7-9.3,41.3-15.2c4.5-2,9-3.9,13.6-5.6c34.1-16.1,68.4-6.9,102.5,3.7
		c4.9,1.5,9.8,3,14.9,4.2c30.8,5.2,59.4,8.3,89.9,17.3c7.7,3,29.9,4.5,38.1,3.3c0.3,0,0.6-0.1,0.8-0.1c4.1,0,8.2,0,12.3-0.1
		c12.5-0.3,25-1.3,37.5-3.2c0.5-0.1,0.9-0.5,0.9-1.1l0,0c0-0.7-0.6-1.2-1.3-1.1c-12.4,2-24.8,3-37.2,3.2
		C229.2,144.7,224.9,144.7,220.7,144.7C220.7,144.7,220.7,144.7,220.7,144.7L220.7,144.7z M-19.3,112C-19.3,112-19.3,112-19.3,112
		c-4.1,1.3-8.1,2.7-12.1,4.2l0,0c0,0,0,0,0,0c4.2-1.3,8.3-2.4,12.5-3.6c25.1-9.2,50.1-7.5,75.2-2.4C31.2,103.9,5.8,101.4-19.3,112
		C-19.3,112-19.3,112-19.3,112L-19.3,112z M-58.3,137.6c4-3.4,8.1-6.3,12.3-8.7c-16,8-31.5,16.4-48.1,19.9
		C-81.9,146.8-69.7,146.9-58.3,137.6z M-65.2,146.6C-65.2,146.6-65.2,146.6-65.2,146.6c-6.8,4.7-13.9,4.1-21,5.2
		c-4.6,0.7-3.4,4.7,1.1,3.4c16.1-4.3,31.3-15.4,46.6-24.6c1.2-0.7,2.4-1.4,3.6-2.1c-1.3,0.5-2.6,1.1-3.8,1.7
		C-47.8,134.3-56.6,139.8-65.2,146.6C-65.2,146.6-65.2,146.6-65.2,146.6L-65.2,146.6z M219.7,137.1
		C219.7,137.1,219.7,137.1,219.7,137.1c-37.3-5.6-87.8-13.1-124.8-17.7c-4.9-1-9.7-2.3-14.4-3.5c-8-2.1-16.1-4.1-24.1-5.7
		c7.6,1.9,15.2,4.1,22.7,6.4c4.7,1.4,9.4,2.9,14.2,4c24.8,4.9,49.5,6.4,75.1,14c12.8,3,38.6,4.5,51.3,4.6c4.4,0.2,8.7,0.2,13.1,0.2
		c12.8,0,25.6-0.8,38.3-2.9c0.5-0.1,0.9-0.5,0.9-1.1l0,0c0-0.7-0.6-1.2-1.3-1.1c-12.5,2.2-25.2,3-37.9,3
		C228.4,137.4,224,137.3,219.7,137.1C219.7,137.1,219.7,137.1,219.7,137.1L219.7,137.1z M232.4,157.8
		C232.4,157.8,232.4,157.8,232.4,157.8c-8.7-0.7-30.5,0.8-39.4-0.7c-38.3-10.5-74.7-18-112.9-25.8c-0.2,0-0.5-0.1-0.7-0.2
		c-4.9-1.8-9.7-3.5-14.6-5.2c-26-8.9-52.1-14.5-78.6-5.8c25.3-5.5,50.8-0.8,76,7.2c4.9,1.6,9.8,3.2,14.7,5
		c33.3,9.8,65.8,11.3,100.3,23.3c13.8,4.5,41.6,4.5,55.1,4.6c4.4,0,8.7-0.2,13.1-0.3c8.4-0.4,16.8-1.1,25.2-2.2c0.6-0.1,1-0.5,1-1.1
		l0,0c0-0.7-0.6-1.2-1.2-1.1c-8.3,0.9-16.6,1.6-24.9,1.9C241.2,157.6,236.8,157.8,232.4,157.8C232.4,157.8,232.4,157.8,232.4,157.8
		L232.4,157.8z M229.1,116.9c-4.8,0.2-23.6,0.3-28.4,0.3c-35.2-5.3-71.7-8.3-107.1-14.9c-5-1.1-10-2.2-15-3.1
		c-30-5.4-60.2-6.6-90.1-0.9c-4.9,0.7-9.7,1.5-14.5,2.3c-24,4.3-47.7,11.8-71.7,12.7c9.9,0,18.7,1.5,28.6,0
		c10.2-2.5,20.2-5.2,30-7.6c4.9-1.2,9.9-2.3,14.8-3.3c35.1-10.5,70.5-8.8,105.9-1.1c4.4,1,8.8,2,13.2,3.1
		c35.2,7.4,71.7,8.9,106.9,13.6c3.8,0.2,21.5,0.3,25.3,0.4c14.8,0.3,29.6-0.5,44.2-3.3c0.5-0.1,0.9-0.6,0.9-1.1l0,0
		c0-0.7-0.6-1.2-1.3-1.1C256.9,114.7,243,116.3,229.1,116.9L229.1,116.9z M-35,128.5C-35,128.5-35,128.5-35,128.5
		c2.6-1.1,5.2-2.1,7.8-2.9c-2.5,1.2-5,2.7-7.4,4.4c-16,10.5-32,22.8-48.9,29.2c-0.8,0.3-0.6,1.6,0.3,1.6l0,0c0.1,0,0.2,0,0.3-0.1
		c0.3-0.2,0.7-0.3,1-0.5c12.1-6.3,24.3-13.8,36.4-20.3c3.9-2.1,7.9-4.1,11.8-5.9c0.3-0.1,0.5-0.3,0.7-0.4
		c12.1-8.1,24.4-12.2,36.8-13.4c-5.7,0.1-11.4,0.5-17.1,1.4c-0.9,0.1-1.3-1.1-0.4-1.4l0,0c-4.3,1-8.7,2.2-13,3.8
		C-29.5,125.4-32.2,126.9-35,128.5C-35,128.5-35,128.5-35,128.5L-35,128.5z M3.8,120.2c14.4-0.2,28.7,1.8,42.9,5.3
		C32.4,121.3,18,118.8,3.8,120.2z M69,133.5C69,133.5,69,133.5,69,133.5c7.7,2.6,14.6,7.1,22.5,8.6c26.9,2.7,52.1,10.5,79.4,18.7
		c0.1,0,0.3,0.1,0.4,0.1l0,0c1.7,0,1.9-2.6,0.3-3c-34.9-7.5-69.5-19-104.3-26.3c-4.9-1.6-9.8-3.1-14.7-4.4c-2-0.6-4-1.1-6.1-1.6
		c2.6,0.8,5.1,1.6,7.7,2.5C59.3,129.7,64.1,131.6,69,133.5C69,133.5,69,133.5,69,133.5L69,133.5z M221.5,151.5
		c-41.1-3.4-95.5-16.9-136.5-25.8c-4.7-1.6-9.4-3.2-14.1-4.7c-32.8-10.4-66.3-15-98.8-0.6c-1.6,0.7-3.2,1.4-4.7,2.1
		c4-1.5,7.9-2.6,12-3.6c29.5-10.5,58.6-5.5,87.5,3.7c4.7,1.5,9.4,3.1,14.1,4.7c0.2,0.1,0.5,0.2,0.7,0.2
		c45.7,8.6,104.8,25.2,150.9,25.3c4.3-0.1,8.7-0.3,13.1-0.5c8.4-0.4,16.8-1,25.2-1.7c0.6,0,1-0.5,1-1.1l0,0c0-0.7-0.6-1.2-1.2-1.1
		c-12.1,1.7-24.3,2.6-36.5,2.9C229.9,151.5,225.7,151.6,221.5,151.5z M-35.7,146.5C-35.7,146.5-35.7,146.5-35.7,146.5
		c1-0.5,2-1,3-1.5c14.8-5.9,28.6-15.6,44.5-15.3c3.1-0.2,6.3-0.2,9.5,0C1.3,127.8-18.8,132-35.7,146.5
		C-35.7,146.5-35.7,146.5-35.7,146.5L-35.7,146.5z M21.3,129.7c1.9,0.2,3.8,0.4,5.6,0.7c-0.5-0.1-1-0.2-1.4-0.3
		C24.1,129.9,22.7,129.8,21.3,129.7z M42.7,134c3.1,0.9,6.2,2,9.2,3.1c0.4,0.2,0.8,0.4,1.2,0.6c1,0.4,2,0.7,3,1.1c2,0.8,4,1.7,6,2.5
		c6,2.6,12.1,5.1,18.3,7.4c4.5,1.7,9.1,3.2,13.7,4.5c4.6,1.2,9.3,2.2,14,2.7c4.1,0.7,8.3,1.4,12.5,2.1c4.2,0.7,8.3,1.5,12.5,2.5
		c0.5,0.1,1,0.2,1.4,0.3c0,0,0,0,0.1,0h1.7c0.2,0,0.2-0.3,0-0.3l0,0c-4.4-0.7-8.9-1.4-13.3-2.2c-4.4-0.8-8.9-1.6-13.4-2.5
		c-8.6-1.5-17.3-4-26.1-6.8c-4.4-1.4-8.8-2.9-13.3-4.5c-3.7-1.5-7.5-3.1-11.4-4.6c-0.7-0.3-1.4-0.6-2.1-0.9c1.7,0.6,3.5,1.2,5.2,1.8
		c5.9,1.9,11.8,3.4,17.7,4.5c4.4,1.1,8.8,2.1,13.2,3c4.4,0.9,8.8,1.8,13.2,2.6c2,0.2,3.9,0.5,5.9,0.7c-1.8-0.3-3.6-0.6-5.4-1
		c-4.6-1-9.1-2.2-13.7-3.6c-4.6-1.3-9.2-2.7-13.9-4.2c-4.5-1.9-9-3.7-13.6-5.5c-4.6-1.8-9.2-3.5-13.8-5l0,0c-4.9-1.2-5.8,2-1.2,4
		c0.3,0.1,0.5,0.2,0.8,0.3C48.4,135.7,45.6,134.8,42.7,134C42.7,134,42.7,134,42.7,134L42.7,134z M-54.2,156.6
		C-54.2,156.6-54.2,156.6-54.2,156.6c-1.8,1.3-3.5,2.6-5.3,3.8c-0.2,0.1-0.1,0.4,0.1,0.4l0,0c0,0,0.1,0,0.1,0c2.7-1.4,5.3-3,7.9-4.7
		c5.1-3.3,10.2-6.9,15.5-9.3c0,0,0,0,0,0l0,0c0,0,0-0.1,0-0.1c-1.9,1-3.8,1.9-5.7,2.9C-46,151.2-50.2,153.7-54.2,156.6
		C-54.2,156.6-54.2,156.6-54.2,156.6L-54.2,156.6z M42.7,134c-5.2-1.5-10.5-2.7-15.8-3.6C32,131.6,37.4,132.6,42.7,134z
		 M110.5,147.3c-0.5,0-0.9-0.1-1.4-0.1c2.3,0.4,4.6,0.9,6.9,1.3c3.1,0.5,6.3,1.1,9.4,1.8c11.1,2.8,22.5,6.5,33.9,10.4
		c0.1,0,0.1,0,0.2,0l0,0c0.7,0,0.9-1,0.2-1.3c-12.9-5-26.2-7.4-39.4-10.3C117,148.7,113.8,148,110.5,147.3
		C110.5,147.4,110.5,147.3,110.5,147.3L110.5,147.3z M126.1,153.8c-1.3-0.2-2.6-0.4-3.8-0.6c0.7,0.1,1.5,0.3,2.2,0.4
		c0.3,0.1,0.7,0.1,1,0.1C125.7,153.7,125.9,153.8,126.1,153.8z M-50,146C-50,146-50,146-50,146c-0.3,0.3-0.6,0.5-0.8,0.8
		c-0.4,0.4,0.1,1.1,0.6,0.8c2.6-1.5,5.1-2.9,7.7-4.4c3-1.6,6-3.1,9-4.4c3.8-1.7,7.6-3.3,11.4-4.8c-3.1,1.4-6.1,3.1-9.1,5l0,0
		c-0.5,0.3-0.2,0.9,0.4,0.7c11.6-5.2,23.2-10.6,35.3-12.4c-5.6,0.5-11,1.4-16.4,3c2.9-1,5.8-1.9,8.7-2.8c-12,1.9-23.9,5.5-35.5,11
		C-42.6,140.5-46.4,143-50,146C-50,146-50,146-50,146L-50,146z M12,123.5c-5.2,1-10.2,2.3-15.2,3.8c14.8-2.3,29.8-1.9,44.4,0.7
		c-4.1-1.3-8.3-2.6-12.4-3.8c-0.3-0.1-0.5-0.1-0.8-0.2C22.5,123.3,17.1,123.2,12,123.5z M26.8,127.7c0.3,0,0.5-0.5,0.2-0.6l0,0
		c0,0-0.1,0-0.1,0c-5.1-0.6-10.2-0.8-15.1-0.5c-2.5,0-5,0.3-7.4,0.6C11.8,126.5,19.3,126.8,26.8,127.7z M90.3,142.7
		C90.3,142.7,90.3,142.6,90.3,142.7c-4.8-1.3-9.5-2.7-14.3-4c-4.7-2-9.4-3.9-14.2-5.5c-6.7-2.2-13.6-4-20.6-5.2
		c4.7,1.5,9.3,3.1,14,4.8c3,1.3,6,2.5,9.1,3.7c6.1,2.4,12.3,4.6,18.7,6.3c4.5,1.2,9.1,2.2,13.7,2.9c4.1,0.7,8.3,1.2,12.5,1.4
		c-1.5-0.3-3-0.6-4.5-0.9C99.9,145.2,95.1,143.9,90.3,142.7C90.3,142.7,90.3,142.7,90.3,142.7L90.3,142.7z M-62,157.9
		C-62,157.9-62,157.9-62,157.9c0.1-0.1,0.2-0.3,0.3-0.4l0,0c1-1.1-0.4-2.9-1.6-2.1c-1.8,1.2-3.6,2.5-5.4,3.9l0,0
		c-0.6,0.5-0.3,1.5,0.5,1.5h7.4c0.4,0,0.8-0.2,1-0.6c0.4-0.7,0.9-1.4,1.4-2.1c0.4-0.6-0.2-1.5-0.9-1.3l0,0
		C-60.2,157.2-61.1,157.5-62,157.9C-62,157.9-62,157.9-62,157.9L-62,157.9z M-54.7,154.2L-54.7,154.2c-0.2,0.2,0,0.6,0.3,0.4
		c3-1.4,5.9-2.9,8.7-4.8c0.1,0,0.1-0.1,0.1-0.1c2.2-2,4.3-3.8,6.5-5.5c0.4-0.3,0-1.1-0.5-0.9l0,0c0,0-0.1,0-0.1,0.1
		C-43.6,146.7-50,150.2-54.7,154.2z"/>
</g>
</svg>
