<svg width="209" height="209" viewBox="0 0 209 209" fill="none" xmlns="http://www.w3.org/2000/svg">
<mask id="mask0_336_40" style="mask-type:luminance" maskUnits="userSpaceOnUse" x="2" y="14" width="118" height="115">
<path d="M87.2075 15.4995L3.61145 95.5424C1.6169 97.4522 1.54818 100.617 3.45795 102.612L26.9817 127.18C28.8915 129.174 32.0566 129.243 34.0511 127.333L117.647 47.2904C119.642 45.3806 119.71 42.2155 117.801 40.221L94.2769 15.653C92.3672 13.6585 89.2021 13.5897 87.2075 15.4995Z" fill="white"/>
</mask>
<g mask="url(#mask0_336_40)">
<path d="M243.321 -57.8801L197.735 -105.489C195.826 -107.484 192.66 -107.553 190.666 -105.643L-69.9315 143.878C-71.9261 145.788 -71.9948 148.953 -70.085 150.948L-24.4994 198.557C-22.5896 200.551 -19.4245 200.62 -17.43 198.71L243.167 -50.8107C245.162 -52.7205 245.231 -55.8856 243.321 -57.8801Z" fill="#19424B" fill-opacity="0.7"/>
</g>
<mask id="mask1_336_40" style="mask-type:luminance" maskUnits="userSpaceOnUse" x="61" y="87" width="126" height="45">
<path d="M66.0008 131.057L181.738 131.057C184.5 131.057 186.738 128.819 186.738 126.057L186.738 92.0434C186.738 89.2819 184.5 87.0434 181.738 87.0434L66.0008 87.0434C63.2393 87.0434 61.0008 89.2819 61.0008 92.0434L61.0008 126.057C61.0008 128.819 63.2393 131.057 66.0008 131.057Z" fill="white"/>
</mask>
<g mask="url(#mask1_336_40)">
<path d="M-97.5078 76.0918L-97.5078 142.006C-97.5078 144.768 -95.2692 147.006 -92.5078 147.006L268.285 147.006C271.047 147.006 273.285 144.768 273.285 142.006L273.285 76.0918C273.285 73.3304 271.047 71.0918 268.285 71.0918L-92.5078 71.0918C-95.2692 71.0918 -97.5078 73.3304 -97.5078 76.0918Z" fill="#45C1BC" fill-opacity="0.45"/>
<path d="M56.8382 133.475C60.0014 134.87 63.2111 136.102 66.5139 136.939C70.654 138.45 74.7941 140.055 78.9109 141.706C83.0087 143.363 87.0836 145.088 91.1584 146.927C91.2416 146.964 91.3318 146.984 91.423 146.984V146.984C92.105 146.984 92.3164 146.063 91.702 145.767C88.3208 144.138 84.9216 142.536 81.4926 141.008C78.3294 139.59 75.1429 138.241 71.9565 136.939C67.9094 135.149 63.7926 133.452 59.6293 131.94C55.4659 130.406 51.2561 129.034 46.9997 127.895V127.895C46.3781 127.73 46.1069 128.51 46.7004 128.757C46.9475 128.86 47.1946 128.96 47.4416 129.057C50.5583 130.522 53.675 132.08 56.8382 133.475ZM-18.9393 137.433C-18.9393 137.442 -18.9308 137.448 -18.9229 137.445C-17.1368 136.797 -15.3563 136.289 -13.5786 135.865C-12.707 135.657 -12.2905 136.884 -13.078 137.311V137.311C-16.8333 139.158 -20.5 141.217 -24.0008 143.55C-24.8648 144.126 -25.1179 145.284 -24.5418 146.148C-24.4572 146.275 -24.3722 146.4 -24.2867 146.524C-24.0865 146.814 -23.754 146.984 -23.4011 146.984L-21.4955 146.984C-21.0827 146.984 -20.9132 146.477 -21.2428 146.228V146.228C-21.4361 146.083 -21.4668 145.806 -21.313 145.619C-16.8618 140.213 -11.463 136.53 -5.73 134.41C-5.46617 134.312 -5.19353 134.241 -4.91648 134.192C-2.02285 133.683 0.851692 133.162 3.74707 132.369C3.77205 132.362 3.79774 132.358 3.82357 132.356V132.356C4.29234 132.318 4.41942 132.982 3.98583 133.164C2.02663 133.986 0.103159 134.998 -1.74676 136.162C-2.76024 136.8 -2.04249 138.074 -0.906368 137.696C-0.683173 137.621 -0.459835 137.549 -0.23629 137.478C0.924393 137.112 1.76095 139.37 0.78707 140.101V140.101C-0.0229505 140.708 0.354249 142.041 1.33583 141.793C4.53334 140.986 7.72839 140.341 10.9484 140.171C18.5946 140.572 25.0015 143.088 25.2957 145.589C25.3189 145.786 25.1958 145.947 25.0079 146.01V146.01C24.4788 146.186 24.594 146.96 25.1517 146.96L25.5546 146.96C25.9856 146.96 26.2584 146.499 26.042 146.127C22.5782 140.161 17.9861 137.05 13.1813 136.428C16.1041 136.56 18.9637 136.883 21.5995 137.375C21.862 137.424 22.1311 137.422 22.3956 137.385C24.2826 137.122 25.9749 137.568 27.5778 138.372C28.5345 138.852 29.5306 137.902 28.8313 137.091C28.286 136.459 27.7189 135.879 27.132 135.348C26.7959 135.044 27.0753 134.434 27.5172 134.536V134.536C27.543 134.541 27.5686 134.545 27.595 134.546C32.0909 134.745 36.0561 137.227 39.9057 140.194C39.98 140.251 40.0541 140.308 40.1281 140.366C41.2208 141.212 42.5148 140.217 41.7664 139.055V139.055V139.055C40.4902 137.544 42.2807 133.958 44.1438 134.621C44.5811 134.776 45.0212 134.937 45.4646 135.102C46.4647 135.451 47.4881 135.846 48.465 136.265C48.0696 136.056 47.6974 135.823 47.302 135.614C26.3939 124.245 0.718418 121.338 -18.9348 137.424C-18.9376 137.426 -18.9393 137.43 -18.9393 137.433V137.433ZM-30.4563 145.961C-30.4538 145.961 -30.4514 145.961 -30.4497 145.963C-30.2284 146.184 -29.9979 146.405 -29.7699 146.621C-29.5218 146.855 -29.1928 146.984 -28.8516 146.984V146.984C-28.4379 146.984 -28.0477 146.793 -27.7895 146.47C-25.5399 143.655 -23.188 141.134 -20.7535 138.985C-20.6547 138.898 -20.5566 138.811 -20.4589 138.725C-20.17 138.471 -20.4454 137.998 -20.8 138.148V138.148C-24.2609 139.75 -27.513 142.164 -30.4637 145.945C-30.4686 145.951 -30.4642 145.961 -30.4563 145.961V145.961ZM-3.28605 143.987C-3.28605 143.994 -3.2772 143.997 -3.27263 143.992C-3.11869 143.809 -2.96469 143.63 -2.80901 143.454C-2.62899 143.25 -2.8309 142.919 -3.09361 142.99C-3.18935 143.015 -3.28545 143.041 -3.38205 143.067C-3.61034 143.129 -3.70895 143.395 -3.57201 143.588C-3.47717 143.721 -3.38234 143.852 -3.2875 143.982C-3.28656 143.983 -3.28605 143.985 -3.28605 143.987V143.987ZM28.3394 124.456C30.1705 124.637 30.5859 123.174 28.7552 123.36V123.36C28.6148 123.374 28.4614 123.372 28.3221 123.35C23.238 122.545 18.1553 122.202 13.1738 122.301C12.7923 122.309 12.4139 122.364 12.0439 122.457C0.697504 125.315 -11.9004 125.404 -23.8004 130.894C-25.9063 131.907 -27.9475 133.157 -29.8948 134.71C-30.3748 135.093 -29.8966 135.794 -29.336 135.544V135.544C-10.7942 125.724 8.92625 122.535 28.3394 124.456ZM-10.9976 146.984C-10.005 146.984 -9.42757 145.854 -9.95669 145.014C-10.2225 144.592 -10.4808 144.157 -10.7289 143.705C-11.1424 144.158 -11.5393 144.615 -11.9231 145.076C-12.5633 145.845 -11.9984 146.984 -10.9976 146.984V146.984ZM-10.7289 143.705C-10.4993 143.453 -10.2663 143.204 -10.0299 142.957C-9.45069 142.352 -10.1338 141.245 -10.9206 141.532V141.532C-11.3427 141.686 -11.5523 142.178 -11.345 142.576C-11.1447 142.961 -10.9411 143.337 -10.7289 143.705ZM21.0195 119.036C21.5312 119.082 22.0661 119.129 22.5778 119.199C22.3715 119.157 22.1835 119.116 21.9814 119.075C21.9295 119.064 21.8767 119.059 21.8237 119.059C21.5591 119.059 21.3096 119.059 21.0428 119.059C21.0299 119.059 21.0195 119.049 21.0195 119.036V119.036ZM150.802 146.984C152.474 146.984 152.816 144.697 151.206 144.243C143.268 142.004 135.343 140.288 127.429 139.985C135.325 140.559 142.836 143.442 150.185 146.847C150.378 146.937 150.589 146.984 150.802 146.984V146.984ZM70.8293 133.475C70.821 133.475 70.8129 133.473 70.8053 133.47C66.9015 131.751 62.9281 130.055 58.9082 128.406C47.3486 124.174 35.0214 120.501 22.5778 119.175C34.0677 121.338 45.6739 125.383 57.3964 129.569C61.2574 131.15 65.1184 132.754 69.0491 134.312C72.8868 135.684 76.7245 137.055 80.5623 138.381C89.7122 141.561 98.8853 144.579 108.197 146.973C108.226 146.98 108.255 146.984 108.285 146.984V146.984C108.702 146.984 108.778 146.363 108.374 146.258C100.924 144.318 93.1459 141.674 85.1675 138.776C80.4492 137.057 75.6613 135.268 70.8501 133.478C70.8435 133.476 70.8364 133.475 70.8293 133.475V133.475ZM-20.6837 133.265C-21.3815 133.568 -22.1025 133.87 -22.8003 134.172C-23.8004 134.754 -24.7773 135.381 -25.7309 136.056C-24.7075 135.474 -23.6608 134.916 -22.6142 134.382C-21.9862 133.986 -21.3349 133.614 -20.6837 133.265ZM-27.266 131.312C-28.0335 131.894 -28.7778 132.521 -29.5453 133.172C-27.7155 132.279 -25.9052 131.483 -24.0787 130.749C-23.7395 130.612 -23.4127 130.438 -23.1061 130.239C-11.7812 122.879 0.40937 126.317 11.665 119.742C12.4251 119.298 13.2719 119.008 14.1516 118.978C16.4157 118.9 18.7095 118.919 21.0195 119.036C4.60832 117.549 -11.9655 120.265 -27.2624 131.316C-27.265 131.318 -27.2682 131.315 -27.266 131.312V131.312ZM12.0255 125.61C12.2836 125.643 12.5444 125.66 12.8045 125.657C17.0742 125.61 21.4076 125.89 25.7411 126.476C32.4146 126.656 38.1546 130.525 44.7019 131.332C45.1606 131.389 45.6141 131.488 46.0447 131.657C48.9885 132.806 51.9163 134.111 54.8845 135.498C58.0709 136.986 61.2806 138.59 64.5834 140.264C67.7234 141.961 70.8168 143.845 73.887 145.937C74.3175 146.245 74.7662 146.552 75.2011 146.86C75.3147 146.94 75.4504 146.984 75.5896 146.984V146.984C76.2398 146.984 76.5036 146.153 75.9686 145.784C74.1707 144.541 72.3493 143.346 70.5144 142.217C66.886 139.939 63.1879 137.799 59.3967 135.87C55.6287 133.94 51.791 132.173 47.8835 130.661C25.4387 122.803 0.621446 121.268 -20.6837 133.265C-10.3346 128.805 0.6284 124.141 12.0255 125.61ZM-41.7484 142.845C-41.7436 142.845 -41.7416 142.851 -41.7455 142.854C-42.711 143.542 -43.664 144.248 -44.6078 144.967C-45.4692 145.624 -44.9986 146.984 -43.9157 146.984L-38.5109 146.984C-37.5661 146.984 -36.678 146.54 -36.0985 145.794C-35.078 144.48 -34.0753 143.253 -33.197 142.357C-30.8478 139.962 -28.3359 137.869 -25.7076 136.056C-28.2196 137.451 -30.685 138.985 -33.1272 140.659V140.659C-34.1042 141.424 -35.3228 140.468 -34.6412 139.431C-34.5563 139.302 -34.4703 139.177 -34.3832 139.055C-34.0956 138.723 -33.8079 138.402 -33.5203 138.089C-33.3484 137.902 -33.569 137.611 -33.7918 137.733V137.733C-34.0192 137.858 -34.2537 137.559 -34.0719 137.374C-32.586 135.862 -31.0731 134.458 -29.5453 133.172C-31.6386 134.172 -33.7087 135.312 -35.7787 136.567C-37.847 138.031 -40.3797 140.051 -41.7528 142.838C-41.7544 142.841 -41.752 142.845 -41.7484 142.845V142.845ZM34.3599 146.984C34.4703 146.984 34.5759 146.938 34.6511 146.857C35.057 146.421 35.4484 145.976 35.8295 145.52C36.2319 145.038 36.0975 144.323 35.5684 143.985V143.985C34.6312 143.386 33.206 144.515 33.584 145.561C33.7189 145.934 33.8501 146.316 33.9778 146.705C34.0319 146.871 34.1858 146.984 34.3599 146.984V146.984ZM-27.4055 71.4878V71.4878C-27.1485 71.4483 -27.1775 71.0692 -27.4375 71.0692L-42.9425 71.0692C-47.1409 71.321 -51.3406 71.5315 -55.5409 71.7062C-61.4381 71.9515 -61.6733 75.4633 -55.7887 75.0071C-46.3344 74.2741 -36.8622 72.9063 -27.4055 71.4878ZM-31.2897 86.3335C-31.2897 86.3267 -31.285 86.3209 -31.2783 86.3195C-26.956 85.4367 -22.6336 84.5308 -18.288 83.6248C19.5775 72.2318 58.5128 79.6488 97.3319 84.8803C101.635 85.4616 105.961 86.0196 110.287 86.4846C141.082 89.0655 172.621 96.622 202.858 97.6451C206.649 97.7846 224.372 97.8776 228.163 97.9008C242.968 97.9691 257.728 96.9449 272.4 94.1512C272.942 94.0481 273.332 93.5738 273.332 93.0228V93.0228C273.332 92.3212 272.718 91.7816 272.022 91.8753C253.11 94.4245 221.334 95.1476 202.881 94.7387C199.09 94.6457 195.322 94.5062 191.554 94.3434C163.783 93.5994 136.174 89.0887 108.357 84.9268C103.333 83.7643 98.3088 82.6482 93.2616 81.6484C58.0477 74.6266 22.6476 72.3248 -12.9152 81.6717C-17.5903 82.3924 -22.242 83.1132 -26.8706 83.834C-50.0364 87.4844 -73.0627 91.7161 -96.4844 93.5994C-74.2993 94.5525 -52.9048 90.7641 -31.3012 86.3475C-31.2945 86.3461 -31.2897 86.3403 -31.2897 86.3335V86.3335ZM-96.4868 107.157C-96.4853 107.156 -96.4832 107.155 -96.4811 107.155C-76.2239 111.385 -57.6875 101.132 -37.6627 93.6226C-49.0595 96.157 -60.4564 99.6679 -71.8533 104.155C-79.7288 107.174 -88.579 104.162 -96.48 107.167C-96.4864 107.17 -96.4916 107.162 -96.4868 107.157V107.157ZM194.577 75.3707C216.04 75.9936 251.128 74.808 272.644 72.2229C272.935 72.188 273.146 71.9419 273.146 71.649V71.649C273.146 71.3288 272.886 71.0692 272.566 71.0692L263.563 71.0692C240.909 73.5106 203.951 73.3014 181.157 71.7435C178.25 71.5575 175.342 71.3018 172.458 71.0692L148.362 71.0692C159.387 72.4643 170.295 74.3011 181.622 74.7894C185.948 75.0684 190.274 75.2544 194.601 75.3707L194.577 75.3707ZM116.672 75.1495C116.667 75.1542 116.67 75.1623 116.677 75.1628C139.117 76.9765 162.765 79.9981 185.32 81.7879C190.274 82.0669 195.205 82.2762 200.159 82.3925C219.6 82.8726 252.443 82.0038 272.242 79.5651C272.818 79.4942 273.239 79.0053 273.239 78.4252V78.4252C273.239 77.7382 272.651 77.2027 271.968 77.2746C250.349 79.5503 215.811 80.5649 194.601 79.8581C190.274 79.7186 185.948 79.4861 181.622 79.2071C159.829 78.463 139.128 72.4411 117.102 72.1853C113.148 71.9528 109.171 71.7435 105.217 71.5343C102.751 71.3948 100.286 71.232 97.8203 71.046V71.046C97.1355 71.046 97.0366 72.0993 97.7076 72.2361C99.666 72.6353 101.625 73.0593 103.589 73.5106C107.956 74.0679 112.3 74.6021 116.667 75.1362C116.674 75.137 116.677 75.1449 116.672 75.1495V75.1495ZM-23.1491 75.173C-23.1491 75.1664 -23.1442 75.1608 -23.1376 75.16C-18.2571 74.5327 -13.3533 73.9286 -8.42626 73.2548C-7.39128 73.0227 -6.3544 72.7981 -5.31671 72.5806C-4.4725 72.4036 -4.59952 71.0692 -5.46208 71.0692V71.0692C-5.51529 71.0692 -5.56833 71.0752 -5.62019 71.0872C-7.01296 71.4076 -8.40532 71.7503 -9.77527 72.1155C-14.6131 72.6968 -19.451 73.3013 -24.2888 73.9059C-48.4316 76.8587 -72.458 79.4396 -96.4844 78.5095C-71.8339 81.3457 -47.5786 78.278 -23.1607 75.1861C-23.1541 75.1853 -23.1491 75.1797 -23.1491 75.173V75.173ZM-25.2308 80.9858C-25.2236 80.993 -25.2131 80.9961 -25.2031 80.9941C-20.4869 80.0186 -15.7707 79.0432 -11.0313 78.0445C24.6014 67.8839 60.7457 74.6964 97.1924 79.2071C102.402 79.8581 107.612 80.4626 112.822 80.9509C139.082 81.5089 164.713 89.0422 191.484 89.6468C195.252 89.9025 199.043 90.0885 202.834 90.228C221.44 90.9372 253.51 90.2508 272.349 86.8844C272.884 86.7887 273.262 86.3231 273.262 85.7793V85.7793C273.262 85.0786 272.639 84.5458 271.947 84.6566C253.055 87.6829 221.285 88.4259 202.834 87.9262C199.066 87.8332 195.275 87.6704 191.484 87.4844C164.713 84.5315 137.105 83.0202 110.589 78.7653C105.775 77.9748 100.937 77.1842 96.0992 76.4402C77.0734 73.4873 57.8848 71.0925 38.7893 71.0692L38.58 71.0692C23.7408 71.0692 8.94813 72.5108 -5.65846 76.2542C-10.7522 77.0448 -15.7993 77.719 -20.8232 78.37C-28.8938 79.4363 -36.974 80.548 -45.0606 81.5349C-51.0678 82.268 -51.2337 85.7027 -45.2587 84.7423C-38.5818 83.6691 -31.9174 82.3429 -25.2585 80.9775C-25.2485 80.9754 -25.2381 80.9785 -25.2308 80.9858V80.9858ZM45.9392 146.984C46.734 146.984 47.0666 145.933 46.4327 145.454C46.3978 145.428 46.363 145.401 46.3281 145.375C45.6949 144.894 44.6914 145.578 44.8666 146.354V146.354C44.9481 146.715 45.266 146.984 45.6357 146.984L45.9392 146.984ZM-33.4063 92.0648C-34.8251 92.5531 -36.2672 93.0879 -37.6627 93.5994C-36.1276 93.2506 -34.5693 92.9251 -33.0342 92.6229C-28.7313 91.7626 -24.4051 91.0185 -20.1022 90.4373V90.4373C-19.9908 90.4094 -20.0111 90.2328 -20.1259 90.2365C-20.8044 90.2583 -21.4767 90.2828 -22.149 90.2978C-25.8704 90.5303 -29.6151 91.065 -33.4063 92.0648ZM58.0942 142.054C59.6974 143.412 61.2368 144.962 62.6918 146.724C62.8149 146.873 62.9978 146.96 63.1911 146.96V146.96C63.8084 146.96 64.0679 146.178 63.5695 145.813C62.4094 144.966 61.2458 144.145 60.0712 143.356C59.4265 142.919 58.7817 142.482 58.137 142.067C58.1242 142.059 58.1094 142.054 58.0942 142.054V142.054ZM-0.64244 146.96C-0.580219 146.96 -0.57225 146.867 -0.633571 146.856C-0.702664 146.845 -0.772501 146.833 -0.843858 146.821C-0.778396 146.864 -0.733402 146.908 -0.670471 146.952C-0.662249 146.957 -0.652444 146.96 -0.64244 146.96V146.96ZM-0.843858 146.821C-1.44971 146.264 -2.0325 145.639 -2.60035 144.928C-2.9739 144.46 -3.68261 144.418 -4.05569 144.886V144.886C-4.45175 145.383 -4.19788 146.112 -3.57913 146.256C-2.6969 146.463 -1.79353 146.645 -0.889977 146.816C-0.874773 146.819 -0.859333 146.821 -0.843858 146.821V146.821ZM228.117 109.631C228.127 109.646 228.12 109.666 228.102 109.665C224.254 109.618 206.613 109.479 202.858 109.294C168.667 107.155 135.151 99.5981 100.821 93.8784C96.4016 92.7624 91.9591 91.7393 87.5167 90.7861C58.0593 84.5733 28.1449 82.6836 -1.6659 86.9754C-3.69628 87.2677 -3.42852 89.635 -1.37882 89.5537V89.5537C-7.44939 90.4838 -13.5432 91.8556 -19.6138 93.7389C-24.847 94.9014 -30.057 96.343 -35.267 97.9008C-56.0837 104.132 -76.7841 112.433 -97.4846 114.688C-77.1563 113.758 -57.5956 106.922 -37.8488 100.435C-33.8948 99.1331 -29.9407 97.8543 -25.9635 96.6453C-17.7763 93.2041 -9.54269 90.9255 -1.28578 89.5537C10.7623 89.0887 22.857 88.6934 34.9516 88.7167C47.7672 89.9722 60.5829 92.5996 73.3287 95.7618C78.0503 96.9243 82.7718 98.1566 87.4701 99.4121C127.266 105.62 180.668 116.176 220.93 118.385C225.302 118.501 229.675 118.524 234.048 118.478C246.848 118.342 259.626 117.497 272.317 115.577C272.861 115.495 273.262 115.026 273.262 114.476V114.476C273.262 113.793 272.653 113.27 271.977 113.37C257.628 115.5 243.15 116.625 228.628 116.874C223.651 116.967 204.718 116.92 199.764 116.757C166.69 116.153 133.174 104.086 99.2159 100.993C94.7502 100.04 90.424 98.9239 86.0746 97.8543C69.8632 93.8319 53.5122 90.2745 37.0449 88.7167C53.3959 88.8562 69.7701 89.9025 86.1211 92.9716C90.6334 93.8319 95.1688 94.8317 99.6811 95.9942C134.127 101.063 168.62 108.62 202.811 111.456C206.579 111.596 224.325 111.689 228.093 111.712C242.906 111.826 257.674 110.958 272.354 108.429C272.879 108.339 273.262 107.882 273.262 107.349V107.349C273.262 106.658 272.632 106.138 271.952 106.265C257.439 108.971 242.798 109.82 228.135 109.597C228.118 109.596 228.107 109.616 228.117 109.631V109.631ZM48.465 136.265C51.7677 138.055 54.9775 140.008 58.0942 142.054C57.4196 141.496 56.7452 140.962 56.0474 140.45C53.6285 138.706 51.0932 137.358 48.465 136.265ZM123.429 139.38C123.431 139.38 123.432 139.377 123.429 139.376C121.227 138.959 119.002 138.589 116.776 138.241C115.59 138.055 114.404 137.916 113.218 137.753C114.66 138.009 116.102 138.241 117.521 138.474C119.498 138.776 121.451 139.078 123.428 139.38C123.428 139.38 123.428 139.38 123.429 139.38V139.38ZM127.429 139.985C127.429 139.985 127.336 139.985 127.289 139.985C127.336 139.985 127.382 139.985 127.406 139.985L127.429 139.985ZM-92.9026 134.963C-94.4376 135.219 -95.9727 135.474 -97.5078 135.823C-95.9727 135.591 -94.4376 135.288 -92.9026 134.963ZM-44.8264 115.083C-44.8264 115.069 -44.8184 115.056 -44.8057 115.049C-43.5334 114.402 -42.261 113.778 -40.9887 113.153C-37.8255 111.596 -34.6158 110.084 -31.3828 108.643C-31.6619 108.736 -31.941 108.829 -32.1969 108.945C-36.43 110.573 -40.6398 112.595 -44.8264 115.083V115.083ZM-73.8303 116.234C-73.8303 116.228 -73.8355 116.224 -73.8412 116.225C-75.4754 116.538 -77.1096 116.851 -78.7438 117.151C-83.1061 117.951 -83.2901 120.936 -78.9853 119.87C-74.8919 118.856 -70.8305 117.42 -66.9224 116.223C-54.4556 112.293 -42.4075 106.922 -30.4292 102.458C-30.8013 102.574 -31.1502 102.667 -31.5223 102.784C-45.4041 107.037 -59.4022 112.267 -73.8186 116.243C-73.8245 116.244 -73.8303 116.24 -73.8303 116.234V116.234ZM221.907 130.882C221.907 130.888 221.901 130.893 221.895 130.893C183.588 126.776 130.216 116.222 92.0056 110.503C87.005 109.247 82.1904 107.782 77.3758 106.364C43.6504 96.5058 9.55286 89.949 -23.5911 102.574C-27.8474 104.086 -32.0806 105.853 -36.3369 107.713C-49.1061 113.293 -61.8985 119.803 -74.8304 123.756C-77.6791 124.302 -80.4002 124.651 -83.086 124.945C-87.8154 125.462 -87.9024 127.862 -83.3282 126.554C-81.7725 126.109 -80.2478 125.642 -78.7844 125.267C-64.736 122.431 -51.1063 116.013 -37.5231 110.108C-32.9876 108.154 -28.4754 106.248 -23.9399 104.551C10.1111 88.4145 44.4645 97.6218 78.562 108.294C83.4231 109.805 88.3307 111.317 93.4942 112.479C124.289 117.711 152.874 120.733 183.413 129.778C191.162 132.748 213.334 134.259 221.469 133.119C221.752 133.079 222.027 133.058 222.312 133.061C226.404 133.1 230.517 133.053 234.629 132.963C247.09 132.623 259.596 131.64 272.168 129.8C272.703 129.721 273.099 129.261 273.099 128.72V128.72C273.099 128.044 272.493 127.531 271.826 127.638C259.391 129.637 247 130.623 234.652 130.871C230.4 130.964 226.147 130.964 221.918 130.871C221.912 130.871 221.907 130.876 221.907 130.882V130.882ZM-18.0787 98.1909C-18.0787 98.1854 -18.084 98.1815 -18.0892 98.1832C-22.1327 99.4611 -26.1298 100.855 -30.1501 102.342V102.342C-30.1798 102.357 -30.1741 102.373 -30.1423 102.363C-25.9893 101.097 -21.8352 99.9192 -17.6368 98.8076C7.4363 89.6468 32.5094 91.2976 57.6057 96.3895C32.3969 90.1592 7.07175 87.6247 -18.0674 98.1983C-18.0727 98.2006 -18.0787 98.1967 -18.0787 98.1909V98.1909ZM-57.0839 123.779C-53.0368 120.408 -48.9433 117.525 -44.8264 115.083C-60.8053 123.105 -76.2957 131.475 -92.9026 134.986C-80.6451 133.01 -68.4807 133.149 -57.0839 123.779ZM-63.9918 132.835C-63.9918 132.83 -63.9972 132.828 -64.0011 132.83C-70.767 137.528 -77.9223 136.947 -84.9807 138.049C-89.5995 138.77 -88.3962 142.704 -83.8823 141.488C-67.7722 137.149 -52.6143 126.137 -37.3138 116.85C-36.1276 116.13 -34.9414 115.432 -33.7552 114.734C-35.0344 115.269 -36.3137 115.827 -37.5929 116.432C-46.5443 120.569 -55.3562 126.054 -63.9823 132.84C-63.9861 132.843 -63.9918 132.84 -63.9918 132.835V132.835ZM220.896 123.302C220.9 123.297 220.898 123.29 220.891 123.289C183.562 117.732 133.146 110.2 96.1457 105.62C91.2148 104.574 86.4933 103.318 81.7484 102.086C73.7009 99.9934 65.6533 97.9938 57.6057 96.3663C65.1881 98.2496 72.7938 100.458 80.3529 102.737C85.028 104.155 89.703 105.597 94.5176 106.783C119.358 111.689 144.012 113.2 169.621 120.757C182.436 123.779 208.23 125.29 220.906 125.407C225.279 125.569 229.652 125.639 234.001 125.639C246.812 125.616 259.579 124.818 272.257 122.766C272.784 122.681 273.169 122.226 273.169 121.693V121.693C273.169 121.012 272.552 120.498 271.881 120.615C259.346 122.812 246.685 123.616 234.001 123.593C229.634 123.593 225.268 123.5 220.901 123.315C220.894 123.315 220.891 123.306 220.896 123.302V123.302ZM233.665 144.042C233.669 144.037 233.667 144.03 233.661 144.03C224.975 143.381 203.155 144.89 194.275 143.38C155.946 132.856 119.583 125.337 81.3352 117.596C81.0996 117.549 80.8673 117.484 80.6411 117.403C75.7558 115.652 70.9139 113.882 66.072 112.223C40.0685 103.318 13.9488 97.6916 -12.5431 106.434C12.7858 100.9 38.2776 105.62 63.4437 113.595C68.3513 115.153 73.259 116.827 78.1666 118.571C111.473 128.336 144.013 129.848 178.505 141.915C192.298 146.449 220.069 146.449 233.652 146.495C238.002 146.449 242.351 146.333 246.724 146.147C255.124 145.766 263.524 145.083 271.944 143.974C272.499 143.901 272.913 143.427 272.913 142.867V142.867C272.913 142.199 272.331 141.679 271.667 141.753C263.358 142.676 255.03 143.304 246.724 143.659C242.38 143.844 238.013 143.984 233.67 144.054C233.663 144.054 233.66 144.046 233.665 144.042V144.042ZM230.303 103.132C225.488 103.342 206.718 103.458 201.881 103.411C166.69 98.1333 130.22 95.1107 94.82 88.5307C89.8426 87.3914 84.8651 86.3684 79.8645 85.4616C49.907 80.0209 19.6937 78.9048 -10.2637 84.578C-15.1713 85.3221 -20.0092 86.0661 -24.8005 86.9264C-48.827 91.2511 -72.4812 98.6913 -96.5077 99.6214C-86.6459 99.6214 -77.7843 101.133 -67.9225 99.6214C-57.7351 97.1103 -47.757 94.4365 -37.8953 92.0184C-32.9644 90.8093 -28.0335 89.67 -23.1259 88.6702C11.995 78.1375 47.4184 79.8814 82.7253 87.5774C87.1445 88.5307 91.5637 89.577 95.9596 90.7163C131.174 98.1333 167.667 99.6446 202.811 104.272C206.602 104.481 224.325 104.62 228.117 104.713C242.924 105.032 257.687 104.258 272.361 101.364C272.899 101.258 273.285 100.785 273.285 100.237V100.237C273.285 99.541 272.674 99.0036 271.983 99.093C258.135 100.886 244.262 102.501 230.28 103.132L230.303 103.132ZM-33.7342 114.739C-33.7327 114.736 -33.7303 114.734 -33.7272 114.732C-31.1471 113.641 -28.5669 112.688 -25.9635 111.805C-28.4522 113.037 -30.9409 114.502 -33.4063 116.246C-49.399 126.74 -65.3916 139.022 -82.3057 145.471C-83.0837 145.767 -82.8731 147.03 -82.0404 147.03V147.03C-81.9334 147.03 -81.8275 147.007 -81.7309 146.96C-81.3896 146.797 -81.0639 146.629 -80.7382 146.426C-68.6203 140.101 -56.4791 132.661 -44.3147 126.174C-40.3935 124.079 -36.4503 122.071 -32.5065 120.256C-32.2541 120.14 -32.0105 120.003 -31.7797 119.848C-19.6355 111.705 -7.35512 107.678 4.97086 106.48C-0.718107 106.575 -6.41782 107.024 -12.1356 107.893C-13.0711 108.035 -13.4424 106.751 -12.5431 106.457V106.457C-16.8925 107.41 -21.2187 108.643 -25.5448 110.247C-28.2758 111.635 -31.0067 113.162 -33.7148 114.757C-33.7267 114.764 -33.7404 114.751 -33.7342 114.739V114.739ZM4.99411 106.457C19.3914 106.225 33.7189 108.271 47.9068 111.758C33.6026 107.48 19.2518 105.062 4.99411 106.457ZM70.2473 119.721C70.2542 119.715 70.2644 119.712 70.2737 119.715C77.9895 122.274 84.8703 126.803 92.7499 128.29C119.621 131.027 144.894 138.763 172.197 146.949C172.324 146.987 172.456 147.007 172.588 147.007V147.007C174.249 147.007 174.506 144.369 172.882 144.018C137.992 136.475 103.415 124.993 68.6072 117.757C63.7461 116.153 58.8384 114.641 53.9541 113.316C51.9306 112.758 49.907 112.247 47.8835 111.758C50.4652 112.526 53.0237 113.363 55.6055 114.246C60.4845 115.918 65.3636 117.776 70.2195 119.727C70.2291 119.731 70.24 119.729 70.2473 119.721V119.721ZM222.767 137.706C181.622 134.335 127.266 120.756 86.2374 111.875C81.4926 110.27 76.8176 108.666 72.1425 107.178C39.301 96.7615 5.87796 92.2044 -26.638 106.55C-28.2196 107.224 -29.8012 107.945 -31.3595 108.643C-27.4055 107.178 -23.4282 106.039 -19.4045 105.085C10.0646 94.5759 39.2312 99.5981 68.0722 108.782C72.7666 110.278 77.4388 111.863 82.132 113.515C82.3722 113.599 82.6151 113.665 82.8652 113.712C128.588 122.358 187.678 138.869 233.722 139.032C238.071 138.915 242.444 138.753 246.794 138.543C255.189 138.141 263.606 137.565 272.044 136.859C272.601 136.813 273.03 136.347 273.03 135.788V135.788C273.03 135.132 272.448 134.629 271.799 134.72C259.691 136.421 247.52 137.344 235.327 137.637C231.14 137.73 226.93 137.776 222.767 137.706ZM-34.4762 132.759C-34.4762 132.756 -34.4745 132.753 -34.4717 132.752C-33.4731 132.241 -32.4744 131.73 -31.4758 131.243C-16.6599 125.337 -2.86738 115.688 13.0184 115.92C16.0886 115.734 19.2751 115.758 22.5081 115.967C2.55739 114.061 -17.5328 118.22 -34.4624 132.765C-34.4678 132.77 -34.4762 132.766 -34.4762 132.759V132.759ZM22.5081 115.944C24.392 116.13 26.276 116.362 28.1367 116.641C27.6715 116.525 27.1831 116.432 26.7179 116.316C25.2991 116.153 23.9036 116.037 22.5081 115.944ZM43.9528 120.198C47.0694 121.129 50.1396 122.152 53.1633 123.291C53.5819 123.477 54.0006 123.686 54.396 123.872C55.3729 124.244 56.373 124.593 57.3499 124.942C59.3502 125.779 61.3504 126.616 63.3507 127.453C69.398 130.01 75.4918 132.591 81.6554 134.87C86.1909 136.544 90.7496 138.078 95.3549 139.334C99.9602 140.566 104.635 141.52 109.38 142.008C113.52 142.729 117.683 143.403 121.87 144.147C126.033 144.891 130.22 145.682 134.407 146.658C134.883 146.771 135.359 146.885 135.813 146.998C135.837 147.004 135.861 147.007 135.885 147.007L137.566 147.007C137.779 147.007 137.803 146.691 137.593 146.658V146.658C133.151 145.937 128.708 145.216 124.266 144.449C119.823 143.682 115.358 142.868 110.869 141.985C102.286 140.473 93.5407 137.985 84.7256 135.149C80.3297 133.73 75.8872 132.219 71.4448 130.685C67.7001 129.15 63.9089 127.616 60.0944 126.104C59.3967 125.802 58.6989 125.523 58.0011 125.221C59.7223 125.825 61.4667 126.43 63.1879 126.988C69.0724 128.871 74.9801 130.382 80.8879 131.522C85.2838 132.591 89.703 133.591 94.0989 134.498C98.4949 135.428 102.914 136.288 107.31 137.102C109.287 137.311 111.241 137.567 113.194 137.823C111.38 137.52 109.566 137.195 107.775 136.846C103.216 135.8 98.6577 134.614 94.0524 133.289C89.4472 131.987 84.8186 130.568 80.1901 129.127C75.7244 127.267 71.1889 125.43 66.6302 123.64C62.0714 121.873 57.4429 120.152 52.8144 118.664V118.664C47.9414 117.431 47.021 120.684 51.6463 122.652C51.9053 122.762 52.163 122.874 52.419 122.989C49.6673 121.902 46.8466 121 43.9799 120.258C43.9539 120.251 43.9408 120.222 43.9528 120.198V120.198ZM-53.0136 142.787C-53.0136 142.794 -53.0171 142.801 -53.0231 142.805C-54.8086 144.038 -56.5553 145.348 -58.3165 146.629C-58.4697 146.741 -58.391 146.984 -58.2016 146.984V146.984C-58.1702 146.984 -58.1392 146.976 -58.1114 146.961C-55.4512 145.572 -52.8367 143.975 -50.1992 142.264C-45.0613 138.917 -39.9699 135.315 -34.6695 132.92C-34.6647 132.918 -34.6601 132.915 -34.6564 132.911V132.911C-34.621 132.876 -34.6517 132.831 -34.6958 132.854C-36.5901 133.812 -38.4647 134.771 -40.3607 135.73C-44.7532 137.403 -48.9367 139.958 -53.004 142.768C-53.01 142.773 -53.0136 142.779 -53.0136 142.787V142.787ZM43.9528 120.198C38.7428 118.664 33.463 117.455 28.1367 116.641C33.2537 117.804 38.6497 118.803 43.9528 120.198ZM111.776 133.568C111.311 133.568 110.845 133.498 110.38 133.475C112.66 133.917 114.962 134.358 117.242 134.823C120.381 135.312 123.521 135.893 126.661 136.59C137.791 139.395 149.128 143.054 160.535 146.97C160.606 146.994 160.681 147.007 160.756 147.007V147.007C161.495 147.007 161.691 146.022 161.003 145.752C148.125 140.708 134.776 138.361 121.568 135.474C118.273 134.871 115.024 134.268 111.775 133.573C111.772 133.572 111.773 133.568 111.776 133.568V133.568ZM127.289 139.985C126.01 139.799 124.731 139.59 123.475 139.404C124.216 139.537 124.957 139.67 125.699 139.815C126.03 139.88 126.367 139.912 126.703 139.938C126.903 139.953 127.1 139.972 127.289 139.985ZM-48.7804 132.208C-48.7804 132.204 -48.7859 132.201 -48.7893 132.204C-49.0613 132.461 -49.3392 132.721 -49.6219 132.987C-50.0524 133.39 -49.5498 134.071 -49.0365 133.779C-46.4761 132.327 -43.9122 130.875 -41.3376 129.359C-38.3605 127.755 -35.3833 126.29 -32.3597 124.918C-28.5685 123.244 -24.754 121.64 -20.9395 120.129C-24.0097 121.547 -27.0334 123.198 -30.0105 125.104V125.104C-30.4889 125.393 -30.1643 125.99 -29.6547 125.761C-18.0564 120.547 -6.4227 115.116 5.66862 113.363C0.109746 113.828 -5.35608 114.758 -10.7289 116.316C-7.84478 115.316 -4.93744 114.386 -1.98356 113.525C-13.9851 115.386 -25.8937 118.989 -37.4534 124.57C-41.3578 126.684 -45.1229 129.216 -48.7718 132.212C-48.7753 132.215 -48.7804 132.213 -48.7804 132.208V132.208ZM13.1813 109.689C7.99452 110.735 2.97059 112.014 -1.98356 113.502C12.8556 111.2 27.8344 111.572 42.4409 114.176C38.295 112.848 34.1709 111.584 30.0264 110.344C29.7595 110.264 29.4863 110.206 29.2096 110.173C23.7252 109.519 18.3537 109.372 13.1813 109.689ZM28.0698 113.881C28.4188 113.921 28.5908 113.414 28.2886 113.235V113.235C28.2505 113.212 28.207 113.197 28.1629 113.192C23.0225 112.594 17.9747 112.434 13.0882 112.735C10.5995 112.735 8.1108 112.991 5.66862 113.339C13.0523 112.733 20.5569 113.014 28.0698 113.881ZM91.5522 128.871C91.554 128.871 91.5543 128.869 91.5526 128.868C86.7882 127.567 82.0239 126.219 77.2362 124.895C72.5147 122.872 67.7931 121.035 63.0251 119.385C56.28 117.176 49.3953 115.432 42.4409 114.176C47.0927 115.665 51.7678 117.246 56.4893 119.013C59.4897 120.268 62.5134 121.524 65.5603 122.733C71.6541 125.151 77.8875 127.36 84.2372 129.08C88.7726 130.243 93.3314 131.243 97.9134 132.01C102.03 132.707 106.194 133.196 110.38 133.451C108.868 133.149 107.356 132.87 105.845 132.545C101.08 131.406 96.3393 130.152 91.5518 128.874C91.5501 128.874 91.5504 128.871 91.5522 128.871V128.871ZM-60.782 144.082C-60.782 144.079 -60.7807 144.076 -60.7784 144.074C-60.6638 143.958 -60.5715 143.82 -60.4564 143.705V143.705C-59.4476 142.566 -60.8353 140.788 -62.1004 141.634C-63.9095 142.844 -65.7044 144.121 -67.4806 145.495V145.495C-68.1153 145.984 -67.7488 146.984 -66.9482 146.984L-59.5111 146.984C-59.1085 146.984 -58.7452 146.749 -58.5555 146.394C-58.1628 145.659 -57.6962 144.949 -57.1671 144.261C-56.7432 143.71 -57.4169 142.745 -58.0607 143.008V143.008C-58.9622 143.377 -59.8637 143.747 -60.7651 144.094C-60.7733 144.097 -60.782 144.091 -60.782 144.082V144.082ZM-53.502 140.45V140.45C-53.7449 140.664 -53.5207 141.001 -53.2272 140.864C-50.2583 139.479 -47.335 137.919 -44.53 136.037C-44.4796 136.003 -44.4318 135.965 -44.387 135.924C-42.2341 133.951 -40.0627 132.135 -37.8789 130.463C-37.4619 130.144 -37.9071 129.363 -38.3913 129.566V129.566C-38.4331 129.583 -38.4705 129.606 -38.5049 129.636C-42.3937 132.97 -48.7317 136.376 -53.502 140.45Z" fill="#45C1BC" fill-opacity="0.45"/>
</g>
</svg>
