<svg width="116" height="90" viewBox="0 0 116 90" fill="none" xmlns="http://www.w3.org/2000/svg">
<path d="M6.44092e-10 45C7.61233e-07 55.3709 -9.64764e-07 60.5563 4.24695 63.7782C8.4939 67 15.3293 67 29 67L87 67C100.671 67 107.506 67 111.753 63.7782C116 60.5563 116 55.3709 116 45C116 34.6291 116 29.4436 111.753 26.2218C107.506 23 100.671 23 87 23H29C15.3293 23 8.4939 23 4.24695 26.2218C-2.25112e-06 29.4437 -7.59944e-07 34.6291 6.44092e-10 45Z" fill="#19424B"/>
<g opacity="0.5">
<path d="M24.9089 16.5922H91.1569C104.877 16.5922 116 10.2248 116 2.37031C116 1.06122 114.146 0 111.859 0H4.20637C1.91964 0 0.0658744 1.06122 0.0658744 2.37031C0.0658744 10.2248 11.1885 16.5922 24.9089 16.5922Z" fill="#19424B"/>
<path d="M91.091 73.4078H24.843C11.1226 73.4078 0 79.7752 0 87.6297C0 88.9388 1.85377 90 4.1405 90L111.794 90C114.08 90 115.934 88.9388 115.934 87.6297C115.934 79.7752 104.811 73.4078 91.091 73.4078Z" fill="#19424B"/>
</g>
</svg>
