<svg width="103" height="110" viewBox="0 0 103 110" fill="none" xmlns="http://www.w3.org/2000/svg">
<g clip-path="url(#clip0_352_238)">
<path d="M0 10L0 81C0 86.5228 4.47715 91 10 91H71C76.5229 91 81 86.5228 81 81V10C81 4.47715 76.5229 0 71 0H10C4.47715 0 0 4.47715 0 10Z" fill="#19424B" fill-opacity="0.3"/>
<path d="M56.5587 49.6701C56.59 52.7674 56.59 55.8486 56.6994 58.9459C56.7776 61.3173 57.481 63.5919 58.0594 65.8826C58.7316 68.5444 59.2475 71.2384 59.5601 73.9647V70.2726C59.5601 69.8854 59.5152 69.4994 59.4256 69.1227C58.8397 66.6617 58.2269 64.1728 57.7624 61.6561C57.3872 59.6719 57.2622 57.6231 57.1997 55.6066C57.1215 52.59 57.1684 49.5572 57.2309 46.5405C57.2934 42.9915 58.0751 39.5393 58.9192 36.1032C59.1188 35.3266 59.3185 34.5501 59.5477 33.7889C59.5559 33.7617 59.5601 33.7335 59.5601 33.7051V33.7051C59.5601 33.3633 59.0683 33.3039 58.9866 33.6359C58.3421 36.2546 57.6961 38.8681 57.1059 41.4912C56.4962 44.1853 56.5275 46.9438 56.5587 49.6862V49.6701Z" fill="#19424B" fill-opacity="0.5"/>
<path d="M57.543 4.54919C58.0433 4.53306 58.2152 4.30721 58.184 3.82326C58.1268 2.65773 58.0957 1.4922 58.0669 0.326678C58.0624 0.144978 57.9139 0 57.7321 0V0C57.5431 0 57.3916 0.156322 57.3974 0.345244C57.4406 1.74135 57.4837 3.13746 57.5269 4.53357C57.5272 4.54228 57.5343 4.54919 57.543 4.54919V4.54919Z" fill="#19424B" fill-opacity="0.5"/>
<path d="M47.07 2.96827C47.1169 4.54919 47.0232 6.14625 47.1013 7.72718C47.2733 11.5666 46.0696 14.8897 43.4746 17.7128C42.9275 18.3097 42.5211 18.2452 42.3335 17.4708C42.1303 16.5675 42.0677 15.6318 41.9739 14.6962C41.6769 12.0505 41.4424 9.37263 41.0673 6.74313C40.8641 5.38805 40.3326 4.0975 40.0668 2.75855C39.9157 1.96462 39.9215 1.14576 39.8933 0.334841C39.8868 0.147161 39.7319 0 39.5441 0V0C39.3493 0 39.1914 0.157897 39.1914 0.352672C39.1914 0.380302 39.1914 0.407931 39.1914 0.435561C39.1914 1.93583 39.3946 3.3877 39.8792 4.8073C40.6608 7.0335 40.7859 9.3565 41.0047 11.6634C41.1923 13.5024 41.3643 15.3414 41.5675 17.1805C41.5988 17.4063 41.6613 17.6483 41.7551 17.8741C42.1928 18.955 43.0213 19.1163 43.8185 18.2774C46.8043 15.1478 48.0236 11.4052 47.711 7.1303C47.6172 5.80748 47.7266 4.46853 47.711 3.12959C47.6971 2.21165 47.6461 1.30646 47.591 0.357341C47.5794 0.156756 47.4133 0 47.2124 0V0C46.9864 0 46.8106 0.196454 46.8369 0.420949C46.9359 1.26835 47.0432 2.12424 47.07 2.96827Z" fill="#19424B" fill-opacity="0.5"/>
<path d="M32.2175 27.874C32.2187 27.8752 32.2195 27.8768 32.2197 27.8785C32.4854 29.4585 32.7978 30.9741 32.9697 32.4896C33.2041 34.4738 33.4386 36.4581 33.4543 38.4423C33.5012 42.8302 33.5012 47.2342 33.3761 51.622C33.2359 56.0283 32.3189 60.3223 31.0124 64.5201C31.0042 64.5464 31 64.5739 31 64.6015V65.6111C31 65.7776 31.2636 65.8159 31.3126 65.6568V65.6568C33.1572 60.2365 34.1264 54.671 34.1264 48.9442C34.1264 45.5081 34.1264 42.0558 34.1264 38.6197C34.1264 35.4256 33.6887 32.2638 33.0791 29.1342C33.0432 28.9489 32.8789 28.8014 32.7267 28.6483C32.6413 28.5624 32.6191 28.4353 32.6578 28.3206C32.684 28.2427 32.7117 28.1595 32.7401 28.075C32.7756 27.9695 32.6973 27.8598 32.586 27.8598H32.2235C32.2161 27.8598 32.2123 27.8687 32.2175 27.874V27.874Z" fill="#19424B" fill-opacity="0.5"/>
<path d="M31 22.9818C31 23.0073 31.0032 23.0327 31.0095 23.0574C31.2812 24.1187 31.5657 25.1802 31.8391 26.254C31.8782 26.4078 31.9953 26.5139 32.1532 26.4983V26.4983C32.3423 26.4796 32.4983 26.2963 32.4598 26.1103C32.378 25.7159 32.2971 25.3311 32.1881 24.956C31.997 24.2699 31.8022 23.5838 31.6073 22.8977C31.5102 22.5557 31 22.6263 31 22.9818V22.9818Z" fill="#19424B" fill-opacity="0.5"/>
<path d="M50.7266 55.1549C50.7266 58.4781 51.3831 61.6883 52.3054 64.8663C54.1657 71.2868 55.0254 77.8686 54.6659 84.5634C54.563 86.5817 54.3079 88.5857 54.0828 90.6023C54.06 90.8059 54.2196 90.9839 54.4245 90.9839V90.9839C54.5981 90.9839 54.7446 90.8546 54.7662 90.6823C54.8156 90.288 54.863 89.902 54.9004 89.5159C55.0723 87.2251 55.2286 84.9183 55.4006 82.6114C55.4006 82.5146 55.4319 82.4178 55.4006 82.3372C54.7753 80.7401 55.5882 79.1108 55.2755 77.4815C54.9473 75.836 54.916 74.126 54.6659 72.4645C54.4158 70.819 54.0719 69.1897 53.6967 67.5604C53.3215 65.931 52.8994 64.3178 52.4148 62.7369C51.6489 60.2042 51.3831 57.5908 51.3831 54.9775C51.3831 50.5735 51.43 46.1533 51.602 41.7493C51.7583 38.1842 52.665 34.732 53.7592 31.3443C54.7753 28.1985 55.9321 25.0851 56.5574 21.8264C57.2921 17.9871 57.7611 14.1315 57.9956 10.2276C58.0581 9.2597 58.0893 8.29178 58.1362 7.32387V7.32387C58.1701 6.73068 57.4903 7.21876 57.4638 7.81233C57.4313 8.54136 57.3965 9.26795 57.3546 10.0018C57.042 15.4543 56.3698 20.8585 54.8066 26.1175C54.1188 28.4566 53.259 30.7312 52.5712 33.0704C51.5082 36.6839 50.8673 40.362 50.8516 44.153C50.8516 47.8149 50.7266 51.4769 50.7266 55.1388V55.1549Z" fill="#19424B" fill-opacity="0.5"/>
<path d="M59.17 90.9839C59.3322 90.9839 59.4713 90.8663 59.5034 90.7072C59.5205 90.6226 59.5377 90.5379 59.5525 90.4533C59.5583 90.4199 59.5609 90.3861 59.5609 90.3522V86.1927C59.3747 87.6706 59.1361 89.1349 58.8449 90.5858C58.8037 90.7913 58.9604 90.9839 59.17 90.9839V90.9839Z" fill="#19424B" fill-opacity="0.5"/>
<path d="M45.0153 54.8404C45.0203 54.8455 45.0232 54.8525 45.0233 54.8597C45.0714 57.6789 45.5868 60.466 46.2737 63.1886C47.0709 66.3505 48.0089 69.4639 48.853 72.6097C50.1036 77.2879 50.1505 82.0145 49.447 86.7734C49.2439 88.1601 48.9471 89.5467 48.7439 90.9333C48.7437 90.9348 48.7436 90.9342 48.7436 90.9357V90.9357C48.7436 90.9523 48.757 90.9677 48.7737 90.9677H49.1205C49.301 90.9677 49.4563 90.8398 49.49 90.6624C49.6231 89.9614 49.7442 89.2727 49.8535 88.5964C50.682 83.8374 50.9321 79.0624 49.9004 74.3035C49.5096 72.4967 48.9624 70.7383 48.4309 68.9638C47.2272 64.8341 46.1955 60.6559 45.7578 56.3648C45.6328 55.1872 45.6797 53.9934 45.6797 52.7997C45.6797 50.0089 45.7109 47.2342 45.6797 44.4434C45.5859 38.7972 46.602 33.3446 48.6341 28.1179C50.51 23.3106 51.4636 18.3581 51.9169 13.2765C52.2765 9.29197 52.4015 5.30739 52.1201 1.32282C52.096 0.985879 52.0624 0.648943 52.0268 0.304539C52.0088 0.131481 51.8629 0 51.6889 0V0C51.4857 0 51.3281 0.177219 51.3513 0.379084C51.4448 1.19189 51.5303 2.01353 51.5574 2.82308C51.7762 9.42103 51.3385 15.9706 49.7909 22.3911C49.322 24.3108 48.5716 26.1498 47.9151 28.005C46.0548 33.2962 44.9449 38.7165 44.9918 44.3466C45.0231 47.8434 44.9451 51.3403 45.0073 54.8211C45.0074 54.8283 45.0103 54.8352 45.0153 54.8404V54.8404Z" fill="#19424B" fill-opacity="0.5"/>
<path d="M67.7441 55.1549C67.7441 58.4781 68.4007 61.6883 69.323 64.8663C71.1832 71.2868 72.043 77.8686 71.6835 84.5634C71.5805 86.5817 71.3254 88.5857 71.1004 90.6023C71.0776 90.8059 71.2372 90.9839 71.4421 90.9839V90.9839C71.6157 90.9839 71.7622 90.8546 71.7838 90.6823C71.8332 90.288 71.8805 89.902 71.9179 89.5159C72.0899 87.2251 72.2462 84.9183 72.4182 82.6114C72.4182 82.5146 72.4494 82.4178 72.4182 82.3372C71.7929 80.7401 72.6058 79.1108 72.2931 77.4815C71.9648 75.836 71.9336 74.126 71.6835 72.4645C71.4333 70.819 71.0894 69.1897 70.7143 67.5604C70.3391 65.931 69.917 64.3178 69.4324 62.7369C68.6664 60.2042 68.4007 57.5908 68.4007 54.9775C68.4007 50.5735 68.4476 46.1533 68.6195 41.7493C68.7759 38.1842 69.6825 34.732 70.7768 31.3443C71.7929 28.1985 72.9497 25.0851 73.575 21.8264C74.3097 17.9871 74.7786 14.1315 75.0131 10.2276C75.0757 9.2597 75.1069 8.29178 75.1538 7.32387V7.32387C75.1876 6.73068 74.5079 7.21876 74.4814 7.81233C74.4489 8.54136 74.414 9.26795 74.3722 10.0018C74.0596 15.4543 73.3874 20.8585 71.8242 26.1175C71.1363 28.4566 70.2766 30.7312 69.5887 33.0704C68.5258 36.6839 67.8848 40.362 67.8692 44.153C67.8692 47.8149 67.7441 51.4769 67.7441 55.1388V55.1549Z" fill="#19424B" fill-opacity="0.5"/>
<path d="M62.0329 54.8404C62.0379 54.8455 62.0407 54.8525 62.0409 54.8597C62.0889 57.6789 62.6044 60.466 63.2913 63.1886C64.0885 66.3505 65.0264 69.4639 65.8706 72.6097C67.1212 77.2879 67.1681 82.0145 66.4646 86.7734C66.2615 88.1601 65.9647 89.5467 65.7615 90.9333C65.7613 90.9348 65.7612 90.9342 65.7612 90.9357V90.9357C65.7612 90.9523 65.7746 90.9677 65.7912 90.9677H66.1381C66.3186 90.9677 66.4739 90.8398 66.5075 90.6624C66.6406 89.9614 66.7618 89.2727 66.871 88.5964C67.6996 83.8374 67.9497 79.0624 66.9179 74.3035C66.5271 72.4967 65.98 70.7383 65.4485 68.9638C64.2448 64.8341 63.2131 60.6559 62.7754 56.3648C62.6503 55.1872 62.6972 53.9934 62.6972 52.7997C62.6972 50.0089 62.7285 47.2342 62.6972 44.4434C62.6034 38.7972 63.6195 33.3446 65.6517 28.1179C67.5276 23.3106 68.4812 18.3581 68.9345 13.2765C69.294 9.29197 69.4191 5.30739 69.1377 1.32282C69.1135 0.985879 69.08 0.648943 69.0443 0.304539C69.0264 0.131481 68.8805 0 68.7065 0V0C68.5033 0 68.3457 0.177219 68.3689 0.379084C68.4623 1.19189 68.5479 2.01353 68.575 2.82308C68.7938 9.42103 68.3561 15.9706 66.8085 22.3911C66.3395 24.3108 65.5892 26.1498 64.9326 28.005C63.0724 33.2962 61.9625 38.7165 62.0094 44.3466C62.0406 47.8434 61.9627 51.3403 62.0248 54.8211C62.025 54.8283 62.0278 54.8352 62.0329 54.8404V54.8404Z" fill="#19424B" fill-opacity="0.5"/>
<path d="M39.9946 90.9907C39.9921 90.9881 39.994 90.9839 39.9975 90.9839H40.4343C40.552 90.9839 40.641 90.8772 40.6207 90.7612C39.4172 83.9037 39.494 77.1707 41.5667 70.516C41.5853 70.4564 41.6403 70.4163 41.7005 70.3996V70.3996C41.7673 70.381 41.8356 70.4143 41.8614 70.4787C42.3503 71.699 42.8933 72.9059 43.3333 74.1583C45.1154 79.256 45.3499 84.4989 44.6151 89.8062C44.573 90.0783 44.5379 90.343 44.4955 90.6103C44.4634 90.8129 44.6181 91 44.8232 91V91C44.9828 91 45.1191 90.8842 45.1443 90.7266C45.8908 86.0573 45.8602 81.5094 44.848 77.0829C44.045 73.5713 39.8555 73.8739 39.4547 77.4537C38.9545 81.9207 39.2327 86.4249 40.0015 90.9872C40.0021 90.9911 39.9974 90.9935 39.9946 90.9907V90.9907Z" fill="#19424B" fill-opacity="0.5"/>
<path d="M34.5449 90.7388C34.5751 90.8814 34.7007 90.9839 34.8464 90.9839H35.1157C35.1911 90.9839 35.2445 90.9104 35.2214 90.8387V90.8387C34.2834 86.9509 34.0021 82.9986 34.174 79.014C34.3616 74.368 35.1588 69.8188 36.8002 65.431C38.5667 60.7043 39.4108 55.8002 39.489 50.7671C39.5515 46.7986 39.5046 42.814 39.489 38.8456C39.489 36.6839 39.5046 34.5222 39.4421 32.3606C39.3326 28.5534 38.7386 24.8109 37.66 21.165C36.597 17.6322 35.9248 14.0186 35.4715 10.3567C35.065 7.09803 34.8306 3.80713 34.5179 0.532352C34.5122 0.467026 34.5085 0.4017 34.507 0.336374C34.5028 0.155437 34.3622 0 34.1812 0V0C34.0065 0 33.8666 0.145039 33.8736 0.319618C34.0911 5.77675 34.7734 11.1873 35.8467 16.5513C36.2531 18.6001 36.8628 20.6004 37.3786 22.6169C38.3009 26.2466 38.8168 29.9408 38.8168 33.6995C38.8168 39.6038 38.8949 45.4919 38.8012 51.3962C38.723 56.1229 37.8476 60.7527 36.1749 65.189C34.8931 68.5928 34.1115 72.0934 33.7363 75.6908C33.3142 79.7238 33.3455 83.7729 33.9552 87.7898C34.0995 88.7876 34.3371 89.7579 34.5449 90.7388Z" fill="#19424B" fill-opacity="0.5"/>
<path d="M58.0758 4.9041C58.0446 5.32353 58.0289 5.6623 57.9977 6.00107V6.00107C57.9977 6.17347 57.7082 6.23732 57.6069 6.09786V6.09786C57.3747 5.81031 57.5717 5.17473 58.0613 4.92741C58.0701 4.92296 58.0758 4.91396 58.0758 4.9041V4.9041Z" fill="#19424B" fill-opacity="0.5"/>
<path d="M4.5802 5.22662C4.5802 5.22662 4.5802 5.22662 4.5802 5.22662C4.5802 5.22662 4.5802 5.30557 4.5802 5.33715V7.08988C4.48641 9.11105 4.50204 11.1322 4.31445 13.1376C4.11123 15.443 3.25146 17.5589 1.86019 19.5011C1.29497 20.2881 0.7596 21.1052 0.13738 22.0262C0.108989 22.0682 0.09375 22.1179 0.09375 22.1686V23.0784C0.09375 23.1534 0.208724 23.1798 0.250072 23.1171V23.1171C1.20364 21.6486 2.21973 20.2275 3.15767 18.7432C4.33008 16.8957 4.90848 14.8272 5.08043 12.7113C5.24055 10.594 5.25157 8.4631 5.26495 6.33123C5.26692 6.0166 5.30814 5.70263 5.31402 5.38805C5.31492 5.33992 5.31492 5.29623 5.31492 5.2582C5.2881 4.63512 5.29579 2.87326 5.30838 1.90642C5.3113 1.68289 5.13121 1.5 4.90766 1.5V1.5C4.68395 1.5 4.50397 1.68391 4.50881 1.90756L4.5802 5.21083V5.22662Z" fill="#19424B" fill-opacity="0.5"/>
<path d="M10.9582 1.73694C10.9582 4.80028 10.88 7.86362 10.9738 10.9112C11.0988 14.8903 10.1296 18.6169 8.25378 22.1539C7.36274 23.8435 6.36228 25.5173 5.18986 27.0647C2.57473 30.5003 0.938967 34.2755 0.169504 38.376C0.117015 38.6558 0.09375 38.9401 0.09375 39.2247V47.3532C0.09375 47.6593 0.120936 47.9649 0.181347 48.265C0.252757 48.6197 0.329576 48.9744 0.406395 49.3292C1.03168 52.1241 2.06341 54.7453 3.79859 57.1296C6.23722 60.493 7.12825 64.2827 7.12825 68.2776C7.12825 70.2514 7.12825 72.2094 7.12825 74.1832C7.12825 74.278 7.12825 74.3727 7.12825 74.4675C7.12825 74.6096 7.12825 75.178 7.12825 75.8412C7.12825 75.8412 7.12825 75.8412 7.12825 75.8412C7.12825 75.8412 7.12825 75.857 7.12825 75.8728C7.12825 76.7887 7.12825 77.8624 7.12825 78.0677C7.12825 82.2206 7.12825 86.3734 7.14389 90.5263C7.14389 90.5432 7.1437 90.5597 7.14333 90.5759C7.13924 90.7534 7.30241 91 7.47998 91V91C7.65755 91 7.81607 90.7512 7.81607 90.5737V90.5737C7.81607 86.8471 7.80044 80.9099 7.80044 76.5676V75.1465C7.80044 74.9885 7.80044 74.8149 7.80044 74.657V74.657C7.80044 74.5626 7.81742 74.4693 7.82748 74.3755C7.83013 74.3507 7.8317 74.3238 7.8317 74.2938C7.78481 71.4673 7.8317 68.6408 7.67538 65.8301C7.50343 62.751 6.54986 59.814 4.68963 57.2402C2.40732 54.0821 1.15674 50.6398 0.672143 46.9132C-0.0156757 41.6393 0.734672 36.5705 3.07951 31.7071C4.03307 29.7491 5.40871 28.0437 6.65929 26.2436C9.16044 22.6118 10.9269 18.7116 11.5209 14.4008C11.6147 13.6745 11.6616 12.9481 11.6772 12.2218C11.6929 8.35312 11.6772 4.50026 11.6929 0.631618C11.6929 0.482899 11.6787 0.341326 11.6552 0.2069C11.6354 0.0938454 11.5341 0.0157928 11.4193 0.0157928H11.1466C11.1012 0.0157928 11.0645 0.0482569 11.0847 0.088918V0.088918C11.097 0.113797 11.1025 0.156504 11.0881 0.180202C10.8712 0.535205 10.9582 1.52466 10.9582 1.75274V1.73694Z" fill="#19424B" fill-opacity="0.5"/>
<path d="M2.41553 79.2835C2.41974 79.2835 2.42322 79.2803 2.42353 79.2761C2.43932 79.0572 2.46989 78.8231 2.46989 78.6045C2.45426 76.0781 2.46989 73.5358 2.39173 71.0094C2.2916 68.3363 1.65483 65.7823 0.445473 63.3593C0.355707 63.1795 0.0937934 63.2448 0.0937934 63.4458V63.4458C0.0937934 63.5429 0.0753175 63.6213 0.0383657 63.6955C0.0161083 63.7401 0 63.7882 0 63.8381V64.0738C0 64.1161 0.0392596 64.1475 0.0805763 64.1383V64.1383C0.114438 64.1307 0.148397 64.1505 0.158479 64.1837C0.516548 65.3631 1.00379 66.5132 1.20368 67.7092C1.50069 69.3988 1.64138 71.1041 1.71955 72.8095C1.79771 74.6412 1.71955 76.4886 1.75081 78.3361C1.75081 78.5802 1.66589 80.3216 1.66423 81.4559C1.66331 82.0894 1.72202 82.737 1.72419 83.3705C1.72909 84.8018 1.71411 84.2147 1.72742 86.5C1.72124 84.7917 1.83806 85.546 1.74339 86.4579C1.73413 86.5472 1.75644 86.6373 1.80866 86.7102V86.7102C2.01016 86.9918 2.45426 86.8492 2.45426 86.503V81.7784L2.40752 79.2917C2.40743 79.2872 2.41104 79.2835 2.41553 79.2835V79.2835Z" fill="#19424B" fill-opacity="0.5"/>
<path d="M23.5809 13.1613C23.5837 13.1584 23.5887 13.1604 23.5887 13.1645C23.6216 18.0397 24.7315 22.6942 26.8871 27.1279C28.3878 30.207 29.1537 33.444 29.4195 36.7916C29.8728 42.3182 29.2475 47.7501 27.2935 53.0083C26.4494 55.2979 25.4645 57.5402 24.5891 59.8298C24.1827 60.872 23.9169 61.9615 23.5887 63.0352V63.0352C23.4637 63.4454 23.4057 63.8781 23.3029 64.2943C23.151 64.9093 23.0019 65.5596 22.979 65.6406C22.2912 68.9882 21.9785 72.3831 21.9785 75.7939C21.9785 80.6573 21.9785 85.5208 21.9785 90.3842C21.9785 90.4799 21.9785 90.5625 21.9768 90.6343C21.9729 90.7944 22.1144 90.9842 22.2745 90.9842H22.3409C22.5021 90.9842 22.6664 90.7349 22.6664 90.5737V90.5737C22.682 85.0944 22.6664 79.5994 22.6976 74.1201C22.7289 71.1041 23.1353 68.1355 23.7763 65.1827C23.8231 64.9932 23.8388 64.788 23.87 64.5827C24.2765 63.2247 24.6048 61.8352 25.105 60.493C26.0586 57.9349 27.1684 55.4085 28.0907 52.8504C30.0917 47.3238 30.6701 41.6551 30.0448 35.8758C29.6696 32.4019 28.591 29.1333 27.0903 25.9278C25.2457 21.9802 24.3234 17.8116 24.2921 13.5008C24.2617 9.13615 24.2905 4.75656 24.2921 0.391121C24.2921 0.192552 24.1311 0.0315857 23.9326 0.0315857H23.652C23.6084 0.0315857 23.573 0.0669337 23.573 0.110538V0.110538C23.573 4.46496 23.5574 8.81938 23.573 13.1581C23.573 13.1622 23.578 13.1642 23.5809 13.1613V13.1613ZM24.0719 63.4561C24.0744 63.4586 24.075 63.4606 24.0719 63.4623V63.4623C24.0631 63.467 24.0567 63.4664 24.0637 63.4594C24.0674 63.4557 24.0703 63.4545 24.0719 63.4561Z" fill="#19424B" fill-opacity="0.5"/>
<path d="M16.8673 12.7981C16.8745 12.7945 16.8831 12.7997 16.8831 12.8078C16.9167 16.3543 17.6513 19.775 19.0715 23.0698C19.6968 24.5383 20.5097 25.9436 21.0568 27.4437C22.4481 31.186 22.7763 35.0547 22.6044 38.9865C22.4168 43.1235 21.6039 47.1659 20.1189 51.0661C19.1966 53.4978 18.1648 55.9138 17.3207 58.3613C16.2421 61.5036 15.5855 64.7564 15.0853 68.0092C15.0728 68.0972 15.0703 68.1952 15.0619 68.3031C15.0576 68.3583 15.0207 68.4086 15.0092 68.4627V68.4627C15.0061 68.4778 15.0056 68.4906 15.0028 68.5057C14.9284 68.9052 14.9133 69.2143 14.9133 69.4777C14.8508 70.6462 14.6319 72.8726 14.6319 73.9938C14.6163 79.3467 14.6319 84.6996 14.6319 90.0684V90.5775C14.6319 90.7847 14.7999 90.9526 15.0071 90.9526H15.0489C15.233 90.9526 15.351 90.8051 15.351 90.621V90.621C15.351 84.7786 15.351 78.9204 15.351 73.0779C15.351 72.5884 15.4605 71.0567 15.5074 70.5672C15.544 70.3082 15.6092 69.529 15.6435 68.9971C15.6594 68.7495 15.6868 68.5026 15.7316 68.2586C15.9838 66.8854 16.205 65.5367 16.4922 64.1879C17.352 60.0824 18.6651 56.1032 20.369 52.2346C21.9166 48.7291 22.7294 45.0342 23.1515 41.2603C23.5423 37.8496 23.4798 34.4546 22.8076 31.0755C22.3386 28.7069 21.6196 26.3857 20.4315 24.2382C18.8683 21.4276 18.1023 18.3958 17.7428 15.3009C17.5552 13.6587 17.5864 11.9849 17.5708 10.3427C17.5557 7.02025 17.5698 3.69779 17.5708 0.375334C17.5708 0.176765 17.4098 0.0157928 17.2113 0.0157928V0.0157928C17.0127 0.0157928 16.8517 0.176765 16.8516 0.375334C16.8492 4.51306 16.8063 8.65079 16.8515 12.7885C16.8516 12.7966 16.8601 12.8018 16.8673 12.7981V12.7981Z" fill="#19424B" fill-opacity="0.5"/>
<path d="M14.3741 50.1661C14.3707 50.1661 14.3687 50.1623 14.3706 50.1595C15.8226 47.9983 17.1177 45.7579 17.3207 43.1709C17.4591 41.4472 17.4765 39.7082 17.5513 37.9689C17.5534 37.9211 17.5153 37.8811 17.4674 37.8811V37.8811C17.421 37.8811 17.3832 37.8435 17.3833 37.7971C17.386 36.2776 17.4594 34.7582 17.352 33.2388C17.2894 32.1966 17.0706 31.1386 16.7736 30.1281C16.414 28.8964 15.2103 28.1385 13.8034 28.0753C12.4747 28.0121 11.2085 28.7069 10.6926 29.8438C10.4425 30.3965 10.2393 30.9807 10.1142 31.565C9.69216 33.3493 8.87929 34.9283 7.65997 36.3495C7.34733 36.7126 7.06595 37.1232 6.78457 37.518C5.70595 39.018 5.28388 40.6602 5.831 42.413C6.28434 43.8657 6.78457 45.3026 7.40986 46.6922C8.16021 48.366 9.00435 50.0239 9.92665 51.6188C10.6614 52.882 11.9745 53.0083 13.0375 51.9504C13.5671 51.4311 13.9725 50.7864 14.3776 50.1725C14.3794 50.1698 14.3774 50.1661 14.3741 50.1661V50.1661ZM10.5676 51.3582C10.5676 51.3605 10.5646 51.3614 10.5633 51.3594C10.0334 50.5247 9.5348 49.6742 9.14504 48.7923C8.2071 46.5974 7.2848 44.3868 6.48756 42.1445C5.95606 40.6602 6.39376 39.2233 7.31607 37.9285C7.58181 37.5653 7.83193 37.2022 8.12894 36.8548C9.48895 35.2915 10.3956 33.5388 10.8177 31.5808C10.8958 31.186 11.0522 30.807 11.1929 30.4281C11.6149 29.307 12.4591 28.7385 13.7253 28.7385C14.9133 28.7385 15.8513 29.3227 16.1483 30.4597C16.4297 31.5492 16.6016 32.6703 16.6798 33.7914C16.7718 35.1082 16.6983 36.4401 16.6955 37.7574C16.6954 37.7996 16.7238 37.8338 16.7659 37.8338V37.8338C16.8095 37.8338 16.85 37.8701 16.8481 37.9137C16.7726 39.5766 16.7406 41.2395 16.6329 42.9025C16.5078 44.8921 15.6949 46.6922 14.6476 48.3975C14.1474 49.2186 13.6002 50.0239 13.0531 50.8293C12.8811 51.0819 12.6623 51.3345 12.4278 51.5556C11.742 52.1539 11.0563 52.1085 10.5719 51.3571C10.5706 51.3551 10.5676 51.3559 10.5676 51.3582V51.3582Z" fill="#19424B" fill-opacity="0.5"/>
<path d="M83.8644 2.72115C83.8644 5.78449 83.7862 8.84782 83.88 11.8954C84.0051 15.8745 83.0359 19.6011 81.16 23.1381C80.269 24.8277 79.2685 26.5015 78.0961 28.0489C75.481 31.4845 73.8452 35.2597 73.0758 39.3603C73.0233 39.64 73 39.9243 73 40.2089V48.3374C73 48.6435 73.0272 48.9491 73.0876 49.2492C73.159 49.6039 73.2358 49.9587 73.3126 50.3134C73.9379 53.1083 74.9697 55.7295 76.7048 58.1138C79.1435 61.4772 80.0345 65.2669 80.0345 69.2618C80.0345 71.2356 80.0345 73.1936 80.0345 75.1674C80.0345 75.2622 80.0345 75.3569 80.0345 75.4517C80.0345 75.5938 80.0345 76.1622 80.0345 76.8254C80.0345 76.8254 80.0345 76.8254 80.0345 76.8254C80.0345 76.8254 80.0345 76.8412 80.0345 76.857C80.0345 77.7729 80.0345 78.8466 80.0345 79.0519C80.0345 83.2048 80.0345 87.3576 80.0501 91.5105C80.0501 91.5274 80.05 91.5439 80.0496 91.5601C80.0455 91.7376 80.2087 91.9842 80.3862 91.9842V91.9842C80.5638 91.9842 80.7223 91.7354 80.7223 91.5579V91.5579C80.7223 87.8313 80.7067 81.8942 80.7067 77.5518V76.1307C80.7067 75.9728 80.7067 75.7991 80.7067 75.6412V75.6412C80.7067 75.5468 80.7237 75.4535 80.7337 75.3597C80.7364 75.3349 80.738 75.3081 80.738 75.278C80.6911 72.4515 80.738 69.625 80.5816 66.8143C80.4097 63.7352 79.4561 60.7982 77.5959 58.2244C75.3136 55.0663 74.063 51.624 73.5784 47.8974C72.8906 42.6235 73.6409 37.5547 75.9858 32.6913C76.9393 30.7333 78.315 29.0279 79.5655 27.2278C82.0667 23.596 83.8331 19.6958 84.4272 15.385C84.521 14.6587 84.5679 13.9323 84.5835 13.206C84.5991 9.33733 84.5835 5.48447 84.5991 1.61583C84.5991 1.46711 84.585 1.32553 84.5614 1.19111C84.5416 1.07805 84.4403 1 84.3256 1H84.0528C84.0074 1 83.9708 1.03246 83.9909 1.07313V1.07313C84.0033 1.098 84.0088 1.14071 83.9943 1.16441C83.7774 1.51941 83.8644 2.50886 83.8644 2.73694V2.72115Z" fill="#19424B" fill-opacity="0.5"/>
<path d="M87.2803 51.1503C87.277 51.1503 87.275 51.1465 87.2768 51.1437C88.7289 48.9825 90.0239 46.7421 90.2269 44.1551C90.3653 42.4314 90.3827 40.6924 90.4576 38.9531C90.4597 38.9053 90.4215 38.8653 90.3736 38.8653V38.8653C90.3272 38.8653 90.2895 38.8277 90.2895 38.7813C90.2922 37.2618 90.3657 35.7424 90.2582 34.223C90.1957 33.1808 89.9768 32.1228 89.6798 31.1123C89.3203 29.8806 88.1166 29.1227 86.7097 29.0595C85.381 28.9964 84.1147 29.6911 83.5989 30.828C83.3488 31.3807 83.1455 31.9649 83.0205 32.5492C82.5984 34.3335 81.7855 35.9125 80.5662 37.3337C80.2536 37.6969 79.9722 38.1074 79.6908 38.5022C78.6122 40.0023 78.1901 41.6445 78.7373 43.3972C79.1906 44.8499 79.6908 46.2868 80.3161 47.6764C81.0665 49.3502 81.9106 51.0082 82.8329 52.603C83.5676 53.8662 84.8807 53.9925 85.9437 52.9346C86.4733 52.4153 86.8788 51.7706 87.2838 51.1567C87.2856 51.154 87.2836 51.1503 87.2803 51.1503V51.1503ZM83.4738 52.3424C83.4738 52.3447 83.4708 52.3456 83.4696 52.3436C82.9397 51.5089 82.4411 50.6584 82.0513 49.7765C81.1134 47.5816 80.1911 45.371 79.3938 43.1287C78.8623 41.6445 79.3 40.2075 80.2223 38.9127C80.4881 38.5495 80.7382 38.1864 81.0352 37.839C82.3952 36.2757 83.3019 34.523 83.7239 32.565C83.8021 32.1702 83.9584 31.7912 84.0991 31.4123C84.5212 30.2912 85.3653 29.7227 86.6315 29.7227C87.8196 29.7227 88.7575 30.307 89.0545 31.4439C89.3359 32.5334 89.5079 33.6545 89.586 34.7756C89.678 36.0924 89.6046 37.4243 89.6017 38.7416C89.6016 38.7838 89.63 38.818 89.6722 38.818V38.818C89.7157 38.818 89.7563 38.8543 89.7543 38.8979C89.6788 40.5608 89.6468 42.2237 89.5391 43.8867C89.4141 45.8763 88.6012 47.6764 87.5538 49.3817C87.0536 50.2028 86.5065 51.0082 85.9593 51.8135C85.7874 52.0661 85.5685 52.3188 85.3341 52.5398C84.6483 53.1381 83.9625 53.0928 83.4781 52.3413C83.4769 52.3393 83.4738 52.3401 83.4738 52.3424V52.3424Z" fill="#19424B" fill-opacity="0.5"/>
</g>
<path d="M103 100V29C103 23.4772 98.5228 19 93 19L32 19C26.4771 19 22 23.4772 22 29V100C22 105.523 26.4771 110 32 110H93C98.5228 110 103 105.523 103 100Z" fill="#19424B"/>
<path d="M26.3142 21C26.1622 21 26.0348 21.1146 26.0193 21.2659C26.0129 21.3289 26.0064 21.3913 26 21.4511V28.0558C26.2088 25.8123 26.4033 23.5688 26.6107 21.3253C26.6269 21.1507 26.4895 21 26.3142 21V21Z" fill="#112A2F"/>
<path d="M27.6445 96C27.1442 96.0483 26.9723 96.6444 27.0036 97.9331C27.0641 101.238 27.0953 104.543 27.1256 107.862C27.1273 108.046 27.277 108.195 27.4612 108.195V108.195C27.6481 108.195 27.799 108.042 27.7969 107.855C27.7514 103.899 27.7058 99.9572 27.6603 96.0156C27.6602 96.007 27.6531 96 27.6445 96V96Z" fill="#112A2F"/>
<path d="M64.4865 22.7266C64.4865 22.7266 64.4865 22.7266 64.4865 22.7266C64.4865 22.7266 64.4865 22.8056 64.4865 22.8372V24.5899C64.3927 26.6111 64.4083 28.6322 64.2207 30.6376C64.0175 32.943 63.1577 35.0589 61.7664 37.0011C61.2012 37.7881 60.6658 38.6052 60.0436 39.5262C60.0152 39.5682 60 39.6179 60 39.6686V40.5784C60 40.6534 60.115 40.6798 60.1563 40.6171V40.6171C61.1099 39.1486 62.126 37.7275 63.0639 36.2432C64.2363 34.3957 64.8147 32.3272 64.9867 30.2113C65.1468 28.094 65.1578 25.9631 65.1712 23.8312C65.1732 23.5166 65.2144 23.2026 65.2203 22.8881C65.2212 22.8399 65.2212 22.7962 65.2212 22.7582C65.1943 22.1351 65.202 20.3733 65.2146 19.4064C65.2175 19.1829 65.0375 19 64.8139 19V19C64.5902 19 64.4102 19.1839 64.4151 19.4076L64.4865 22.7108V22.7266Z" fill="#112A2F"/>
<path d="M58.4155 92.5957C58.4197 92.5957 58.4232 92.5925 58.4235 92.5883C58.4393 92.3693 58.4699 92.1353 58.4699 91.9167C58.4543 89.3903 58.4699 86.848 58.3917 84.3215C58.2916 81.6485 57.6548 79.0944 56.4455 76.6715C56.3557 76.4916 56.0938 76.5569 56.0938 76.7579V76.7579C56.0938 76.855 56.0753 76.9335 56.0384 77.0076C56.0161 77.0523 56 77.1003 56 77.1502V77.3859C56 77.4283 56.0393 77.4597 56.0806 77.4504V77.4504C56.1144 77.4428 56.1484 77.4627 56.1585 77.4959C56.5165 78.6753 57.0038 79.8254 57.2037 81.0213C57.5007 82.7109 57.6414 84.4163 57.7195 86.1216C57.7977 87.9533 57.7195 89.8008 57.7508 91.6483C57.7508 91.8924 57.6659 93.6338 57.6642 94.768C57.6633 95.4016 57.722 96.0491 57.7242 96.6827C57.7291 98.1139 57.7141 97.5269 57.7274 99.8122C57.7212 98.1038 57.8381 98.8582 57.7434 99.7701C57.7341 99.8593 57.7564 99.9494 57.8087 100.022V100.022C58.0102 100.304 58.4543 100.161 58.4543 99.8152V95.0906L58.4075 92.6039C58.4074 92.5994 58.411 92.5957 58.4155 92.5957V92.5957Z" fill="#112A2F"/>
<path d="M93.1237 46.874C93.1249 46.8752 93.1257 46.8768 93.126 46.8785C93.3917 48.4585 93.7041 49.9741 93.8759 51.4896C94.1104 53.4738 94.3449 55.4581 94.3605 57.4423C94.4074 61.8302 94.4074 66.2342 94.2824 70.622C94.1421 75.0283 93.2252 79.3223 91.9186 83.5201C91.9104 83.5464 91.9062 83.5739 91.9062 83.6015V84.6111C91.9062 84.7776 92.1698 84.8159 92.2189 84.6568V84.6568C94.0635 79.2365 95.0327 73.671 95.0327 67.9442C95.0327 64.5081 95.0327 61.0558 95.0327 57.6197C95.0327 54.4256 94.595 51.2638 93.9853 48.1342C93.9494 47.9489 93.7851 47.8014 93.6329 47.6483C93.5476 47.5624 93.5253 47.4353 93.564 47.3206C93.5903 47.2427 93.618 47.1595 93.6464 47.075C93.6818 46.9695 93.6035 46.8598 93.4923 46.8598H93.1298C93.1224 46.8598 93.1186 46.8687 93.1237 46.874V46.874Z" fill="#112A2F"/>
<path d="M91.9062 41.9818C91.9062 42.0073 91.9094 42.0327 91.9158 42.0574C92.1875 43.1187 92.4719 44.1802 92.7453 45.254C92.7845 45.4078 92.9016 45.5139 93.0595 45.4983V45.4983C93.2485 45.4796 93.4046 45.2963 93.366 45.1103C93.2842 44.7159 93.2033 44.3311 93.0943 43.956C92.9032 43.2699 92.7085 42.5838 92.5136 41.8977C92.4165 41.5557 91.9062 41.6263 91.9062 41.9818V41.9818Z" fill="#112A2F"/>
<path d="M95.4511 109.739C95.4814 109.881 95.6069 109.984 95.7527 109.984H96.0219C96.0973 109.984 96.1508 109.91 96.1276 109.839V109.839C95.1897 105.951 94.9083 101.999 95.0803 98.014C95.2678 93.368 96.0651 88.8188 97.7065 84.431C99.4729 79.7043 100.317 74.8002 100.395 69.7671C100.458 65.7986 100.411 61.814 100.395 57.8456C100.395 55.6839 100.411 53.5222 100.348 51.3606C100.239 47.5534 99.6449 43.8109 98.5662 40.165C97.5033 36.6322 96.8311 33.0186 96.3777 29.3567C95.9713 26.098 95.7368 22.8071 95.4242 19.5324C95.4184 19.467 95.4148 19.4017 95.4133 19.3364C95.4091 19.1554 95.2684 19 95.0874 19V19C94.9127 19 94.7729 19.145 94.7798 19.3196C94.9973 24.7767 95.6796 30.1873 96.7529 35.5513C97.1593 37.6001 97.769 39.6004 98.2849 41.6169C99.2072 45.2466 99.723 48.9408 99.723 52.6995C99.723 58.6038 99.8012 64.4919 99.7074 70.3962C99.6292 75.1229 98.7538 79.7527 97.0812 84.189C95.7993 87.5928 95.0177 91.0934 94.6426 94.6908C94.2205 98.7238 94.2518 102.773 94.8614 106.79C95.0057 107.788 95.2433 108.758 95.4511 109.739Z" fill="#112A2F"/>
<path d="M71.8644 20.737C71.8644 23.8003 71.7862 26.8636 71.88 29.9112C72.0051 33.8904 71.0359 37.6169 69.16 41.1539C68.269 42.8435 67.2685 44.5173 66.0961 46.0647C63.481 49.5003 61.8452 53.2755 61.0758 57.3761C61.0233 57.6558 61 57.9401 61 58.2247V66.3532C61 66.6593 61.0272 66.9649 61.0876 67.265C61.159 67.6197 61.2358 67.9745 61.3126 68.3292C61.9379 71.1241 62.9697 73.7453 64.7048 76.1296C67.1435 79.493 68.0345 83.2827 68.0345 87.2777C68.0345 89.2515 68.0345 91.2095 68.0345 93.1833C68.0345 93.278 68.0345 93.3727 68.0345 93.4675C68.0345 93.6096 68.0345 94.1781 68.0345 94.8412C68.0345 94.8412 68.0345 94.8412 68.0345 94.8412C68.0345 94.8412 68.0345 94.857 68.0345 94.8728C68.0345 95.7887 68.0345 96.8624 68.0345 97.0677C68.0345 101.221 68.0345 105.373 68.0501 109.526C68.0501 109.543 68.05 109.56 68.0496 109.576C68.0455 109.753 68.2087 110 68.3862 110V110C68.5638 110 68.7223 109.751 68.7223 109.574V109.574C68.7223 105.847 68.7067 99.91 68.7067 95.5676V94.1465C68.7067 93.9886 68.7067 93.8149 68.7067 93.657V93.657C68.7067 93.5626 68.7237 93.4693 68.7337 93.3755C68.7364 93.3508 68.738 93.3239 68.738 93.2938C68.6911 90.4673 68.738 87.6408 68.5816 84.8301C68.4097 81.751 67.4561 78.814 65.5959 76.2402C63.3136 73.0821 62.063 69.6398 61.5784 65.9133C60.8906 60.6393 61.6409 55.5706 63.9858 50.7071C64.9393 48.7491 66.315 47.0437 67.5655 45.2436C70.0667 41.6119 71.8331 37.7116 72.4272 33.4009C72.521 32.6745 72.5679 31.9481 72.5835 31.2218C72.5991 27.3531 72.5835 23.5003 72.5991 19.6316C72.5991 19.4829 72.585 19.3413 72.5614 19.2069C72.5416 19.0939 72.4403 19.0158 72.3256 19.0158H72.0528C72.0074 19.0158 71.9708 19.0483 71.9909 19.0889V19.0889C72.0033 19.1138 72.0088 19.1565 71.9943 19.1802C71.7774 19.5352 71.8644 20.5247 71.8644 20.7528V20.737Z" fill="#112A2F"/>
<path d="M84.4871 32.1613C84.49 32.1584 84.495 32.1604 84.495 32.1645C84.5279 37.0397 85.6377 41.6942 87.7933 46.1279C89.294 49.207 90.06 52.444 90.3257 55.7916C90.7791 61.3182 90.1538 66.7501 88.1998 72.0083C87.3556 74.2979 86.3708 76.5402 85.4954 78.8298C85.0889 79.872 84.8232 80.9615 84.4949 82.0352V82.0352C84.37 82.4454 84.3119 82.8781 84.2091 83.2943C84.0573 83.9093 83.9082 84.5596 83.8853 84.6406C83.1974 87.9882 82.8848 91.3831 82.8848 94.7939C82.8848 99.6573 82.8848 104.521 82.8848 109.384C82.8848 109.48 82.8848 109.563 82.8831 109.634C82.8792 109.794 83.0206 109.984 83.1808 109.984H83.2471C83.4083 109.984 83.5726 109.735 83.5726 109.574V109.574C83.5882 104.094 83.5726 98.5994 83.6039 93.1201C83.6351 90.1041 84.0416 87.1355 84.6825 84.1827C84.7294 83.9932 84.745 83.788 84.7763 83.5827C85.1827 82.2247 85.511 80.8352 86.0112 79.493C86.9648 76.9349 88.0747 74.4085 88.997 71.8504C90.9979 66.3238 91.5763 60.6551 90.951 54.8758C90.5759 51.4019 89.4972 48.1333 87.9965 44.9278C86.1519 40.9802 85.2296 36.8116 85.1984 32.5008C85.1679 28.1362 85.1967 23.7566 85.1983 19.3911C85.1984 19.1926 85.0374 19.0316 84.8388 19.0316H84.5582C84.5146 19.0316 84.4793 19.0669 84.4793 19.1105V19.1105C84.4793 23.465 84.4637 27.8194 84.4792 32.1581C84.4793 32.1622 84.4842 32.1642 84.4871 32.1613V32.1613ZM84.9781 82.4561C84.9806 82.4586 84.9813 82.4606 84.9782 82.4623V82.4623C84.9694 82.467 84.9629 82.4664 84.97 82.4594C84.9736 82.4557 84.9765 82.4545 84.9781 82.4561Z" fill="#112A2F"/>
<path d="M77.7736 31.7981C77.7808 31.7945 77.7893 31.7997 77.7894 31.8078C77.8229 35.3544 78.5576 38.775 79.9778 42.0698C80.603 43.5383 81.4159 44.9436 81.963 46.4437C83.3543 50.186 83.6826 54.0547 83.5106 57.9865C83.323 62.1236 82.5102 66.1659 81.0251 70.0661C80.1028 72.4978 79.0711 74.9138 78.2269 77.3613C77.1483 80.5036 76.4918 83.7564 75.9915 87.0092C75.9791 87.0972 75.9766 87.1952 75.9681 87.3032C75.9639 87.3583 75.9269 87.4086 75.9155 87.4627V87.4627C75.9123 87.4778 75.9119 87.4906 75.9091 87.5057C75.8346 87.9052 75.8196 88.2143 75.8196 88.4777C75.757 89.6462 75.5382 91.8727 75.5382 92.9938C75.5226 98.3467 75.5382 103.7 75.5382 109.068V109.577C75.5382 109.785 75.7062 109.953 75.9134 109.953H75.9552C76.1393 109.953 76.2573 109.805 76.2573 109.621V109.621C76.2573 103.779 76.2573 97.9204 76.2573 92.0779C76.2573 91.5884 76.3667 90.0568 76.4136 89.5673C76.4502 89.3083 76.5155 88.529 76.5497 87.9971C76.5657 87.7495 76.5931 87.5026 76.6379 87.2587C76.8901 85.8854 77.1113 84.5367 77.3984 83.1879C78.2582 79.0824 79.5713 75.1033 81.2752 71.2346C82.8228 67.7292 83.6357 64.0342 84.0578 60.2603C84.4486 56.8496 84.386 53.4546 83.7139 50.0755C83.2449 47.7069 82.5258 45.3858 81.3378 43.2383C79.7745 40.4276 79.0086 37.3958 78.649 34.3009C78.4614 32.6587 78.4927 30.9849 78.4771 29.3427C78.462 26.0203 78.476 22.6978 78.477 19.3753C78.4771 19.1768 78.3161 19.0158 78.1175 19.0158V19.0158C77.9189 19.0158 77.758 19.1768 77.7579 19.3753C77.7554 23.5131 77.7125 27.6508 77.7578 31.7885C77.7579 31.7966 77.7664 31.8018 77.7736 31.7981V31.7981Z" fill="#112A2F"/>
<path d="M75.2803 69.1661C75.277 69.1661 75.275 69.1623 75.2768 69.1595C76.7289 66.9983 78.0239 64.758 78.2269 62.1709C78.3653 60.4472 78.3827 58.7082 78.4576 56.9689C78.4597 56.9211 78.4215 56.8812 78.3736 56.8812V56.8812C78.3272 56.8812 78.2895 56.8435 78.2895 56.7971C78.2922 55.2776 78.3657 53.7582 78.2582 52.2388C78.1957 51.1966 77.9768 50.1387 77.6798 49.1281C77.3203 47.8964 76.1166 47.1385 74.7097 47.0753C73.381 47.0122 72.1147 47.7069 71.5989 48.8438C71.3488 49.3965 71.1455 49.9808 71.0205 50.565C70.5984 52.3493 69.7855 53.9283 68.5662 55.3495C68.2536 55.7127 67.9722 56.1232 67.6908 56.518C66.6122 58.0181 66.1901 59.6603 66.7373 61.413C67.1906 62.8657 67.6908 64.3026 68.3161 65.6922C69.0665 67.366 69.9106 69.024 70.8329 70.6188C71.5676 71.882 72.8807 72.0083 73.9437 70.9504C74.4733 70.4311 74.8788 69.7864 75.2838 69.1726C75.2856 69.1698 75.2836 69.1661 75.2803 69.1661V69.1661ZM71.4738 70.3582C71.4738 70.3605 71.4708 70.3614 71.4696 70.3595C70.9397 69.5247 70.4411 68.6742 70.0513 67.7923C69.1134 65.5974 68.1911 63.3868 67.3938 61.1446C66.8623 59.6603 67.3 58.2233 68.2223 56.9285C68.4881 56.5653 68.7382 56.2022 69.0352 55.8548C70.3952 54.2915 71.3019 52.5388 71.7239 50.5808C71.8021 50.186 71.9584 49.8071 72.0991 49.4281C72.5212 48.307 73.3653 47.7385 74.6315 47.7385C75.8196 47.7385 76.7575 48.3228 77.0545 49.4597C77.3359 50.5492 77.5079 51.6703 77.586 52.7914C77.678 54.1082 77.6046 55.4401 77.6017 56.7574C77.6016 56.7996 77.63 56.8338 77.6722 56.8338V56.8338C77.7157 56.8338 77.7563 56.8702 77.7543 56.9137C77.6788 58.5766 77.6468 60.2396 77.5391 61.9025C77.4141 63.8921 76.6012 65.6922 75.5538 67.3975C75.0536 68.2186 74.5065 69.024 73.9593 69.8293C73.7874 70.0819 73.5685 70.3346 73.3341 70.5556C72.6483 71.1539 71.9625 71.1086 71.4781 70.3571C71.4769 70.3551 71.4738 70.3559 71.4738 70.3582V70.3582Z" fill="#112A2F"/>
<path d="M38.5069 100.85C38.46 95.969 38.5538 91.0719 38.4756 86.1908C38.3037 74.3829 39.5074 64.1859 42.1023 55.4548C42.6494 53.6183 43.0559 53.7955 43.2435 56.2119C43.4467 58.9988 43.5092 61.8823 43.603 64.7336C43.9 72.9009 44.1345 81.0843 44.5097 89.2193C44.7129 93.3593 45.2444 97.3544 45.5101 101.478C45.6752 104.139 45.653 106.903 45.6925 109.643C45.6952 109.832 45.8495 109.984 46.0388 109.984V109.984C46.2303 109.984 46.3855 109.829 46.3855 109.637C46.3855 109.302 46.3855 108.966 46.3855 108.631C46.3855 104.04 46.1823 99.5291 45.6977 95.1797C44.9161 88.3494 44.791 81.1809 44.5722 74.0768C44.3846 68.4225 44.2127 62.7522 44.0094 57.0979C43.9782 56.373 43.9156 55.6642 43.8218 54.9876C43.3841 51.653 42.5556 51.1536 41.7584 53.7472C38.7726 63.3804 37.5533 74.8662 37.866 88.0434C37.9598 92.119 37.8503 96.2429 37.866 100.351C37.881 103.388 37.9394 106.41 37.9995 109.604C38.0035 109.815 38.1757 109.984 38.3868 109.984V109.984C38.6061 109.984 38.7817 109.802 38.7737 109.583C38.6667 106.672 38.5368 103.761 38.5069 100.85Z" fill="#112A2F"/>
<path d="M52.4662 19.3423C52.4571 19.1506 52.2988 19 52.1068 19V19C51.9017 19 51.738 19.1711 51.7472 19.376C51.9337 23.5177 52.1925 27.63 52.4808 31.7423C52.5196 32.2623 52.7084 32.7051 52.8698 33.1437C52.9358 33.323 52.9526 33.5158 52.9285 33.7053C52.8847 34.0493 52.8356 34.4424 52.7854 34.8455C52.7648 35.0111 52.8939 35.1574 53.0608 35.1574V35.1574C53.2209 35.1574 53.3478 35.0222 53.3377 34.8624C53.0761 30.7174 52.7738 26.7669 52.6059 22.7856C52.5632 21.6431 52.5206 20.4873 52.4662 19.3423Z" fill="#112A2F"/>
<path d="M55 60.8023C54.623 53.7729 54.2267 46.7435 53.8486 39.6108C53.8331 39.3178 53.5661 39.1192 53.2994 39.2414V39.2414C53.1425 39.3132 53.0051 39.4886 53.0128 39.661C53.1503 42.7453 53.2708 45.7591 53.449 48.7024C53.9592 57.4683 54.4898 66.2341 55 75V60.8397V60.8023Z" fill="#112A2F"/>
<path d="M32.5507 19C32.559 19 32.5656 19.0072 32.5647 19.0156C32.3306 21.2978 32.0654 23.564 31.7847 25.8302C30.7686 34.2875 29.6118 42.6159 28.9865 51.3953C28.2518 61.689 27.7828 72.0632 27.5484 82.518C27.4858 85.1115 27.4546 87.7212 27.4077 90.3309V90.3309C27.3871 91.2964 28.0468 91.0378 28.0625 90.0721C28.1001 87.7534 28.1398 85.4367 28.1893 83.1301C28.5019 68.487 29.1741 53.9727 30.7373 39.8451C31.4252 33.5787 32.2849 27.4572 32.9727 21.1908C33.0281 20.6773 33.0756 20.1558 33.1264 19.6376C33.1598 19.2969 32.893 19 32.5507 19V19V19Z" fill="#112A2F"/>
<path d="M38.7406 19C38.7317 19 38.7244 19.0068 38.7236 19.0156C38.2548 24.2457 37.6612 29.4115 36.9273 34.4969C35.0514 47.3841 34.0978 60.6902 33.6445 74.3507C33.2849 85.0471 33.1599 95.7435 33.4413 106.456C33.4697 107.525 33.511 108.58 33.5535 109.67C33.5607 109.854 33.7119 110 33.8961 110V110C34.0913 110 34.2471 109.837 34.2387 109.642C34.1346 107.232 34.0338 104.822 34.004 102.397C33.7852 84.6927 34.2229 67.1177 35.7705 49.8488C36.2394 44.71 36.9898 39.7646 37.6463 34.7708C38.3073 29.7709 38.8672 24.7264 39.3122 19.623C39.3414 19.2879 39.077 19 38.7406 19V19V19Z" fill="#112A2F"/>
<path d="M48.1826 49.3011C47.2603 39.539 46.7444 29.632 46.7444 19.5638C46.7444 19.4806 46.7444 19.4003 46.7444 19.3205C46.7444 19.1435 46.601 19 46.424 19V19C46.247 19 46.1035 19.1435 46.1035 19.3204C46.1036 20.5851 46.1047 21.8614 46.1191 23.1239C46.2286 33.3371 46.8226 43.373 47.9012 53.1673C48.9642 62.6716 49.6364 72.3693 50.0897 82.1636C50.4962 90.9269 50.7306 99.7547 51.0433 108.55C51.0554 108.911 51.0581 109.281 51.0516 109.653C51.0484 109.834 51.1934 109.984 51.3746 109.984V109.984C51.5535 109.984 51.6979 109.838 51.6953 109.659C51.4866 94.82 50.8009 80.1242 49.7146 65.5713C49.3081 60.0942 48.6985 54.7138 48.1826 49.285V49.3011Z" fill="#112A2F"/>
<path d="M27.5 96.8389C27.5313 95.7113 27.5469 94.8092 27.5782 93.9071C27.5782 93.7138 27.672 93.4399 27.7345 93.4077C27.797 93.3755 27.9221 93.5205 27.969 93.6815C28.202 94.4659 28.0028 96.1728 27.5095 96.8424C27.5064 96.8465 27.5 96.8441 27.5 96.8389V96.8389Z" fill="#112A2F"/>
<defs>
<clipPath id="clip0_352_238">
<rect width="81" height="91" rx="10" fill="white"/>
</clipPath>
</defs>
</svg>
