<svg width="99" height="102" viewBox="0 0 99 102" fill="none" xmlns="http://www.w3.org/2000/svg">
<path d="M99 96.3546V5C99 2.23858 96.7614 0 94 0L73 0C70.2386 0 68 2.23857 68 4.99999V96.3546C68 99.116 70.2386 101.355 73 101.355H94C96.7614 101.355 99 99.1161 99 96.3546Z" fill="#19424B" fill-opacity="0.75"/>
<path d="M69.2256 0.914062C69.0702 0.914062 68.9403 1.03178 68.9256 1.18644C68.9185 1.26113 68.9114 1.33545 68.9043 1.40625V8.61322C69.1171 6.15637 69.3154 3.69952 69.527 1.24267C69.5423 1.06596 69.403 0.914062 69.2256 0.914062V0.914062Z" fill="#19424B" fill-opacity="0.5"/>
<path d="M70.9536 86.8887C70.4454 86.9414 70.2707 87.5918 70.3024 88.998C70.364 92.6124 70.3958 96.2267 70.4266 99.857C70.4282 100.044 70.5804 100.195 70.7677 100.195V100.195C70.9574 100.195 71.1107 100.04 71.1087 99.8505C71.0623 95.5244 71.016 91.2145 70.9696 86.9046C70.9695 86.8958 70.9624 86.8887 70.9536 86.8887V86.8887Z" fill="#19424B" fill-opacity="0.5"/>
<path d="M81.6097 90.2284C81.562 84.9023 81.6573 79.5586 81.5779 74.2325C81.4032 61.3478 82.626 50.221 85.2623 40.6937C85.8182 38.6898 86.2311 38.8832 86.4216 41.5199C86.6281 44.5608 86.6916 47.7073 86.7869 50.8186C87.0886 59.7306 87.3269 68.6603 87.708 77.5371C87.9145 82.0547 88.4544 86.414 88.7244 90.914C88.8926 93.8251 88.8694 96.8504 88.91 99.8485C88.9126 100.041 89.0694 100.195 89.2617 100.195V100.195C89.4561 100.195 89.6138 100.038 89.6138 99.8431C89.6138 99.4683 89.6138 99.0934 89.6138 98.7186C89.6138 93.7089 89.4073 88.787 88.915 84.041C88.1209 76.5879 87.9939 68.7657 87.7715 61.0138C87.581 54.844 87.4063 48.6565 87.1998 42.4866C87.1681 41.6956 87.1045 40.9222 87.0092 40.1839C86.5646 36.5453 85.7229 36.0004 84.9129 38.8304C81.8796 49.3421 80.6409 61.8752 80.9585 76.2539C81.0538 80.7012 80.9426 85.2011 80.9585 89.6835C80.9738 93.0064 81.0335 96.313 81.0947 99.8082C81.0984 100.023 81.2736 100.195 81.4884 100.195V100.195C81.711 100.195 81.8893 100.011 81.8817 99.7882C81.7729 96.6016 81.6401 93.415 81.6097 90.2284Z" fill="#19424B" fill-opacity="0.5"/>
<path d="M95.7913 1.26304C95.7826 1.06773 95.6216 0.914062 95.4261 0.914062V0.914062C95.2182 0.914062 95.052 1.08716 95.0607 1.29493C95.2502 5.82427 95.5137 10.3213 95.8072 14.8182C95.847 15.391 96.042 15.8778 96.207 16.3608C96.271 16.5482 96.2873 16.7478 96.2639 16.9444C96.2181 17.3303 96.1665 17.7739 96.1139 18.2283C96.0943 18.3969 96.2261 18.5448 96.3958 18.5448V18.5448C96.559 18.5448 96.6886 18.4073 96.679 18.2444C96.4129 13.7136 96.1052 9.39605 95.9343 5.04489C95.8907 3.79001 95.8471 2.52041 95.7913 1.26304Z" fill="#19424B" fill-opacity="0.5"/>
<path d="M97.9333 32.7655C97.6429 29.5003 97.3378 26.235 97.0462 22.9228C97.0285 22.7212 96.8634 22.5777 96.6685 22.6322V22.6322C96.5178 22.6743 96.3854 22.8243 96.3969 22.9803C96.4998 24.3805 96.592 25.7497 96.7263 27.0879C97.1234 31.2011 97.5363 35.3143 97.9333 39.4276V32.7831V32.7655Z" fill="#19424B" fill-opacity="0.5"/>
<path d="M75.5584 0.914062C75.5669 0.914062 75.5736 0.921396 75.5727 0.929872C75.3349 3.4206 75.0655 5.89386 74.7802 8.36713C73.7479 17.5956 72.5727 26.6834 71.9375 36.2634C71.1911 47.4957 70.7146 58.8159 70.4764 70.224C70.4129 73.0541 70.3811 75.9017 70.3335 78.7494V78.7494C70.313 79.7826 70.9827 79.5297 70.9983 78.4964C71.0367 75.9564 71.0771 73.4186 71.1275 70.892C71.4452 54.9136 72.128 39.0759 73.7162 23.66C74.4149 16.8221 75.2884 10.1425 75.9872 3.30467C76.045 2.72865 76.0944 2.14332 76.1476 1.56224C76.1794 1.21512 75.907 0.914062 75.5584 0.914062V0.914062V0.914062Z" fill="#19424B" fill-opacity="0.5"/>
<path d="M81.847 0.914062C81.838 0.914062 81.8305 0.920947 81.8298 0.929891C81.3535 6.63733 80.7505 12.2746 80.0047 17.8241C78.099 31.8865 77.1303 46.4059 76.6697 61.312C76.3044 72.9838 76.1774 84.6555 76.4633 96.3449C76.4923 97.5188 76.5347 98.6779 76.5781 99.8762C76.5849 100.064 76.7388 100.212 76.9263 100.212V100.212C77.1243 100.212 77.2824 100.047 77.2745 99.8496C77.1683 97.2107 77.0653 94.571 77.035 91.9153C76.8126 72.5971 77.2573 53.4195 78.8295 34.5759C79.306 28.9685 80.0683 23.5721 80.7353 18.1229C81.4086 12.6519 81.9787 7.13195 82.4314 1.5473C82.4591 1.20602 82.1894 0.914062 81.847 0.914062V0.914062V0.914062Z" fill="#19424B" fill-opacity="0.5"/>
<path d="M91.4403 33.9782C90.5033 23.326 89.9792 12.5155 89.9792 1.52929C89.9792 1.43007 89.9792 1.33473 89.9792 1.23962C89.9792 1.05982 89.8335 0.914062 89.6537 0.914062V0.914062C89.4739 0.914062 89.3281 1.05981 89.3281 1.23961C89.3282 2.62751 89.3293 4.02833 89.344 5.41402C89.4552 16.5585 90.0586 27.5095 91.1544 38.197C92.2344 48.568 92.9173 59.1499 93.3778 69.8373C93.7907 79.3997 94.0289 89.0325 94.3466 98.63C94.3591 99.0314 94.3617 99.4436 94.3545 99.8582C94.3513 100.042 94.4988 100.194 94.683 100.194V100.194C94.8649 100.194 95.0117 100.046 95.0093 99.8638C94.7977 83.6638 94.1008 67.6199 92.9967 51.732C92.5838 45.7555 91.9644 39.8844 91.4403 33.9607V33.9782Z" fill="#19424B" fill-opacity="0.5"/>
<path d="M70.4277 85.8506C70.4595 84.6201 70.4754 83.6358 70.5071 82.6514C70.5071 82.4405 70.6024 82.1417 70.6659 82.1065C70.7295 82.0713 70.8565 82.2295 70.9042 82.4053C71.1408 83.2611 70.9386 85.1232 70.4376 85.8541C70.4345 85.8585 70.4277 85.856 70.4277 85.8506V85.8506Z" fill="#19424B" fill-opacity="0.5"/>
<path d="M4.85867 5.81831C4.85867 5.81831 4.85867 5.81831 4.85867 5.81831C4.85867 5.81831 4.85867 5.9062 4.85867 5.94136V7.89251C4.76338 10.1425 4.77926 12.3925 4.58869 14.6249C4.38224 17.1913 3.50877 19.5467 2.09535 21.7088C1.51954 22.5873 0.974237 23.4995 0.33988 24.5282C0.314365 24.5696 0.300781 24.6173 0.300781 24.6659V25.6978C0.300781 25.7744 0.420065 25.7998 0.459593 25.7342V25.7342C1.42834 24.0994 2.46062 22.5174 3.41349 20.8651C4.60457 18.8084 5.19217 16.5057 5.36687 14.1503C5.53168 11.7622 5.541 9.35845 5.55486 6.95383C5.55652 6.6661 5.59082 6.37914 5.60165 6.09161C5.60508 6.00038 5.60508 5.91931 5.60508 5.85347C5.57664 5.1294 5.57367 1.68496 5.58476 0.366934C5.58647 0.164444 5.423 0 5.2205 0V0C5.02067 0 4.85867 0.161996 4.85867 0.361829V5.80073V5.81831Z" fill="#19424B" fill-opacity="0.5"/>
<path d="M11.3382 1.93358C11.3382 5.34371 11.2588 8.75383 11.3541 12.1464C11.4811 16.576 10.4965 20.7244 8.59074 24.6619C7.68552 26.5427 6.66912 28.406 5.47804 30.1287C2.8052 33.9763 1.1394 38.2066 0.36366 42.8033C0.320374 43.0598 0.300781 43.3197 0.300781 43.5799V52.8056C0.300781 53.0854 0.323584 53.3649 0.373574 53.6403C0.450635 54.0647 0.53452 54.4892 0.618404 54.9136C1.25365 58.0249 2.30181 60.9428 4.06461 63.5971C6.54207 67.3412 7.4473 71.5599 7.4473 76.0072C7.4473 78.2044 7.4473 80.3841 7.4473 82.5813C7.4473 82.6868 7.4473 82.7923 7.4473 82.8977C7.4473 83.0559 7.4473 83.6888 7.4473 84.427C7.4473 84.427 7.4473 84.427 7.4473 84.427C7.4473 84.427 7.4473 84.4446 7.4473 84.4622C7.4473 85.4817 7.4473 86.677 7.4473 86.9055C7.4473 91.5285 7.4473 96.1515 7.46318 100.775C7.46318 100.807 7.46261 100.839 7.46144 100.869C7.45427 101.055 7.61838 101.302 7.80462 101.302V101.302C7.99087 101.302 8.15008 101.057 8.14648 100.871C8.1462 100.857 8.14607 100.842 8.14607 100.827C8.14607 96.6789 8.13019 90.0696 8.13019 85.2356V83.6536C8.13019 83.4778 8.13019 83.2845 8.13019 83.1087V83.1087C8.13019 83.0035 8.14753 82.8995 8.15771 82.7948C8.16037 82.7674 8.16195 82.7377 8.16195 82.7044C8.11431 79.5579 8.16195 76.4115 8.00314 73.2826C7.82845 69.8549 6.8597 66.5854 4.96984 63.7202C2.65119 60.2046 1.3807 56.3726 0.888384 52.2242C0.189613 46.3531 0.951908 40.7106 3.33408 35.2966C4.30283 33.1169 5.70037 31.2185 6.97086 29.2146C9.51185 25.1717 11.3064 20.8299 11.9099 16.0311C12.0052 15.2225 12.0528 14.4139 12.0687 13.6054C12.0846 9.29875 12.0687 5.00972 12.0846 0.703119C12.0846 0.533468 12.0695 0.37217 12.0445 0.219227C12.0251 0.100646 11.9199 0.0175781 11.7997 0.0175781H11.539C11.4877 0.0175781 11.4465 0.0546776 11.4678 0.101395V0.101395C11.4801 0.128409 11.4854 0.173471 11.4709 0.199361C11.2496 0.593485 11.3382 1.69699 11.3382 1.95116V1.93358Z" fill="#19424B" fill-opacity="0.5"/>
<path d="M2.66099 88.2596C2.66528 88.2596 2.66882 88.2563 2.6691 88.252C2.68514 88.0081 2.71625 87.7473 2.71625 87.5038C2.70037 84.6913 2.71625 81.8612 2.63685 79.0488C2.5353 76.0782 1.89043 73.2397 0.665929 70.5466C0.578849 70.355 0.302318 70.4185 0.302318 70.6289V70.6289C0.302318 70.7389 0.28289 70.8274 0.244032 70.9112C0.222397 70.9578 0.207031 71.0076 0.207031 71.0591V71.3365C0.207031 71.3789 0.24684 71.4101 0.28806 71.4V71.4C0.322502 71.3915 0.357409 71.412 0.366872 71.4462C0.73075 72.7606 1.22659 74.0422 1.42988 75.375C1.73162 77.2558 1.87455 79.1542 1.95396 81.0526C2.03336 83.0917 1.95396 85.1483 1.98572 87.2049C1.98572 87.4904 1.8905 89.6157 1.89818 90.864C1.90176 91.4467 1.95578 92.0381 1.95778 92.6208C1.96702 95.3125 1.95552 97.9927 1.96984 100.687C1.96984 100.697 1.9698 100.706 1.96971 100.716C1.96757 100.95 2.18366 101.267 2.4182 101.267V101.267C2.57404 101.267 2.70037 101.141 2.70037 100.985V91.0369L2.65287 88.2679C2.65279 88.2633 2.65645 88.2596 2.66099 88.2596V88.2596Z" fill="#19424B" fill-opacity="0.5"/>
<path d="M24.1621 14.6512C24.1649 14.6481 24.17 14.6501 24.1701 14.6543C24.2034 20.0816 25.3309 25.2631 27.5209 30.199C29.0455 33.6267 29.8237 37.2302 30.0937 40.9567C30.5542 47.109 29.919 53.1558 27.9338 59.0093C27.0762 61.5581 26.0757 64.0542 25.1864 66.603C24.7735 67.7631 24.5035 68.976 24.17 70.1713V70.1713C24.0425 70.6298 23.9841 71.1094 23.8795 71.5736C23.7253 72.2581 23.5739 72.9814 23.5506 73.0717C22.8519 76.7982 22.5342 80.5775 22.5342 84.3743C22.5342 89.7883 22.5342 95.2023 22.5342 100.616C22.5342 100.736 22.5342 100.837 22.5317 100.924C22.5268 101.092 22.671 101.284 22.8391 101.284H22.8642C23.049 101.284 23.233 101.012 23.233 100.827V100.827C23.2489 94.7277 23.233 88.6106 23.2648 82.511C23.2965 79.1536 23.7094 75.849 24.3606 72.5619C24.4082 72.351 24.4241 72.1224 24.4558 71.8939C24.8688 70.3822 25.2023 68.8354 25.7105 67.3412C26.6792 64.4936 27.8068 61.6811 28.7438 58.8335C30.7765 52.6812 31.3641 46.3707 30.7289 39.9372C30.3478 36.07 29.252 32.4314 27.7274 28.863C25.8534 24.4685 24.9164 19.828 24.8846 15.0292C24.8537 10.1588 24.8831 5.27163 24.8846 0.400414C24.8846 0.198683 24.7211 0.0351562 24.5194 0.0351562H24.242C24.1935 0.0351562 24.1541 0.0745059 24.1541 0.123046V0.123046C24.1541 4.9706 24.1383 9.81815 24.1541 14.6482C24.1541 14.6524 24.1592 14.6543 24.1621 14.6512V14.6512ZM24.6614 70.6405C24.663 70.6435 24.6641 70.6448 24.6612 70.6465V70.6465C24.6525 70.6517 24.6457 70.651 24.6525 70.6436C24.6567 70.639 24.6599 70.6377 24.6614 70.6405Z" fill="#19424B" fill-opacity="0.5"/>
<path d="M17.3425 14.247C17.3497 14.243 17.3585 14.2482 17.3585 14.2564C17.3924 18.2049 18.1388 22.0133 19.5818 25.6814C20.217 27.3162 21.0428 28.8806 21.5987 30.5505C23.0121 34.7165 23.3456 39.0231 23.1709 43.4C22.9803 48.0055 22.1545 52.5054 20.6458 56.8472C19.7088 59.5542 18.6607 62.2436 17.8031 64.9682C16.7073 68.4662 16.0403 72.0873 15.5321 75.7083C15.5194 75.8066 15.5168 75.9161 15.5082 76.0367C15.5039 76.0975 15.466 76.1539 15.4547 76.2138V76.2138C15.4517 76.2299 15.4512 76.2439 15.4485 76.26C15.3727 76.7052 15.3574 77.0496 15.3574 77.3431C15.2938 78.6439 15.0715 81.1224 15.0715 82.3704C15.0556 88.3293 15.0715 94.2883 15.0715 100.265V100.868C15.0715 101.079 15.2422 101.249 15.4527 101.249H15.463C15.6678 101.249 15.802 101.085 15.802 100.88V100.88C15.802 94.3762 15.802 87.8547 15.802 81.3509C15.802 80.806 15.9132 79.1009 15.9609 78.556C16.0085 78.1868 16.1038 76.8685 16.1197 76.3939C16.4055 74.724 16.6437 73.0892 16.9614 71.4545C17.8348 66.8842 19.1688 62.4546 20.8999 58.148C22.4721 54.2456 23.2979 50.1324 23.7267 45.9313C24.1238 42.1344 24.0602 38.3551 23.3774 34.5935C22.9009 31.9568 22.1704 29.3728 20.9634 26.9822C19.3753 23.8533 18.5971 20.4783 18.2319 17.0331C18.0413 15.205 18.073 13.3417 18.0572 11.5136C18.0418 7.80333 18.0562 4.09309 18.0571 0.382845C18.0572 0.181114 17.8936 0.0175781 17.6919 0.0175781V0.0175781C17.4902 0.0175781 17.3266 0.181114 17.3265 0.382845C17.3243 5.0011 17.2803 9.61936 17.3265 14.2376C17.3265 14.2458 17.3353 14.2509 17.3425 14.247V14.247Z" fill="#19424B" fill-opacity="0.5"/>
<path d="M14.8088 55.846C14.8053 55.846 14.8032 55.8422 14.805 55.8392C16.2803 53.4331 17.5961 50.939 17.8024 48.059C17.9432 46.1372 17.9607 44.1984 18.037 42.2594C18.039 42.2108 18.0002 42.1703 17.9516 42.1703V42.1703C17.9043 42.1703 17.8659 42.132 17.866 42.0848C17.8685 40.3906 17.9435 38.6965 17.8341 37.0024C17.7706 35.8423 17.5483 34.6645 17.2465 33.5396C16.8813 32.1685 15.6584 31.3247 14.2291 31.2544C12.8792 31.1841 11.5928 31.9575 11.0688 33.2232C10.8147 33.8384 10.6082 34.4888 10.4812 35.1392C10.0524 37.1255 9.22656 38.8833 7.98783 40.4653C7.67021 40.8696 7.38435 41.3266 7.09848 41.7661C6.00269 43.436 5.57389 45.2641 6.12973 47.2152C6.59029 48.8324 7.09848 50.432 7.73373 51.9789C8.49602 53.8421 9.35361 55.6878 10.2906 57.4632C11.037 58.8694 12.371 59.01 13.4509 57.8323C13.9891 57.2542 14.4011 56.5363 14.8126 55.8528C14.8144 55.8498 14.8123 55.846 14.8088 55.846V55.846ZM10.9417 57.1731C10.9417 57.1755 10.9385 57.1764 10.9373 57.1743C10.399 56.2451 9.89248 55.2984 9.49654 54.3167C8.54367 51.8734 7.60668 49.4125 6.79674 46.9164C6.25678 45.2641 6.70146 43.6645 7.63844 42.2231C7.90842 41.8188 8.16252 41.4145 8.46426 41.0278C9.84592 39.2876 10.767 37.3364 11.1958 35.1567C11.2752 34.7173 11.434 34.2954 11.577 33.8735C12.0058 32.6255 12.8633 31.9927 14.1497 31.9927C15.3567 31.9927 16.3096 32.6431 16.6113 33.9087C16.8972 35.1216 17.0718 36.3696 17.1513 37.6176C17.2449 39.0859 17.1698 40.5711 17.1672 42.0399C17.1671 42.0828 17.196 42.1176 17.239 42.1176V42.1176C17.2832 42.1176 17.3244 42.1544 17.3226 42.1986C17.2456 44.0525 17.2132 45.9063 17.1036 47.7601C16.9766 49.975 16.1507 51.9789 15.0867 53.8773C14.5785 54.7913 14.0227 55.6878 13.4668 56.5843C13.2921 56.8655 13.0698 57.1468 12.8316 57.3929C12.1349 58.0588 11.4383 58.0084 10.9462 57.172C10.945 57.17 10.9417 57.1707 10.9417 57.1731V57.1731Z" fill="#19424B" fill-opacity="0.5"/>
<path d="M0 5.01757L0 96.3722C0 99.1336 2.23858 101.372 5 101.372H26C28.7614 101.372 31 99.1336 31 96.3722L31 5.01758C31 2.25615 28.7614 0.0175781 26 0.0175781H5C2.23858 0.0175781 0 2.25614 0 5.01757Z" fill="#19424B" fill-opacity="0.3"/>
<path d="M34 4.99999L34 96.3546C34 99.116 36.2386 101.355 39 101.355H60C62.7614 101.355 65 99.116 65 96.3546V5C65 2.23857 62.7614 0 60 0H39C36.2386 0 34 2.23856 34 4.99999Z" fill="#19424B" fill-opacity="0.55"/>
<path d="M61.0472 55.2646C61.079 58.6396 61.079 61.997 61.1902 65.3719C61.2696 67.9559 61.9842 70.4344 62.5718 72.9305C63.2547 75.8308 63.7788 78.7664 64.0964 81.737V77.6232C64.0964 77.2614 64.0572 76.9006 63.9789 76.5474C63.3779 73.8376 62.7471 71.0968 62.2701 68.325C61.8889 66.1629 61.7619 63.9305 61.6984 61.7333C61.619 58.4462 61.6666 55.1416 61.7301 51.8545C61.7936 47.9873 62.5877 44.2256 63.4453 40.4815C63.6485 39.6336 63.8518 38.7856 64.0853 37.9544C64.0927 37.9283 64.0964 37.9014 64.0964 37.8743V37.8743C64.0964 37.5228 63.5889 37.4656 63.5103 37.8082C62.8567 40.6566 62.2017 43.4994 61.6031 46.3526C60.9837 49.2881 61.0155 52.2939 61.0472 55.2822V55.2646Z" fill="#19424B" fill-opacity="0.5"/>
<path d="M62.0475 6.09871C62.5557 6.08113 62.7304 5.83504 62.6986 5.3077C62.6402 4.02989 62.6086 2.75207 62.5792 1.47426C62.5749 1.28939 62.4239 1.14172 62.2389 1.14172V1.14172C62.0471 1.14172 61.8932 1.30013 61.8988 1.49185C61.9429 3.02218 61.987 4.55251 62.0311 6.08284C62.0314 6.09168 62.0386 6.09871 62.0475 6.09871V6.09871Z" fill="#19424B" fill-opacity="0.5"/>
<path d="M51.4084 4.37607C51.456 6.09871 51.3607 7.83893 51.4402 9.56157C51.6148 13.7451 50.392 17.3662 47.7557 20.4423C47.1999 21.0927 46.787 21.0224 46.5964 20.1787C46.39 19.1943 46.3264 18.1748 46.2311 17.1553C45.9294 14.2725 45.6912 11.3545 45.31 8.48932C45.1036 7.01277 44.5636 5.60653 44.2936 4.14756C44.1387 3.2746 44.1462 2.374 44.1166 1.48253C44.1103 1.29169 43.9529 1.14172 43.762 1.14172V1.14172C43.5644 1.14172 43.4043 1.30187 43.4043 1.49941C43.4043 1.53838 43.4043 1.57736 43.4043 1.61633C43.4043 3.25108 43.6107 4.8331 44.1031 6.37996C44.8971 8.80572 45.0242 11.3369 45.2465 13.8506C45.4371 15.8545 45.6118 17.8584 45.8182 19.8623C45.85 20.1084 45.9135 20.372 46.0088 20.6181C46.4535 21.7958 47.2952 21.9716 48.1051 21.0576C51.1384 17.6474 52.3771 13.5694 52.0595 8.91119C51.9642 7.4698 52.0754 6.01082 52.0595 4.55185C52.0453 3.54389 51.9928 2.55003 51.9364 1.50707C51.9253 1.30221 51.7559 1.14172 51.5507 1.14172V1.14172C51.3218 1.14172 51.1432 1.33986 51.1679 1.56751C51.2695 2.50162 51.3808 3.44547 51.4084 4.37607Z" fill="#19424B" fill-opacity="0.5"/>
<path d="M36.3189 31.5147C36.3201 31.516 36.3209 31.5177 36.3212 31.5195C36.5911 33.2411 36.9085 34.8926 37.0831 36.544C37.3213 38.7061 37.5595 40.8682 37.5754 43.0303C37.623 47.8115 37.623 52.6103 37.496 57.3915C37.3534 62.1945 36.4212 66.8752 35.0931 71.4509C35.0858 71.4762 35.082 71.5024 35.082 71.5288V72.6409C35.082 72.811 35.3527 72.8478 35.3997 72.6843V72.6843C37.2736 66.7781 38.2583 60.7137 38.2583 54.4736C38.2583 50.7295 38.2583 46.9678 38.2583 43.2237C38.2583 39.7432 37.8136 36.2979 37.1942 32.8878C37.1577 32.6854 36.9901 32.5245 36.8352 32.3573C36.7482 32.2634 36.7258 32.1296 36.7642 32.0075C36.7925 31.9176 36.8225 31.8209 36.8533 31.7228C36.8879 31.6122 36.8055 31.4991 36.6896 31.4991H36.3258C36.3177 31.4991 36.3135 31.5087 36.3189 31.5147V31.5147Z" fill="#19424B" fill-opacity="0.5"/>
<path d="M35.082 26.1888C35.082 26.2132 35.0849 26.2375 35.0905 26.2612C35.3678 27.423 35.6582 28.585 35.9372 29.7607C35.9752 29.9208 36.0966 30.0321 36.2602 30.0147V30.0147C36.4499 29.9945 36.6073 29.8111 36.5711 29.6238C36.4859 29.1831 36.4025 28.7534 36.289 28.3349C36.0963 27.5927 35.8999 26.8506 35.7034 26.1085C35.6097 25.7546 35.082 25.8228 35.082 26.1888V26.1888Z" fill="#19424B" fill-opacity="0.5"/>
<path d="M55.123 61.2409C55.123 64.862 55.7901 68.36 56.727 71.8228C58.6169 78.8189 59.4904 85.9907 59.1251 93.2855C59.02 95.4949 58.759 97.6886 58.5295 99.8963C58.5081 100.102 58.6699 100.282 58.8772 100.282V100.282C59.0547 100.282 59.2042 100.149 59.2248 99.9722C59.2758 99.5359 59.3247 99.109 59.3633 98.682C59.538 96.1859 59.6968 93.6723 59.8715 91.1586C59.8715 91.0531 59.9033 90.9477 59.8715 90.8598C59.2363 89.1196 60.0621 87.3442 59.7445 85.5688C59.411 83.7759 59.3792 81.9126 59.1251 80.1021C58.871 78.3091 58.5216 76.5337 58.1405 74.7584C57.7593 72.983 57.3305 71.2252 56.8382 69.5025C56.06 66.7428 55.7901 63.8952 55.7901 61.0475C55.7901 56.2487 55.8377 51.4324 56.0124 46.6336C56.1712 42.7489 57.0923 38.9872 58.204 35.2958C59.2363 31.8681 60.4115 28.4755 61.0467 24.9248C61.7931 20.7412 62.2696 16.5401 62.5078 12.2862C62.5713 11.2315 62.6031 10.1769 62.6507 9.12219V9.12219C62.6838 8.50054 61.9951 8.99002 61.9693 9.61201C61.9358 10.4206 61.8999 11.2263 61.8567 12.0401C61.539 17.9815 60.8561 23.8701 59.268 29.6005C58.5693 32.1493 57.6958 34.6278 56.997 37.1766C55.9171 41.1141 55.266 45.1219 55.2501 49.2527C55.2501 53.2429 55.123 57.2331 55.123 61.2233V61.2409Z" fill="#19424B" fill-opacity="0.5"/>
<path d="M63.6957 100.282C63.8625 100.282 64.0049 100.16 64.0357 99.9965C64.0543 99.8978 64.0731 99.799 64.0891 99.7003C64.0946 99.6665 64.097 99.6323 64.097 99.5981V95.0616C63.9066 96.683 63.6621 98.2894 63.3636 99.8809C63.3245 100.089 63.4839 100.282 63.6957 100.282V100.282Z" fill="#19424B" fill-opacity="0.5"/>
<path d="M49.3205 60.898C49.3256 60.9037 49.3285 60.9111 49.3286 60.9187C49.3774 63.9908 49.9011 67.0278 50.5989 69.9947C51.4089 73.4399 52.3617 76.8325 53.2193 80.2602C54.4898 85.3578 54.5375 90.5082 53.8228 95.6937C53.6164 97.2046 53.3149 98.7156 53.1085 100.227C53.1083 100.228 53.1082 100.227 53.1082 100.229V100.229C53.1082 100.247 53.1229 100.264 53.1411 100.264H53.4889C53.673 100.264 53.8308 100.132 53.863 99.9508C53.9995 99.1802 54.1238 98.4233 54.2357 97.68C55.0774 92.4945 55.3315 87.2914 54.2834 82.1059C53.8863 80.1372 53.3305 78.2211 52.7905 76.2876C51.5677 71.7876 50.5195 67.2349 50.0748 62.5592C49.9478 61.276 49.9954 59.9752 49.9954 58.6744C49.9954 55.6335 50.0272 52.61 49.9954 49.569C49.9002 43.4168 50.9324 37.4754 52.997 31.7801C54.9027 26.5419 55.8715 21.1455 56.332 15.6084C56.6973 11.2666 56.8243 6.92488 56.5385 2.58312C56.5135 2.20956 56.4786 1.83601 56.4417 1.45388C56.4246 1.27682 56.2757 1.14172 56.0978 1.14172V1.14172C55.8922 1.14172 55.7322 1.32021 55.7542 1.52463C55.8504 2.42013 55.939 3.32573 55.9668 4.21787C56.1891 11.4073 55.7444 18.5439 54.1722 25.54C53.6958 27.6317 52.9335 29.6356 52.2664 31.6571C50.3766 37.4227 49.249 43.3289 49.2967 49.4636C49.3284 53.274 49.2492 57.0845 49.3124 60.8774C49.3125 60.8851 49.3154 60.8924 49.3205 60.898V60.898Z" fill="#19424B" fill-opacity="0.5"/>
<path d="M44.2198 100.289C44.2173 100.286 44.2192 100.282 44.2229 100.282H44.6613C44.7843 100.282 44.8777 100.171 44.8579 100.05C43.633 92.5716 43.7106 85.2291 45.8194 77.9722C45.8369 77.9118 45.892 77.8708 45.9522 77.8529V77.8529C46.02 77.8328 46.0898 77.8669 46.1145 77.9331C46.6117 79.2647 47.1643 80.5816 47.612 81.9483C49.4224 87.503 49.6606 93.2158 48.9142 98.999C48.8698 99.3062 48.8331 99.6049 48.788 99.907C48.7573 100.112 48.9143 100.3 49.1216 100.3V100.3C49.2856 100.3 49.4252 100.18 49.4495 100.018C50.1985 95.0025 50.1809 90.116 49.1975 85.358C48.4243 81.6168 44.0353 81.9147 43.6535 85.7158C43.1704 90.5253 43.4555 95.3746 44.2271 100.286C44.2277 100.29 44.2226 100.292 44.2198 100.289V100.289Z" fill="#19424B" fill-opacity="0.5"/>
<path d="M38.6857 100.026C38.7149 100.174 38.8444 100.282 38.9952 100.282H39.253C39.3354 100.282 39.3944 100.202 39.3706 100.123V100.123C38.4178 95.887 38.1319 91.5804 38.3066 87.2387C38.4972 82.1762 39.3071 77.2192 40.9746 72.438C42.7692 67.2876 43.6268 61.9439 43.7062 56.4596C43.7697 52.1354 43.7221 47.7937 43.7062 43.4695C43.7062 41.114 43.7221 38.7586 43.6585 36.4031C43.5474 32.2547 42.9439 28.1767 41.8481 24.204C40.7682 20.3545 40.0853 16.417 39.6247 12.4268C39.2118 8.87603 38.9736 5.29013 38.656 1.7218C38.6494 1.64217 38.6456 1.56253 38.6444 1.4829C38.6418 1.29901 38.4984 1.14172 38.3145 1.14172V1.14172C38.1365 1.14172 37.9939 1.28922 38.0005 1.46704C38.2205 7.42114 38.9141 13.3244 40.0059 19.1767C40.4188 21.4091 41.0381 23.5888 41.5622 25.786C42.4992 29.7411 43.0233 33.7664 43.0233 37.8621C43.0233 44.2957 43.1027 50.7116 43.0074 57.1452C42.928 62.2955 42.0387 67.3404 40.3394 72.1743C39.0371 75.8833 38.2431 79.6977 37.8619 83.6176C37.4331 88.0121 37.4649 92.4242 38.0842 96.8011C38.2314 97.8924 38.474 98.9535 38.6857 100.026Z" fill="#19424B" fill-opacity="0.5"/>
<path d="M62.5888 6.48547C62.557 6.9425 62.5411 7.31164 62.5094 7.68078C62.5094 7.68293 62.5093 7.68514 62.5091 7.68739C62.4952 7.86504 62.2123 7.93376 62.1123 7.78624V7.78624C61.8766 7.47309 62.0764 6.78112 62.5732 6.51131C62.5827 6.50616 62.5888 6.49627 62.5888 6.48547V6.48547Z" fill="#19424B" fill-opacity="0.5"/>
</svg>
