<svg width="103" height="107" viewBox="0 0 103 107" fill="none" xmlns="http://www.w3.org/2000/svg">
<g clip-path="url(#clip0_351_26)">
<path d="M97.3546 69H6C3.23858 69 1 71.2386 1 74L1 95C1 97.7614 3.23857 100 5.99999 100H97.3546C100.116 100 102.355 97.7614 102.355 95V74C102.355 71.2386 100.116 69 97.3546 69Z" fill="#19424B" fill-opacity="0.75"/>
<path d="M1.91406 98.7735C1.91406 98.9288 2.03178 99.0587 2.18644 99.0734C2.26113 99.0805 2.33545 99.0876 2.40625 99.0947H9.61322C7.15637 98.8819 4.69952 98.6836 2.24267 98.472C2.06596 98.4568 1.91406 98.5961 1.91406 98.7735V98.7735Z" fill="#19424B" fill-opacity="0.5"/>
<path d="M87.8887 97.0451C87.9414 97.5533 88.5918 97.728 89.998 97.6963C93.6124 97.6347 97.2267 97.6029 100.857 97.5721C101.044 97.5705 101.195 97.4183 101.195 97.2311V97.2311C101.195 97.0413 101.04 96.888 100.85 96.89C96.5244 96.9364 92.2145 96.9827 87.9046 97.0291C87.8958 97.0292 87.8887 97.0363 87.8887 97.0451V97.0451Z" fill="#19424B" fill-opacity="0.5"/>
<path d="M91.2284 86.3887C85.9023 86.4363 80.5586 86.3411 75.2325 86.4205C62.3478 86.5952 51.221 85.3723 41.6937 82.736C39.6898 82.1802 39.8832 81.7673 42.5199 81.5767C45.5608 81.3703 48.7073 81.3067 51.8186 81.2114C60.7306 80.9097 69.6603 80.6715 78.5371 80.2903C83.0547 80.0839 87.414 79.5439 91.914 79.2739C94.8251 79.1057 97.8504 79.1289 100.848 79.0884C101.041 79.0858 101.195 78.929 101.195 78.7367V78.7367C101.195 78.5422 101.038 78.3846 100.843 78.3846C100.468 78.3846 100.093 78.3846 99.7186 78.3846C94.7089 78.3846 89.787 78.5911 85.041 79.0834C77.5879 79.8774 69.7657 80.0045 62.0138 80.2268C55.844 80.4174 49.6565 80.5921 43.4866 80.7985C42.6956 80.8303 41.9222 80.8938 41.1839 80.9891C37.5453 81.4338 37.0004 82.2755 39.8304 83.0854C50.3421 86.1187 62.8752 87.3575 77.2539 87.0398C81.7012 86.9445 86.2011 87.0557 90.6835 87.0398C94.0064 87.0245 97.313 86.9649 100.808 86.9037C101.023 86.8999 101.195 86.7248 101.195 86.51V86.51C101.195 86.2874 101.011 86.109 100.788 86.1166C97.6016 86.2255 94.415 86.3582 91.2284 86.3887Z" fill="#19424B" fill-opacity="0.5"/>
<path d="M2.26304 72.2082C2.06773 72.2169 1.91406 72.3779 1.91406 72.5734V72.5734C1.91406 72.7813 2.08716 72.9475 2.29493 72.9388C6.82427 72.7492 11.3213 72.4858 15.8182 72.1923C16.391 72.1525 16.8778 71.9575 17.3608 71.7925C17.5482 71.7285 17.7478 71.7122 17.9444 71.7356C18.3303 71.7814 18.7739 71.8329 19.2283 71.8856C19.3969 71.9052 19.5448 71.7734 19.5448 71.6037V71.6037C19.5448 71.4405 19.4073 71.3109 19.2444 71.3205C14.7136 71.5866 10.396 71.8943 6.04489 72.0652C4.79001 72.1088 3.52041 72.1524 2.26304 72.2082Z" fill="#19424B" fill-opacity="0.5"/>
<path d="M33.7655 70.0648C30.5003 70.3552 27.235 70.6604 23.9228 70.9519C23.7212 70.9696 23.5777 71.1347 23.6322 71.3296V71.3296C23.6743 71.4803 23.8243 71.6127 23.9803 71.6012C25.3805 71.4983 26.7497 71.4061 28.0879 71.2718C32.2011 70.8747 36.3143 70.4618 40.4276 70.0648H33.7831H33.7655Z" fill="#19424B" fill-opacity="0.5"/>
<path d="M1.91406 92.4398C1.91406 92.4312 1.9214 92.4246 1.92987 92.4254C4.4206 92.6632 6.89386 92.9327 9.36713 93.2179C18.5956 94.2502 27.6834 95.4254 37.2634 96.0607C48.4957 96.8071 59.8159 97.2835 71.224 97.5217C74.0541 97.5852 76.9017 97.617 79.7494 97.6647V97.6647C80.7826 97.6852 80.5297 97.0155 79.4964 96.9998C76.9564 96.9615 74.4186 96.921 71.892 96.8706C55.9136 96.553 40.0759 95.8701 24.66 94.282C17.8221 93.5832 11.1425 92.7097 4.30467 92.011C3.72865 91.9531 3.14332 91.9037 2.56224 91.8505C2.21512 91.8187 1.91406 92.0912 1.91406 92.4398V92.4398V92.4398Z" fill="#19424B" fill-opacity="0.5"/>
<path d="M1.91406 86.1513C1.91406 86.1603 1.92095 86.1677 1.92989 86.1685C7.63733 86.6447 13.2746 87.2478 18.8241 87.9935C32.8865 89.8992 47.4059 90.868 62.312 91.3285C73.9838 91.6938 85.6555 91.8209 97.3449 91.535C98.5188 91.5059 99.6779 91.4636 100.876 91.4201C101.064 91.4133 101.212 91.2594 101.212 91.0719V91.0719C101.212 90.874 101.047 90.7158 100.85 90.7238C98.2107 90.8299 95.571 90.9329 92.9153 90.9633C73.5971 91.1856 54.4195 90.7409 35.5759 89.1687C29.9685 88.6923 24.5721 87.93 19.1229 87.263C13.6519 86.5896 8.13195 86.0195 2.5473 85.5668C2.20602 85.5392 1.91406 85.8089 1.91406 86.1513V86.1513V86.1513Z" fill="#19424B" fill-opacity="0.5"/>
<path d="M34.9782 76.5591C24.326 77.4961 13.5155 78.0201 2.52929 78.0201C2.43007 78.0201 2.33473 78.0201 2.23962 78.0201C2.05982 78.0201 1.91406 78.1659 1.91406 78.3457V78.3457C1.91406 78.5255 2.05981 78.6713 2.23961 78.6713C3.62751 78.6712 5.02833 78.6701 6.41402 78.6554C17.5585 78.5442 28.5095 77.9407 39.197 76.8449C49.568 75.765 60.1499 75.0821 70.8373 74.6216C80.3997 74.2087 90.0325 73.9705 99.63 73.6528C100.031 73.6403 100.444 73.6377 100.858 73.6448C101.042 73.648 101.194 73.5005 101.194 73.3164V73.3164C101.194 73.1345 101.046 72.9877 100.864 72.9901C84.6638 73.2017 68.6199 73.8986 52.732 75.0027C46.7555 75.4156 40.8844 76.035 34.9607 76.5591H34.9782Z" fill="#19424B" fill-opacity="0.5"/>
<path d="M86.8506 97.5709C85.6201 97.5391 84.6358 97.5232 83.6514 97.4915C83.4405 97.4915 83.1417 97.3962 83.1065 97.3327C83.0713 97.2691 83.2295 97.1421 83.4053 97.0944C84.2611 96.8578 86.1232 97.06 86.8541 97.5611C86.8585 97.5641 86.856 97.5709 86.8506 97.5709V97.5709Z" fill="#19424B" fill-opacity="0.5"/>
<path d="M6.81831 33.1405C6.81831 33.1405 6.81831 33.1405 6.81831 33.1405C6.81831 33.1405 6.9062 33.1405 6.94136 33.1405H8.89251C11.1425 33.2358 13.3925 33.2199 15.6249 33.4105C18.1913 33.6169 20.5467 34.4904 22.7088 35.9038C23.5873 36.4796 24.4995 37.0249 25.5282 37.6593C25.5696 37.6848 25.6173 37.6984 25.6659 37.6984H26.6978C26.7744 37.6984 26.7998 37.5791 26.7342 37.5396V37.5396C25.0994 36.5708 23.5174 35.5386 21.8651 34.5857C19.8084 33.3946 17.5057 32.807 15.1503 32.6323C12.7622 32.4675 10.3584 32.4582 7.95383 32.4443C7.6661 32.4427 7.37914 32.4084 7.09161 32.3975C7.00038 32.3941 6.91931 32.3941 6.85347 32.3941C6.1294 32.4225 2.68496 32.4255 1.36693 32.4144C1.16444 32.4127 1 32.5762 1 32.7787V32.7787C1 32.9785 1.162 33.1405 1.36183 33.1405H6.80073H6.81831Z" fill="#19424B" fill-opacity="0.5"/>
<path d="M2.93358 26.661C6.34371 26.661 9.75383 26.7404 13.1464 26.6451C17.576 26.5181 21.7244 27.5027 25.6619 29.4084C27.5427 30.3137 29.406 31.3301 31.1287 32.5211C34.9763 35.194 39.2066 36.8598 43.8033 37.6355C44.0598 37.6788 44.3197 37.6984 44.5799 37.6984H53.8056C54.0854 37.6984 54.3649 37.6756 54.6403 37.6256C55.0647 37.5485 55.4892 37.4647 55.9136 37.3808C59.0249 36.7455 61.9428 35.6974 64.5971 33.9346C68.3412 31.4571 72.5599 30.5519 77.0072 30.5519C79.2044 30.5519 81.3841 30.5519 83.5813 30.5519C83.6868 30.5519 83.7923 30.5519 83.8977 30.5519C84.0559 30.5519 84.6888 30.5519 85.427 30.5519C85.427 30.5519 85.427 30.5519 85.427 30.5519C85.427 30.5519 85.4446 30.5519 85.4622 30.5519C86.4817 30.5519 87.677 30.5519 87.9055 30.5519C92.5285 30.5519 97.1515 30.5519 101.775 30.536C101.807 30.536 101.839 30.5366 101.869 30.5377C102.055 30.5449 102.302 30.3808 102.302 30.1946V30.1946C102.302 30.0083 102.057 29.8491 101.871 29.8527C101.857 29.853 101.842 29.8531 101.827 29.8531C97.6789 29.8531 91.0696 29.869 86.2356 29.869H84.6536C84.4778 29.869 84.2845 29.869 84.1087 29.869V29.869C84.0035 29.869 83.8995 29.8516 83.7948 29.8415C83.7674 29.8388 83.7377 29.8372 83.7044 29.8372C80.5579 29.8849 77.4115 29.8372 74.2826 29.996C70.8549 30.1707 67.5854 31.1395 64.7202 33.0293C61.2046 35.348 57.3726 36.6185 53.2242 37.1108C47.3531 37.8096 41.7106 37.0473 36.2966 34.6651C34.1169 33.6963 32.2185 32.2988 30.2146 31.0283C26.1717 28.4873 21.8299 26.6928 17.0311 26.0893C16.2225 25.994 15.4139 25.9463 14.6054 25.9305C10.2988 25.9146 6.00972 25.9305 1.70312 25.9146C1.53347 25.9146 1.37217 25.9297 1.21923 25.9547C1.10065 25.974 1.01758 26.0793 1.01758 26.1995V26.4602C1.01758 26.5115 1.05468 26.5527 1.1014 26.5314V26.5314C1.12841 26.5191 1.17347 26.5138 1.19936 26.5283C1.59348 26.7495 2.69699 26.661 2.95116 26.661H2.93358Z" fill="#19424B" fill-opacity="0.5"/>
<path d="M89.2596 35.3397C89.2596 35.3354 89.2563 35.3318 89.252 35.3316C89.0081 35.3155 88.7473 35.2844 88.5038 35.2844C85.6913 35.3003 82.8612 35.2844 80.0488 35.3638C77.0782 35.4654 74.2397 36.1102 71.5466 37.3347C71.355 37.4218 71.4185 37.6984 71.6289 37.6984V37.6984C71.7389 37.6984 71.8274 37.7178 71.9112 37.7566C71.9578 37.7783 72.0076 37.7936 72.0591 37.7936H72.3365C72.3789 37.7936 72.4101 37.7538 72.4 37.7126V37.7126C72.3915 37.6782 72.412 37.6433 72.4462 37.6338C73.7606 37.2699 75.0422 36.7741 76.375 36.5708C78.2558 36.269 80.1542 36.1261 82.0526 36.0467C84.0917 35.9673 86.1483 36.0467 88.2049 36.015C88.4904 36.015 90.6157 36.1102 91.864 36.1025C92.4467 36.0989 93.0381 36.0449 93.6208 36.0429C96.3125 36.0336 98.9927 36.0452 101.687 36.0308C101.697 36.0308 101.706 36.0309 101.716 36.031C101.95 36.0331 102.267 35.817 102.267 35.5825V35.5825C102.267 35.4266 102.141 35.3003 101.985 35.3003H92.0369L89.2679 35.3478C89.2633 35.3479 89.2596 35.3442 89.2596 35.3397V35.3397Z" fill="#19424B" fill-opacity="0.5"/>
<path d="M15.6512 13.8373C15.6481 13.8345 15.6501 13.8293 15.6543 13.8293C21.0816 13.796 26.2631 12.6685 31.199 10.4785C34.6267 8.95386 38.2302 8.17569 41.9567 7.90571C48.109 7.44515 54.1558 8.0804 60.0093 10.0655C62.5581 10.9231 65.0542 11.9236 67.603 12.813C68.7631 13.2259 69.976 13.4959 71.1713 13.8294V13.8294C71.6298 13.9568 72.1094 14.0153 72.5736 14.1199C73.2581 14.2741 73.9814 14.4254 74.0717 14.4487C77.7982 15.1475 81.5775 15.4651 85.3743 15.4651C90.7883 15.4651 96.2023 15.4651 101.616 15.4651C101.736 15.4651 101.837 15.4651 101.924 15.4676C102.092 15.4725 102.284 15.3284 102.284 15.1603V15.1351C102.284 14.9504 102.012 14.7664 101.827 14.7664V14.7664C95.7277 14.7505 89.6106 14.7664 83.511 14.7346C80.1536 14.7028 76.849 14.2899 73.5619 13.6388C73.351 13.5912 73.1224 13.5753 72.8939 13.5435C71.3822 13.1306 69.8354 12.7971 68.3412 12.2889C65.4936 11.3202 62.6811 10.1926 59.8335 9.2556C53.6812 7.22281 47.3707 6.63521 40.9372 7.27046C37.07 7.65161 33.4314 8.74741 29.863 10.272C25.4685 12.146 20.828 13.083 16.0292 13.1147C11.1588 13.1457 6.27163 13.1162 1.40041 13.1148C1.19868 13.1147 1.03516 13.2783 1.03516 13.48L1.03516 13.7574C1.03516 13.8059 1.07451 13.8453 1.12305 13.8453V13.8453C5.9706 13.8453 10.8182 13.8611 15.6482 13.8453C15.6524 13.8453 15.6543 13.8401 15.6512 13.8373V13.8373ZM71.6405 13.338C71.6435 13.3364 71.6448 13.3352 71.6465 13.3382V13.3382C71.6517 13.3469 71.651 13.3537 71.6436 13.3469C71.639 13.3427 71.6377 13.3395 71.6405 13.338Z" fill="#19424B" fill-opacity="0.5"/>
<path d="M15.247 20.6575C15.243 20.6503 15.2482 20.6415 15.2564 20.6415C19.2049 20.6076 23.0133 19.8612 26.6814 18.4183C28.3162 17.783 29.8806 16.9572 31.5505 16.4014C35.7165 14.9879 40.0231 14.6544 44.4 14.8291C49.0055 15.0197 53.5054 15.8455 57.8472 17.3542C60.5542 18.2912 63.2436 19.3394 65.9682 20.1969C69.4662 21.2927 73.0873 21.9598 76.7083 22.468C76.8066 22.4806 76.9161 22.4832 77.0367 22.4918C77.0975 22.4961 77.1539 22.534 77.2138 22.5453V22.5453C77.2299 22.5483 77.2439 22.5488 77.26 22.5515C77.7052 22.6273 78.0496 22.6426 78.3431 22.6426C79.6439 22.7062 82.1224 22.9285 83.3704 22.9285C89.3293 22.9444 95.2883 22.9285 101.265 22.9285H101.868C102.079 22.9285 102.249 22.7579 102.249 22.5474V22.537C102.249 22.3322 102.085 22.198 101.88 22.198V22.198C95.3762 22.198 88.8547 22.198 82.3509 22.198C81.806 22.198 80.1009 22.0868 79.556 22.0392C79.1868 21.9915 77.8685 21.8962 77.3939 21.8803C75.724 21.5945 74.0892 21.3563 72.4545 21.0386C67.8842 20.1652 63.4546 18.8312 59.148 17.1001C55.2456 15.5279 51.1324 14.7021 46.9313 14.2733C43.1344 13.8762 39.3551 13.9398 35.5935 14.6227C32.9568 15.0991 30.3728 15.8296 27.9822 17.0366C24.8533 18.6247 21.4783 19.4029 18.0331 19.7682C16.205 19.9587 14.3417 19.927 12.5136 19.9428C8.80333 19.9582 5.09309 19.9438 1.38284 19.9429C1.18111 19.9428 1.01758 20.1064 1.01758 20.3081V20.3081C1.01758 20.5098 1.18111 20.6734 1.38284 20.6735C6.0011 20.6758 10.6194 20.7197 15.2376 20.6736C15.2458 20.6735 15.2509 20.6647 15.247 20.6575V20.6575Z" fill="#19424B" fill-opacity="0.5"/>
<path d="M56.846 23.1907C56.846 23.1942 56.8422 23.1963 56.8392 23.1945C54.4331 21.7193 51.939 20.4034 49.059 20.1971C47.1372 20.0564 45.1984 20.0388 43.2594 19.9625C43.2108 19.9606 43.1703 19.9993 43.1703 20.048V20.048C43.1703 20.0952 43.132 20.1336 43.0848 20.1336C41.3906 20.131 39.6965 20.0561 38.0024 20.1654C36.8423 20.2289 35.6645 20.4512 34.5396 20.753C33.1685 21.1183 32.3247 22.3411 32.2544 23.7704C32.1841 25.1203 32.9575 26.4067 34.2232 26.9308C34.8384 27.1849 35.4888 27.3913 36.1392 27.5184C38.1255 27.9471 39.8833 28.773 41.4653 30.0117C41.8696 30.3293 42.3266 30.6152 42.7661 30.901C44.436 31.9968 46.2641 32.4256 48.2152 31.8698C49.8324 31.4092 51.432 30.901 52.9789 30.2658C54.8421 29.5035 56.6878 28.6459 58.4632 27.7089C59.8694 26.9625 60.01 25.6285 58.8323 24.5486C58.2542 24.0104 57.5363 23.5984 56.8528 23.1869C56.8498 23.1851 56.846 23.1872 56.846 23.1907V23.1907ZM58.1731 27.0578C58.1755 27.0578 58.1764 27.061 58.1743 27.0622C57.2451 27.6005 56.2984 28.107 55.3167 28.503C52.8734 29.4559 50.4125 30.3928 47.9164 31.2028C46.2641 31.7427 44.6645 31.2981 43.2231 30.3611C42.8188 30.0911 42.4145 29.837 42.0278 29.5353C40.2876 28.1536 38.3364 27.2325 36.1567 26.8037C35.7173 26.7243 35.2954 26.5655 34.8735 26.4226C33.6255 25.9938 32.9927 25.1362 32.9927 23.8498C32.9927 22.6428 33.6431 21.69 34.9087 21.3882C36.1216 21.1024 37.3696 20.9277 38.6176 20.8483C40.0859 20.7546 41.5711 20.8297 43.0399 20.8323C43.0828 20.8324 43.1176 20.8035 43.1176 20.7606V20.7606C43.1176 20.7164 43.1544 20.6751 43.1986 20.677C45.0525 20.7539 46.9063 20.7863 48.7601 20.8959C50.975 21.023 52.9789 21.8488 54.8773 22.9128C55.7913 23.421 56.6878 23.9769 57.5843 24.5327C57.8655 24.7074 58.1468 24.9297 58.3929 25.1679C59.0588 25.8646 59.0084 26.5612 58.172 27.0533C58.17 27.0545 58.1707 27.0578 58.1731 27.0578V27.0578Z" fill="#19424B" fill-opacity="0.5"/>
<path d="M6.01842 38L97.373 38C100.134 38 102.373 35.7614 102.373 33V12C102.373 9.23858 100.134 7 97.3731 7L6.01843 7C3.257 7 1.01843 9.23858 1.01843 12V33C1.01843 35.7614 3.257 38 6.01842 38Z" fill="#19424B" fill-opacity="0.3"/>
<path d="M6.00085 69L97.3555 69C100.117 69 102.355 66.7614 102.355 64V43C102.355 40.2386 100.117 38 97.3555 38L6.00085 38C3.23943 38 1.00085 40.2386 1.00085 43V64C1.00085 66.7614 3.23942 69 6.00085 69Z" fill="#19424B" fill-opacity="0.55"/>
<path d="M56.2655 41.9528C59.6404 41.921 62.9978 41.921 66.3728 41.8098C68.9568 41.7304 71.4353 41.0158 73.9313 40.4282C76.8317 39.7453 79.7672 39.2212 82.7379 38.9036H78.6241C78.2623 38.9036 77.9015 38.9428 77.5482 39.0211C74.8384 39.622 72.0976 40.2529 69.3259 40.7299C67.1638 41.1111 64.9314 41.2381 62.7342 41.3016C59.4471 41.381 56.1424 41.3334 52.8553 41.2699C48.9882 41.2063 45.2265 40.4123 41.4824 39.5547C40.6344 39.3514 39.7865 39.1482 38.9553 38.9146C38.9292 38.9073 38.9023 38.9036 38.8752 38.9036V38.9036C38.5237 38.9036 38.4665 39.4111 38.8091 39.4897C41.6575 40.1433 44.5002 40.7983 47.3534 41.3969C50.2889 42.0163 53.2948 41.9845 56.283 41.9528H56.2655Z" fill="#19424B" fill-opacity="0.5"/>
<path d="M7.09957 40.9529C7.08199 40.4447 6.8359 40.27 6.30856 40.3018C5.03074 40.3602 3.75293 40.3918 2.47511 40.4212C2.29024 40.4255 2.14258 40.5765 2.14258 40.7614V40.7614C2.14258 40.9532 2.30099 41.1071 2.4927 41.1016C4.02303 41.0575 5.55336 41.0134 7.0837 40.9692C7.09253 40.969 7.09957 40.9617 7.09957 40.9529V40.9529Z" fill="#19424B" fill-opacity="0.5"/>
<path d="M5.37693 51.5926C7.09957 51.545 8.83979 51.6402 10.5624 51.5608C14.746 51.3861 18.367 52.609 21.4432 55.2453C22.0936 55.8011 22.0233 56.214 21.1795 56.4046C20.1952 56.611 19.1756 56.6746 18.1561 56.7699C15.2733 57.0716 12.3554 57.3098 9.49017 57.691C8.01362 57.8974 6.60738 58.4374 5.14841 58.7074C4.27546 58.8623 3.37485 58.8548 2.48338 58.8844C2.29255 58.8907 2.14258 59.0481 2.14258 59.239V59.239C2.14258 59.4366 2.30272 59.5967 2.50026 59.5967C2.53924 59.5967 2.57821 59.5967 2.61718 59.5967C4.25194 59.5967 5.83395 59.3902 7.38082 58.8979C9.80658 58.1039 12.3378 57.9768 14.8515 57.7545C16.8553 57.5639 18.8592 57.3892 20.8631 57.1828C21.1092 57.151 21.3729 57.0875 21.619 56.9922C22.7967 56.5475 22.9725 55.7058 22.0584 54.8959C18.6483 51.8626 14.5702 50.6239 9.91204 50.9415C8.47065 51.0368 7.01168 50.9256 5.55271 50.9415C4.54474 50.9557 3.55089 51.0082 2.50793 51.0646C2.30307 51.0757 2.14258 51.2451 2.14258 51.4502V51.4502C2.14258 51.6792 2.34072 51.8578 2.56837 51.8331C3.50247 51.7315 4.44632 51.6202 5.37693 51.5926Z" fill="#19424B" fill-opacity="0.5"/>
<path d="M32.5155 66.6817C32.5169 66.6805 32.5185 66.6797 32.5203 66.6794C34.242 66.4095 35.8934 66.0922 37.5449 65.9176C39.707 65.6794 41.8691 65.4411 44.0312 65.4253C48.8124 65.3776 53.6111 65.3776 58.3924 65.5047C63.1954 65.6472 67.876 66.5794 72.4517 67.9075C72.477 67.9149 72.5033 67.9186 72.5296 67.9186H73.6418C73.8118 67.9186 73.8486 67.648 73.6852 67.601V67.601C67.779 65.727 61.7146 64.7424 55.4744 64.7424C51.7303 64.7424 47.9686 64.7424 44.2245 64.7424C40.7441 64.7424 37.2988 65.187 33.8887 65.8064C33.6863 65.843 33.5253 66.0105 33.3581 66.1654C33.2642 66.2524 33.1305 66.2748 33.0084 66.2364C32.9184 66.2081 32.8217 66.1781 32.7237 66.1474C32.6131 66.1127 32.5 66.1951 32.5 66.3111V66.6748C32.5 66.6829 32.5095 66.6871 32.5155 66.6817V66.6817Z" fill="#19424B" fill-opacity="0.5"/>
<path d="M27.1899 67.9186C27.2142 67.9186 27.2385 67.9157 27.2622 67.9101C28.424 67.6328 29.586 67.3424 30.7617 67.0635C30.9218 67.0255 31.0331 66.904 31.0157 66.7404V66.7404C30.9955 66.5508 30.8121 66.3934 30.6249 66.4296C30.1841 66.5147 29.7545 66.5982 29.3359 66.7116C28.5938 66.9043 27.8516 67.1007 27.1095 67.2972C26.7557 67.3909 26.8239 67.9186 27.1899 67.9186V67.9186Z" fill="#19424B" fill-opacity="0.5"/>
<path d="M62.2417 47.8779C65.8628 47.8779 69.3608 47.2109 72.8237 46.2739C79.8197 44.3841 86.9915 43.5106 94.2864 43.8759C96.4958 43.9809 98.6895 44.242 100.897 44.4715C101.103 44.4929 101.282 44.331 101.282 44.1238V44.1238C101.282 43.9462 101.149 43.7968 100.973 43.7762C100.537 43.7252 100.11 43.6762 99.6828 43.6377C97.1868 43.463 94.6731 43.3042 92.1595 43.1295C92.054 43.1295 91.9485 43.0977 91.8606 43.1295C90.1204 43.7647 88.345 42.9389 86.5697 43.2565C84.7767 43.59 82.9134 43.6218 81.1029 43.8759C79.31 44.13 77.5346 44.4794 75.7592 44.8605C73.9838 45.2417 72.226 45.6704 70.5034 46.1628C67.7437 46.9409 64.896 47.2109 62.0484 47.2109C57.2496 47.2109 52.4332 47.1633 47.6344 46.9886C43.7497 46.8298 39.988 45.9087 36.2966 44.797C32.8689 43.7647 29.4764 42.5895 25.9256 41.9543C21.7421 41.2078 17.5409 40.7314 13.2871 40.4932C12.2324 40.4297 11.1777 40.3979 10.123 40.3503V40.3503C9.50139 40.3172 9.99087 41.0058 10.6129 41.0316C11.4215 41.0652 12.2272 41.1011 13.041 41.1443C18.9823 41.4619 24.871 42.1448 30.6014 43.7329C33.1502 44.4317 35.6287 45.3052 38.1775 46.004C42.115 47.0839 46.1227 47.735 50.2536 47.7509C54.2438 47.7509 58.234 47.8779 62.2242 47.8779H62.2417Z" fill="#19424B" fill-opacity="0.5"/>
<path d="M101.283 39.3042C101.283 39.1374 101.161 38.995 100.997 38.9642C100.899 38.9457 100.8 38.9268 100.701 38.9108C100.667 38.9054 100.633 38.9029 100.599 38.9029H96.0625C97.6839 39.0933 99.2903 39.3378 100.882 39.6363C101.09 39.6754 101.283 39.5161 101.283 39.3042V39.3042Z" fill="#19424B" fill-opacity="0.5"/>
<path d="M61.8989 53.6802C61.9046 53.675 61.9119 53.6721 61.9196 53.672C64.9917 53.6232 68.0287 53.0996 70.9955 52.4017C74.4408 51.5918 77.8333 50.6389 81.2611 49.7813C86.3587 48.5108 91.509 48.4632 96.6945 49.1778C98.2055 49.3842 99.7165 49.6857 101.227 49.8922C101.229 49.8924 101.228 49.8925 101.23 49.8925V49.8925C101.248 49.8925 101.265 49.8777 101.265 49.8596V49.5118C101.265 49.3276 101.133 49.1698 100.952 49.1377C100.181 49.0011 99.4241 48.8769 98.6808 48.7649C93.4953 47.9232 88.2922 47.6691 83.1067 48.7173C81.138 49.1143 79.222 49.6702 77.2884 50.2101C72.7885 51.433 68.2358 52.4811 63.56 52.9258C62.2768 53.0528 60.9761 53.0052 59.6753 53.0052C56.6343 53.0052 53.6109 52.9734 50.5699 53.0052C44.4176 53.1005 38.4763 52.0682 32.781 50.0037C27.5428 48.0979 22.1463 47.1292 16.6093 46.6686C12.2675 46.3033 7.92573 46.1763 3.58397 46.4622C3.21042 46.4872 2.83686 46.522 2.45473 46.5589C2.27767 46.576 2.14258 46.7249 2.14258 46.9028V46.9028C2.14258 47.1084 2.32106 47.2684 2.52549 47.2465C3.42099 47.1503 4.32659 47.0617 5.21872 47.0339C12.4081 46.8115 19.5448 47.2562 26.5408 48.8285C28.6326 49.3049 30.6365 50.0672 32.6579 50.7342C38.4235 52.624 44.3297 53.7516 50.4644 53.704C54.2749 53.6722 58.0854 53.7514 61.8783 53.6883C61.8859 53.6882 61.8932 53.6853 61.8989 53.6802V53.6802Z" fill="#19424B" fill-opacity="0.5"/>
<path d="M101.29 58.7811C101.287 58.7836 101.283 58.7816 101.283 58.778V58.3396C101.283 58.2166 101.172 58.1231 101.051 58.143C93.5725 59.3678 86.23 59.2903 78.973 57.1815C78.9127 57.1639 78.8716 57.1089 78.8538 57.0487V57.0487C78.8336 56.9809 78.8677 56.9111 78.934 56.8864C80.2656 56.3891 81.5825 55.8365 82.9492 55.3889C88.5038 53.5785 94.2167 53.3402 99.9998 54.0867C100.307 54.1311 100.606 54.1677 100.908 54.2129C101.113 54.2436 101.301 54.0866 101.301 53.8793V53.8793C101.301 53.7153 101.181 53.5756 101.018 53.5514C96.0034 52.8023 91.1168 52.82 86.3588 53.8033C82.6176 54.5765 82.9155 58.9655 86.7166 59.3474C91.5261 59.8305 96.3754 59.5454 101.287 58.7738C101.291 58.7732 101.293 58.7783 101.29 58.7811V58.7811Z" fill="#19424B" fill-opacity="0.5"/>
<path d="M101.027 64.315C101.175 64.2858 101.282 64.1563 101.282 64.0055V63.7477C101.282 63.6654 101.203 63.6064 101.124 63.6301V63.6301C96.8879 64.583 92.5813 64.8688 88.2395 64.6941C83.1771 64.5036 78.2201 63.6936 73.4389 62.0261C68.2885 60.2315 62.9448 59.3739 57.4605 59.2945C53.1363 59.231 48.7945 59.2787 44.4703 59.2945C42.1149 59.2945 39.7594 59.2787 37.404 59.3422C33.2556 59.4534 29.1775 60.0568 25.2049 61.1526C21.3553 62.2326 17.4178 62.9154 13.4276 63.376C9.87689 63.7889 6.29098 64.0271 2.72265 64.3447C2.64302 64.3513 2.56339 64.3551 2.48376 64.3563C2.29987 64.359 2.14258 64.5023 2.14258 64.6863V64.6863C2.14258 64.8642 2.29007 65.0068 2.4679 65.0002C8.42199 64.7802 14.3252 64.0866 20.1776 62.9948C22.41 62.5819 24.5897 61.9626 26.7869 61.4385C30.7419 60.5015 34.7673 59.9774 38.863 59.9774C45.2965 59.9774 51.7125 59.898 58.146 59.9933C63.2964 60.0727 68.3412 60.9621 73.1752 62.6613C76.8841 63.9636 80.6986 64.7577 84.6184 65.1388C89.0129 65.5676 93.425 65.5358 97.8019 64.9165C98.8932 64.7693 99.9544 64.5267 101.027 64.315Z" fill="#19424B" fill-opacity="0.5"/>
<path d="M7.48633 40.4116C7.94336 40.4434 8.31249 40.4593 8.68163 40.491C8.68379 40.491 8.68599 40.4911 8.68824 40.4913C8.8659 40.5051 8.93462 40.7881 8.7871 40.8881V40.8881C8.47394 41.1238 7.78198 40.924 7.51217 40.4272C7.50701 40.4177 7.49713 40.4116 7.48633 40.4116V40.4116Z" fill="#19424B" fill-opacity="0.5"/>
<path fill-rule="evenodd" clip-rule="evenodd" d="M49.1881 6.58471C50 8.54494 50 11.03 50 16L50 90.6667C50 95.6367 50 98.1217 49.188 100.082C49.0089 100.514 48.8025 100.932 48.571 101.333C47.4035 103.356 45.5964 104.951 43.4153 105.855C41.4551 106.667 38.97 106.667 34 106.667C29.03 106.667 26.5449 106.667 24.5847 105.855C22.4036 104.951 20.5965 103.356 19.429 101.333C19.1975 100.932 18.9911 100.514 18.812 100.082C18 98.1217 18 95.6367 18 90.6667V16C18 11.03 18 8.54493 18.812 6.58471C18.9911 6.15218 19.1975 5.73437 19.429 5.33333C20.5965 3.31102 22.4036 1.7154 24.5847 0.811951C26.5449 0 29.03 0 34 0C38.9701 0 41.4551 0 43.4153 0.811952C45.5964 1.7154 47.4035 3.31102 48.571 5.33333C48.8025 5.73437 49.0089 6.15219 49.1881 6.58471ZM38 48C38 45.7909 36.2091 44 34 44C31.7909 44 30 45.7909 30 48L30 58.6667C30 60.8758 31.7909 62.6667 34 62.6667C36.2091 62.6667 38 60.8758 38 58.6667L38 48Z" fill="#19424B"/>
<path d="M30 48C30 45.7909 31.7909 44 34 44C36.2091 44 38 45.7909 38 48L38 59C38 61.2091 36.2091 63 34 63C31.7909 63 30 61.2091 30 59L30 48Z" fill="#19424B"/>
</g>
<defs>
<clipPath id="clip0_351_26">
<rect width="107" height="103" fill="white" transform="matrix(0 -1 1 0 0 107)"/>
</clipPath>
</defs>
</svg>
