<svg width="25" height="25" viewBox="0 0 25 25" fill="none" xmlns="http://www.w3.org/2000/svg">
<path d="M2.77778 21.25C2.77778 20.7131 3.21306 20.2778 3.75 20.2778H6.52778C7.06472 20.2778 7.5 20.7131 7.5 21.25C7.5 21.7869 7.06472 22.2222 6.52778 22.2222H3.75C3.21306 22.2222 2.77778 21.7869 2.77778 21.25Z" fill="#19424B"/>
<path fill-rule="evenodd" clip-rule="evenodd" d="M10.0505 5V20C10.0505 21.7502 10.0505 22.6252 9.70822 23.2937C9.4071 23.8817 8.92662 24.3598 8.33564 24.6594C7.66379 25 6.78428 25 5.02527 25C3.26626 25 2.38676 25 1.7149 24.6594C1.12393 24.3598 0.643445 23.8817 0.342326 23.2937C0 22.6252 0 21.7502 0 20V5C0 3.24984 0 2.37475 0.342326 1.70628C0.643445 1.11827 1.12393 0.640209 1.7149 0.340605C2.38676 0 3.26626 0 5.02527 0C6.78428 0 7.66379 0 8.33564 0.340605C8.92662 0.640209 9.4071 1.11827 9.70822 1.70628C10.0505 2.37475 10.0505 3.24984 10.0505 5ZM6.28159 22.1875C6.80198 22.1875 7.22383 21.7678 7.22383 21.25C7.22383 20.7322 6.80198 20.3125 6.28159 20.3125H3.76896C3.24857 20.3125 2.82672 20.7322 2.82672 21.25C2.82672 21.7678 3.24857 22.1875 3.76896 22.1875H6.28159Z" fill="#19424B"/>
<path d="M21.4327 10.768L14.0982 18.38C13.1813 19.3316 12.7228 19.8074 12.3289 19.6499C11.935 19.4924 11.935 18.8332 11.935 17.5149L11.935 7.21725C11.9365 6.39227 12.2658 5.60133 12.851 5.01696L14.1761 3.69853L14.7167 3.28734C15.9783 2.32766 16.6091 1.84781 17.2962 1.70038C17.8617 1.57902 18.4499 1.61545 18.996 1.80562C19.6594 2.03667 20.2255 2.59063 21.3578 3.69853C22.6136 4.94798 23.2415 5.57272 23.4743 6.2882C23.6728 6.89839 23.6778 7.55458 23.4887 8.16771C23.2669 8.88664 22.6555 9.51377 21.4327 10.768Z" fill="#19424B"/>
<path d="M13.5554 25H19.9747C21.7337 25 22.6132 25 23.2851 24.6594C23.8761 24.3598 24.3566 23.8817 24.6577 23.2937C25 22.6252 25 21.7502 25 20C25 18.2498 25 17.3748 24.6577 16.7063C24.3566 16.1183 23.8761 15.6402 23.2851 15.3406C22.6132 15 21.7337 15 19.9747 15H19.6987L12.41 22.2475C12.1059 22.5498 11.935 22.9238 11.935 23.3516C11.935 24.242 12.6605 25 13.5554 25Z" fill="#19424B"/>
</svg>
