<svg width="126" height="102" viewBox="0 0 126 102" fill="none" xmlns="http://www.w3.org/2000/svg">
<g opacity="0.9">
<g clip-path="url(#clip0_352_237)">
<rect x="69" width="35" height="102" fill="#19424B" fill-opacity="0.5"/>
<mask id="path-3-inside-1_352_237" fill="white">
<path d="M77.3254 0.00885645H72.7692C72.3965 0.00885645 72.0858 0.123968 72.0237 0.283357H69.4556C69.2071 0.283357 69 0.371908 69 0.478167V101.584C69 101.69 69.2071 101.779 69.4556 101.779H72.0444C72.1479 101.903 72.4379 102 72.7692 102H77.3254C77.6568 102 77.9467 101.911 78.0503 101.779H80.6805C80.784 101.903 81.074 102 81.4053 102H85.9615C86.2929 102 86.5828 101.911 86.6864 101.779H89.3166C89.4201 101.903 89.7101 102 90.0414 102H94.5976C94.929 102 95.2189 101.911 95.3225 101.779H97.9527C98.0562 101.903 98.3462 102 98.6775 102H103.234C103.669 102 104 101.849 104 101.664V0.327635C104 0.141681 103.648 -3.76094e-07 103.234 -3.76094e-07H98.6775C98.3047 -3.76094e-07 97.9941 0.115112 97.932 0.2745H95.3432C95.2811 0.123967 94.9704 -3.76094e-07 94.5976 -3.76094e-07H90.0414C89.6686 -3.76094e-07 89.358 0.115112 89.2959 0.2745H86.7071C86.645 0.123967 86.3343 -3.76094e-07 85.9615 -3.76094e-07H81.4053C81.0325 -3.76094e-07 80.7219 0.115112 80.6598 0.2745H78.071C78.0089 0.123967 77.6982 -3.76094e-07 77.3254 -3.76094e-07M78.0917 101.557V0.504731H80.6183V101.557H78.0917ZM72.7692 0.23023H77.3254C77.4704 0.23023 77.574 0.2745 77.574 0.336485V101.672C77.574 101.734 77.4704 101.779 77.3254 101.779H72.7692C72.6243 101.779 72.5207 101.734 72.5207 101.672V0.336485C72.5207 0.2745 72.6243 0.23023 72.7692 0.23023ZM69.5385 101.557V0.504731H72.003V101.557H69.5385ZM86.7278 101.557V0.504731H89.2544V101.557H86.7278ZM95.3639 101.557V0.504731H97.8905V101.557H95.3639ZM98.6568 0.23023H103.213C103.337 0.23023 103.462 0.2745 103.462 0.336485V101.672C103.462 101.734 103.358 101.779 103.213 101.779H98.6568C98.5118 101.779 98.4083 101.734 98.4083 101.672V0.336485C98.4083 0.2745 98.5118 0.23023 98.6568 0.23023ZM90.0207 0.23023H94.5769C94.7219 0.23023 94.8254 0.2745 94.8254 0.336485V101.672C94.8254 101.734 94.7219 101.779 94.5769 101.779H90.0207C89.8757 101.779 89.7722 101.734 89.7722 101.672V0.336485C89.7722 0.283355 89.8757 0.23023 90.0207 0.23023ZM81.3846 0.23023H85.9408C86.0651 0.23023 86.1894 0.2745 86.1894 0.336485V101.672C86.1894 101.734 86.0858 101.779 85.9408 101.779H81.3846C81.2396 101.779 81.1361 101.734 81.1361 101.672V0.336485C81.1361 0.283355 81.2396 0.23023 81.3846 0.23023Z"/>
</mask>
<path d="M77.3254 0.00885645H72.7692C72.3965 0.00885645 72.0858 0.123968 72.0237 0.283357H69.4556C69.2071 0.283357 69 0.371908 69 0.478167V101.584C69 101.69 69.2071 101.779 69.4556 101.779H72.0444C72.1479 101.903 72.4379 102 72.7692 102H77.3254C77.6568 102 77.9467 101.911 78.0503 101.779H80.6805C80.784 101.903 81.074 102 81.4053 102H85.9615C86.2929 102 86.5828 101.911 86.6864 101.779H89.3166C89.4201 101.903 89.7101 102 90.0414 102H94.5976C94.929 102 95.2189 101.911 95.3225 101.779H97.9527C98.0562 101.903 98.3462 102 98.6775 102H103.234C103.669 102 104 101.849 104 101.664V0.327635C104 0.141681 103.648 -3.76094e-07 103.234 -3.76094e-07H98.6775C98.3047 -3.76094e-07 97.9941 0.115112 97.932 0.2745H95.3432C95.2811 0.123967 94.9704 -3.76094e-07 94.5976 -3.76094e-07H90.0414C89.6686 -3.76094e-07 89.358 0.115112 89.2959 0.2745H86.7071C86.645 0.123967 86.3343 -3.76094e-07 85.9615 -3.76094e-07H81.4053C81.0325 -3.76094e-07 80.7219 0.115112 80.6598 0.2745H78.071C78.0089 0.123967 77.6982 -3.76094e-07 77.3254 -3.76094e-07M78.0917 101.557V0.504731H80.6183V101.557H78.0917ZM72.7692 0.23023H77.3254C77.4704 0.23023 77.574 0.2745 77.574 0.336485V101.672C77.574 101.734 77.4704 101.779 77.3254 101.779H72.7692C72.6243 101.779 72.5207 101.734 72.5207 101.672V0.336485C72.5207 0.2745 72.6243 0.23023 72.7692 0.23023ZM69.5385 101.557V0.504731H72.003V101.557H69.5385ZM86.7278 101.557V0.504731H89.2544V101.557H86.7278ZM95.3639 101.557V0.504731H97.8905V101.557H95.3639ZM98.6568 0.23023H103.213C103.337 0.23023 103.462 0.2745 103.462 0.336485V101.672C103.462 101.734 103.358 101.779 103.213 101.779H98.6568C98.5118 101.779 98.4083 101.734 98.4083 101.672V0.336485C98.4083 0.2745 98.5118 0.23023 98.6568 0.23023ZM90.0207 0.23023H94.5769C94.7219 0.23023 94.8254 0.2745 94.8254 0.336485V101.672C94.8254 101.734 94.7219 101.779 94.5769 101.779H90.0207C89.8757 101.779 89.7722 101.734 89.7722 101.672V0.336485C89.7722 0.283355 89.8757 0.23023 90.0207 0.23023ZM81.3846 0.23023H85.9408C86.0651 0.23023 86.1894 0.2745 86.1894 0.336485V101.672C86.1894 101.734 86.0858 101.779 85.9408 101.779H81.3846C81.2396 101.779 81.1361 101.734 81.1361 101.672V0.336485C81.1361 0.283355 81.2396 0.23023 81.3846 0.23023Z" fill="#112A2F"/>
<path d="M72.0237 0.283357V2.28336H73.3906L73.8871 1.00973L72.0237 0.283357ZM72.0444 101.779L73.5793 100.496L72.9797 99.7786H72.0444V101.779ZM78.0503 101.779V99.7786H77.0735L76.473 100.549L78.0503 101.779ZM80.6805 101.779L82.2154 100.496L81.6158 99.7786H80.6805V101.779ZM86.6864 101.779V99.7786H85.7096L85.1091 100.549L86.6864 101.779ZM89.3166 101.779L90.8515 100.496L90.2519 99.7786H89.3166V101.779ZM95.3225 101.779V99.7786H94.3457L93.7452 100.549L95.3225 101.779ZM97.9527 101.779L99.4876 100.496L98.888 99.7786H97.9527V101.779ZM97.932 0.2745V2.2745H99.2989L99.7954 1.00087L97.932 0.2745ZM95.3432 0.2745L93.4945 1.03753L94.005 2.2745H95.3432V0.2745ZM89.2959 0.2745V2.2745H90.6628L91.1593 1.00087L89.2959 0.2745ZM86.7071 0.2745L84.8584 1.03753L85.3689 2.2745H86.7071V0.2745ZM80.6598 0.2745V2.2745H82.0267L82.5232 1.00087L80.6598 0.2745ZM78.071 0.2745L76.2223 1.03753L76.7328 2.2745H78.071V0.2745ZM78.0917 101.557H76.0917V103.557H78.0917V101.557ZM78.0917 0.504731V-1.49527H76.0917V0.504731H78.0917ZM80.6183 0.504731H82.6183V-1.49527H80.6183V0.504731ZM80.6183 101.557V103.557H82.6183V101.557H80.6183ZM69.5385 101.557H67.5385V103.557H69.5385V101.557ZM69.5385 0.504731V-1.49527H67.5385V0.504731H69.5385ZM72.003 0.504731H74.003V-1.49527H72.003V0.504731ZM72.003 101.557V103.557H74.003V101.557H72.003ZM86.7278 101.557H84.7278V103.557H86.7278V101.557ZM86.7278 0.504731V-1.49527H84.7278V0.504731H86.7278ZM89.2544 0.504731H91.2544V-1.49527H89.2544V0.504731ZM89.2544 101.557V103.557H91.2544V101.557H89.2544ZM95.3639 101.557H93.3639V103.557H95.3639V101.557ZM95.3639 0.504731V-1.49527H93.3639V0.504731H95.3639ZM97.8905 0.504731H99.8905V-1.49527H97.8905V0.504731ZM97.8905 101.557V103.557H99.8905V101.557H97.8905ZM77.3254 -1.99114H72.7692V2.00886H77.3254V-1.99114ZM72.7692 -1.99114C72.3952 -1.99114 71.9828 -1.93579 71.5878 -1.79007C71.3129 -1.68869 70.5142 -1.35098 70.1602 -0.443014L73.8871 1.00973C73.7288 1.4159 73.4715 1.65351 73.3242 1.76546C73.1703 1.8825 73.0381 1.93842 72.9721 1.96274C72.8412 2.01105 72.7705 2.00886 72.7692 2.00886V-1.99114ZM72.0237 -1.71664H69.4556V2.28336H72.0237V-1.71664ZM69.4556 -1.71664C69.1205 -1.71664 68.7291 -1.66084 68.3483 -1.49804C68.1621 -1.41841 67.8847 -1.27334 67.6237 -1.01297C67.358 -0.747914 67 -0.242648 67 0.478167H71C71 1.14585 70.6679 1.6002 70.4488 1.81877C70.2344 2.03265 70.0243 2.13566 69.9209 2.17987C69.7058 2.27183 69.5422 2.28336 69.4556 2.28336V-1.71664ZM67 0.478167V101.584H71V0.478167H67ZM67 101.584C67 102.305 67.358 102.81 67.6237 103.075C67.8847 103.335 68.1621 103.48 68.3483 103.56C68.7291 103.723 69.1205 103.779 69.4556 103.779L69.4556 99.7786C69.5422 99.7786 69.7058 99.7902 69.9209 99.8821C70.0243 99.9263 70.2344 100.029 70.4488 100.243C70.6679 100.462 71 100.916 71 101.584H67ZM69.4556 103.779H72.0444V99.7786H69.4556L69.4556 103.779ZM70.5094 103.061C70.9224 103.555 71.4521 103.759 71.722 103.844C72.059 103.95 72.4179 104 72.7692 104V100C72.7892 100 72.8375 100.002 72.9208 100.028C72.9635 100.041 73.0414 100.069 73.1401 100.125C73.2287 100.175 73.4048 100.287 73.5793 100.496L70.5094 103.061ZM72.7692 104H77.3254V100H72.7692V104ZM77.3254 104C77.6571 104 78.0129 103.957 78.3575 103.852C78.6347 103.767 79.202 103.554 79.6276 103.008L76.473 100.549C76.6513 100.32 76.8396 100.195 76.943 100.135C77.0539 100.072 77.1424 100.041 77.1891 100.026C77.28 99.9986 77.3252 100 77.3254 100V104ZM78.0503 103.779H80.6805V99.7786H78.0503V103.779ZM79.1455 103.061C79.5585 103.555 80.0882 103.759 80.3581 103.844C80.6951 103.95 81.054 104 81.4053 104V100C81.4253 100 81.4736 100.002 81.5569 100.028C81.5996 100.041 81.6775 100.069 81.7762 100.125C81.8648 100.175 82.0409 100.287 82.2154 100.496L79.1455 103.061ZM81.4053 104H85.9615V100H81.4053V104ZM85.9615 104C86.2932 104 86.649 103.957 86.9936 103.852C87.2708 103.767 87.8381 103.554 88.2637 103.008L85.1091 100.549C85.2874 100.32 85.4757 100.195 85.5791 100.135C85.69 100.072 85.7785 100.041 85.8252 100.026C85.9161 99.9986 85.9613 100 85.9615 100V104ZM86.6864 103.779H89.3166V99.7786H86.6864V103.779ZM87.7816 103.061C88.1946 103.555 88.7243 103.759 88.9942 103.844C89.3312 103.95 89.6901 104 90.0414 104V100C90.0614 100 90.1097 100.002 90.193 100.028C90.2357 100.041 90.3136 100.069 90.4123 100.125C90.5009 100.175 90.677 100.287 90.8515 100.496L87.7816 103.061ZM90.0414 104H94.5976V100H90.0414V104ZM94.5976 104C94.9293 104 95.2851 103.957 95.6297 103.852C95.9069 103.767 96.4742 103.554 96.8998 103.008L93.7452 100.549C93.9235 100.32 94.1118 100.195 94.2152 100.135C94.3261 100.072 94.4146 100.041 94.4613 100.026C94.5522 99.9986 94.5974 100 94.5976 100V104ZM95.3225 103.779H97.9527V99.7786H95.3225V103.779ZM96.4177 103.061C96.8307 103.555 97.3604 103.759 97.6303 103.844C97.9673 103.95 98.3262 104 98.6775 104V100C98.6975 100 98.7458 100.002 98.829 100.028C98.8717 100.041 98.9497 100.069 99.0484 100.125C99.137 100.175 99.3131 100.287 99.4876 100.496L96.4177 103.061ZM98.6775 104H103.234V100H98.6775V104ZM103.234 104C103.654 104 104.137 103.931 104.591 103.73C104.865 103.608 106 103.033 106 101.664H102C102 101.073 102.272 100.65 102.484 100.424C102.685 100.211 102.881 100.112 102.969 100.073C103.069 100.029 103.142 100.013 103.174 100.007C103.209 100 103.229 100 103.234 100V104ZM106 101.664V0.327635H102V101.664H106ZM106 0.327635C106 -0.399863 105.645 -0.923921 105.352 -1.21704C105.069 -1.49936 104.762 -1.65945 104.546 -1.75011C104.107 -1.93453 103.64 -2 103.234 -2V2C103.226 2 103.208 1.99949 103.179 1.9943C103.153 1.98977 103.09 1.97657 102.998 1.93828C102.922 1.90628 102.729 1.81648 102.525 1.61303C102.311 1.39877 102 0.962156 102 0.327635H106ZM103.234 -2H98.6775V2H103.234V-2ZM98.6775 -2C98.3035 -2 97.8911 -1.94464 97.4961 -1.79893C97.2212 -1.69754 96.4224 -1.35984 96.0685 -0.451871L99.7954 1.00087C99.6371 1.40704 99.3798 1.64465 99.2325 1.7566C99.0785 1.87364 98.9464 1.92956 98.8804 1.95389C98.7494 2.0022 98.6788 2 98.6775 2V-2ZM97.932 -1.7255H95.3432V2.2745H97.932V-1.7255ZM97.1919 -0.488528C96.8305 -1.36429 96.0507 -1.69319 95.7929 -1.79046C95.4043 -1.93705 94.9898 -2 94.5976 -2V2C94.5783 2 94.5055 1.99903 94.381 1.95206C94.3188 1.92861 94.1965 1.87586 94.0523 1.76763C93.9207 1.66889 93.661 1.44099 93.4945 1.03753L97.1919 -0.488528ZM94.5976 -2H90.0414V2H94.5976V-2ZM90.0414 -2C89.6674 -2 89.255 -1.94464 88.86 -1.79893C88.5851 -1.69754 87.7864 -1.35984 87.4324 -0.451871L91.1593 1.00087C91.001 1.40704 90.7437 1.64465 90.5964 1.7566C90.4425 1.87364 90.3103 1.92956 90.2443 1.95389C90.1133 2.0022 90.0427 2 90.0414 2V-2ZM89.2959 -1.7255H86.7071V2.2745H89.2959V-1.7255ZM88.5558 -0.488528C88.1944 -1.36429 87.4146 -1.69319 87.1568 -1.79046C86.7682 -1.93705 86.3537 -2 85.9615 -2V2C85.9422 2 85.8694 1.99903 85.7449 1.95206C85.6827 1.92861 85.5604 1.87586 85.4162 1.76763C85.2846 1.66889 85.0249 1.44099 84.8584 1.03753L88.5558 -0.488528ZM85.9615 -2H81.4053V2H85.9615V-2ZM81.4053 -2C81.0313 -2 80.6189 -1.94464 80.2239 -1.79893C79.949 -1.69754 79.1503 -1.35984 78.7963 -0.451871L82.5232 1.00087C82.3649 1.40704 82.1076 1.64465 81.9603 1.7566C81.8064 1.87364 81.6742 1.92956 81.6082 1.95389C81.4773 2.0022 81.4066 2 81.4053 2V-2ZM80.6598 -1.7255H78.071V2.2745H80.6598V-1.7255ZM79.9197 -0.488528C79.5583 -1.36428 78.7785 -1.69319 78.5207 -1.79046C78.1321 -1.93705 77.7176 -2 77.3254 -2V2C77.3061 2 77.2333 1.99903 77.1088 1.95206C77.0466 1.92861 76.9243 1.87586 76.7801 1.76763C76.6485 1.66889 76.3888 1.44099 76.2223 1.03753L79.9197 -0.488528ZM80.0917 101.557V0.504731H76.0917V101.557H80.0917ZM78.0917 2.50473H80.6183V-1.49527H78.0917V2.50473ZM78.6183 0.504731V101.557H82.6183V0.504731H78.6183ZM80.6183 99.5573H78.0917V103.557H80.6183V99.5573ZM72.7692 2.23023H77.3254V-1.76977H72.7692V2.23023ZM77.3254 2.23023C77.2264 2.23023 76.9994 2.21946 76.7178 2.09909C76.577 2.03889 76.3287 1.91123 76.0914 1.65617C75.8335 1.37901 75.574 0.926212 75.574 0.336485H79.574C79.574 -0.956701 78.5238 -1.47905 78.2903 -1.57886C77.9208 -1.73686 77.5695 -1.76977 77.3254 -1.76977V2.23023ZM75.574 0.336485V101.672H79.574V0.336485H75.574ZM75.574 101.672C75.574 101.083 75.8334 100.63 76.0913 100.353C76.3287 100.098 76.577 99.97 76.7178 99.9098C76.9993 99.7894 77.2264 99.7786 77.3254 99.7786V103.779C77.5695 103.779 77.9208 103.746 78.2903 103.588C78.5238 103.488 79.574 102.966 79.574 101.672H75.574ZM77.3254 99.7786H72.7692V103.779H77.3254V99.7786ZM72.7692 99.7786C72.8683 99.7786 73.0953 99.7894 73.3769 99.9098C73.5177 99.97 73.766 100.098 74.0033 100.353C74.2612 100.63 74.5207 101.083 74.5207 101.672H70.5207C70.5207 102.966 71.5709 103.488 71.8043 103.588C72.1739 103.746 72.5252 103.779 72.7692 103.779V99.7786ZM74.5207 101.672V0.336485H70.5207V101.672H74.5207ZM74.5207 0.336485C74.5207 0.926213 74.2612 1.37901 74.0033 1.65617C73.766 1.91123 73.5176 2.03889 73.3768 2.09909C73.0953 2.21946 72.8683 2.23023 72.7692 2.23023V-1.76977C72.5252 -1.76977 72.1739 -1.73686 71.8044 -1.57886C71.5709 -1.47905 70.5207 -0.956703 70.5207 0.336485H74.5207ZM71.5385 101.557V0.504731H67.5385V101.557H71.5385ZM69.5385 2.50473H72.003V-1.49527H69.5385V2.50473ZM70.003 0.504731V101.557H74.003V0.504731H70.003ZM72.003 99.5573H69.5385V103.557H72.003V99.5573ZM88.7278 101.557V0.504731H84.7278V101.557H88.7278ZM86.7278 2.50473H89.2544V-1.49527H86.7278V2.50473ZM87.2544 0.504731V101.557H91.2544V0.504731H87.2544ZM89.2544 99.5573H86.7278V103.557H89.2544V99.5573ZM97.3639 101.557V0.504731H93.3639V101.557H97.3639ZM95.3639 2.50473H97.8905V-1.49527H95.3639V2.50473ZM95.8905 0.504731V101.557H99.8905V0.504731H95.8905ZM97.8905 99.5573H95.3639V103.557H97.8905V99.5573ZM98.6568 2.23023H103.213V-1.76977H98.6568V2.23023ZM103.213 2.23023C103.069 2.23023 102.869 2.20927 102.635 2.11463C102.523 2.06924 102.296 1.9646 102.065 1.74609C101.827 1.52062 101.462 1.04467 101.462 0.336485H105.462C105.462 -0.402694 105.081 -0.907422 104.815 -1.15863C104.557 -1.40287 104.292 -1.5302 104.133 -1.5944C103.805 -1.72668 103.481 -1.76977 103.213 -1.76977V2.23023ZM101.462 0.336485V101.672H105.462V0.336485H101.462ZM101.462 101.672C101.462 101.083 101.721 100.63 101.979 100.353C102.216 100.098 102.465 99.97 102.605 99.9098C102.887 99.7894 103.114 99.7786 103.213 99.7786V103.779C103.457 103.779 103.808 103.746 104.178 103.588C104.411 103.488 105.462 102.966 105.462 101.672H101.462ZM103.213 99.7786H98.6568V103.779H103.213V99.7786ZM98.6568 99.7786C98.7559 99.7786 98.9829 99.7894 99.2645 99.9098C99.4053 99.97 99.6536 100.098 99.8909 100.353C100.149 100.63 100.408 101.083 100.408 101.672H96.4083C96.4083 102.966 97.4584 103.488 97.6919 103.588C98.0615 103.746 98.4128 103.779 98.6568 103.779V99.7786ZM100.408 101.672V0.336485H96.4083V101.672H100.408ZM100.408 0.336485C100.408 0.926212 100.149 1.37901 99.8909 1.65617C99.6536 1.91123 99.4052 2.03889 99.2644 2.09909C98.9829 2.21946 98.7559 2.23023 98.6568 2.23023V-1.76977C98.4128 -1.76977 98.0615 -1.73686 97.6919 -1.57886C97.4585 -1.47905 96.4083 -0.956701 96.4083 0.336485H100.408ZM90.0207 2.23023H94.5769V-1.76977H90.0207V2.23023ZM94.5769 2.23023C94.4779 2.23023 94.2508 2.21946 93.9693 2.09909C93.8285 2.03889 93.5802 1.91123 93.3428 1.65617C93.0849 1.37901 92.8254 0.926212 92.8254 0.336485H96.8254C96.8254 -0.956701 95.7752 -1.47905 95.5418 -1.57886C95.1722 -1.73686 94.821 -1.76977 94.5769 -1.76977V2.23023ZM92.8254 0.336485V101.672H96.8254V0.336485H92.8254ZM92.8254 101.672C92.8254 101.083 93.0849 100.63 93.3428 100.353C93.5801 100.098 93.8285 99.97 93.9693 99.9098C94.2508 99.7894 94.4778 99.7786 94.5769 99.7786V103.779C94.821 103.779 95.1723 103.746 95.5418 103.588C95.7753 103.488 96.8254 102.966 96.8254 101.672H92.8254ZM94.5769 99.7786H90.0207V103.779H94.5769V99.7786ZM90.0207 99.7786C90.1198 99.7786 90.3468 99.7894 90.6284 99.9098C90.7692 99.97 91.0175 100.098 91.2548 100.353C91.5127 100.63 91.7722 101.083 91.7722 101.672H87.7722C87.7722 102.966 88.8224 103.488 89.0558 103.588C89.4254 103.746 89.7767 103.779 90.0207 103.779V99.7786ZM91.7722 101.672V0.336485H87.7722V101.672H91.7722ZM91.7722 0.336485C91.7722 1.00379 91.4462 1.46119 91.2323 1.68369C91.0161 1.9085 90.7963 2.02685 90.6669 2.08544C90.4003 2.20613 90.1702 2.23023 90.0207 2.23023V-1.76977C89.7263 -1.76977 89.3719 -1.7191 89.0173 -1.55857C88.8439 -1.48006 88.5891 -1.33846 88.349 -1.08875C88.1111 -0.841346 87.7722 -0.357389 87.7722 0.336485H91.7722ZM81.3846 2.23023H85.9408V-1.76977H81.3846V2.23023ZM85.9408 2.23023C85.7972 2.23023 85.5972 2.20927 85.3629 2.11463C85.2504 2.06924 85.0238 1.9646 84.793 1.7461C84.5548 1.52064 84.1894 1.04468 84.1894 0.336485H88.1894C88.1894 -0.402706 87.8083 -0.907436 87.543 -1.15864C87.285 -1.40287 87.0195 -1.5302 86.8605 -1.59441C86.533 -1.72668 86.2087 -1.76977 85.9408 -1.76977V2.23023ZM84.1894 0.336485V101.672H88.1894V0.336485H84.1894ZM84.1894 101.672C84.1894 101.083 84.4488 100.63 84.7067 100.353C84.9441 100.098 85.1924 99.97 85.3332 99.9098C85.6147 99.7894 85.8417 99.7786 85.9408 99.7786V103.779C86.1849 103.779 86.5362 103.746 86.9057 103.588C87.1392 103.488 88.1894 102.966 88.1894 101.672H84.1894ZM85.9408 99.7786H81.3846V103.779H85.9408V99.7786ZM81.3846 99.7786C81.4837 99.7786 81.7107 99.7894 81.9923 99.9098C82.1331 99.97 82.3814 100.098 82.6187 100.353C82.8766 100.63 83.1361 101.083 83.1361 101.672H79.1361C79.1361 102.966 80.1863 103.488 80.4197 103.588C80.7893 103.746 81.1406 103.779 81.3846 103.779V99.7786ZM83.1361 101.672V0.336485H79.1361V101.672H83.1361ZM83.1361 0.336485C83.1361 1.00379 82.8101 1.46119 82.5962 1.68369C82.38 1.9085 82.1602 2.02685 82.0308 2.08544C81.7642 2.20613 81.5341 2.23023 81.3846 2.23023V-1.76977C81.0902 -1.76977 80.7358 -1.7191 80.3812 -1.55857C80.2078 -1.48006 79.953 -1.33846 79.7129 -1.08875C79.475 -0.841346 79.1361 -0.357389 79.1361 0.336485H83.1361Z" fill="#19424B" mask="url(#path-3-inside-1_352_237)"/>
</g>
</g>
<g clip-path="url(#clip1_352_237)">
<path d="M114.001 84.4034V83.0808C114.001 82.5298 114.441 82.0889 114.991 82.0889H115.831V72.9713H114.991C114.451 72.9713 114.001 72.5305 114.001 71.9794V70.6568C114.001 70.1158 114.441 69.6649 114.991 69.6649H115.831V65.6472H114.991C114.451 65.6472 114.001 65.2063 114.001 64.6552V63.3327C114.001 62.7816 114.441 62.3408 114.991 62.3408H115.831V53.2232H114.991C114.451 53.2232 114.001 52.7823 114.001 52.2312V50.9087C114.001 50.3676 114.441 49.9168 114.991 49.9168H115.831V45.899H114.991C114.451 45.899 114.001 45.4582 114.001 44.9071V43.5845C114.001 43.0335 114.441 42.5926 114.991 42.5926H115.831V33.475H114.991C114.451 33.475 114.001 33.0342 114.001 32.4831V31.1605C114.001 30.6095 114.441 30.1686 114.991 30.1686H115.831L115.831 26.1509H114.991C114.451 26.1509 114.001 25.71 114.001 25.1589V23.8364C114.001 23.2853 114.441 22.8445 114.991 22.8445H115.831V16.0213C114.651 15.881 114.001 15.1696 114.001 13.9974V11.4224C114.001 11.4224 114.001 11.3923 114.001 11.3723V5.71137C114.001 5.31059 114.321 4.98998 114.721 4.98998H117.041C117.441 4.98998 117.761 5.31059 117.761 5.71137V6.7634C117.761 6.96379 117.681 7.14414 117.551 7.27439C117.411 7.41466 117.231 7.4848 117.041 7.4848C117.001 7.4848 116.961 7.51486 116.961 7.56495V10.701H117.061C117.451 10.701 117.781 11.0216 117.781 11.4224V12.4945C117.781 12.6147 117.781 12.7349 117.781 12.8452V12.8652C117.781 12.8652 117.821 12.9053 117.861 12.9053H119.501C119.501 12.9053 119.581 12.8652 119.581 12.8251V10.4305H121.281C121.281 10.4305 121.351 10.4305 121.391 10.4305H123.511C124.551 10.4305 125.391 11.2721 125.391 12.3141V24.2672C125.391 25.3092 124.551 26.1509 123.511 26.1509H119.121V30.1686H123.511C124.551 30.1686 125.391 31.0102 125.391 32.0523L125.391 44.0053C125.391 45.0474 124.551 45.889 123.511 45.889H119.121V49.9068H123.511C124.551 49.9068 125.391 50.7484 125.391 51.7904V63.7435C125.391 64.7755 124.551 65.6271 123.511 65.6271H119.121V69.6449H123.511C124.551 69.6749 125.391 70.5166 125.391 71.5486V83.5117C125.391 84.5437 124.551 85.3853 123.511 85.3853H120.171V91.948C120.171 92.5291 119.701 93 119.121 93H117.711C117.131 93 116.661 92.5291 116.661 91.948V85.3853H114.981C114.441 85.3853 113.991 84.9444 113.991 84.3934M117.281 6.7634V5.72139C117.281 5.59114 117.171 5.48093 117.041 5.48093H114.721C114.591 5.48093 114.481 5.59114 114.481 5.72139V14.0074C114.481 14.9993 115.001 15.5103 116.081 15.5704H116.311V23.3454H114.981C114.701 23.3454 114.481 23.5759 114.481 23.8464V25.169C114.481 25.4495 114.711 25.6799 114.981 25.6799H116.311L116.311 30.6696H114.981C114.701 30.6696 114.481 30.9 114.481 31.1806V32.5031C114.481 32.7837 114.711 33.0041 114.981 33.0041H116.311V43.0936H114.981C114.701 43.0936 114.481 43.324 114.481 43.6046V44.9271C114.481 45.2077 114.711 45.4281 114.981 45.4281H116.311V50.4177H114.981C114.701 50.4177 114.481 50.6482 114.481 50.9187V52.2413C114.481 52.5218 114.711 52.7422 114.981 52.7422H116.311V62.8317H114.981C114.701 62.8317 114.481 63.0622 114.481 63.3427V64.6653C114.481 64.9458 114.711 65.1662 114.981 65.1662H116.311V70.1559H114.981C114.701 70.1559 114.481 70.3863 114.481 70.6568V71.9794C114.481 72.2599 114.711 72.4904 114.981 72.4904H116.311V82.5799H114.981C114.701 82.5799 114.481 82.8103 114.481 83.0808V84.4034C114.481 84.6839 114.711 84.9044 114.981 84.9044H117.151V91.948C117.151 92.2586 117.401 92.5091 117.711 92.5091H119.121C119.431 92.5091 119.681 92.2586 119.681 91.948V84.9044H123.511C124.281 84.9044 124.901 84.2832 124.901 83.5117V71.5486C124.901 70.7771 124.271 70.1559 123.511 70.1559H118.641V65.1662H123.511C124.281 65.1662 124.901 64.545 124.901 63.7735V51.8204C124.901 51.049 124.271 50.4278 123.511 50.4278H118.641V45.4381H123.511C124.281 45.4381 124.901 44.8069 124.901 44.0454L124.901 32.0923C124.901 31.3208 124.271 30.6996 123.511 30.6996H118.641V25.71H123.511C124.281 25.71 124.901 25.0788 124.901 24.3173V12.3642C124.901 11.5927 124.271 10.9715 123.511 10.9715H121.351C121.351 10.9715 121.321 10.9715 121.301 10.9715H120.091V12.8752C120.091 13.1858 119.841 13.4463 119.521 13.4463H117.881C117.741 13.4463 117.611 13.3962 117.501 13.306H117.321V13.0656C117.321 13.0656 117.321 12.9854 117.321 12.9453V12.9253C117.321 12.8151 117.321 12.6949 117.321 12.5646V11.4925C117.321 11.3623 117.201 11.2521 117.071 11.2521H116.921C116.871 11.2521 116.811 11.2421 116.761 11.222C116.671 11.1819 116.601 11.1118 116.551 11.0317C116.521 10.9715 116.501 10.9014 116.501 10.8313V7.63509C116.501 7.32449 116.751 7.074 117.061 7.074C117.121 7.074 117.181 7.04394 117.231 7.00387C117.281 6.95377 117.301 6.87361 117.301 6.82352M118.641 82.5699V72.4804H122.571V82.5699H118.641ZM119.121 72.9713V82.0889H122.091V72.9713H119.121ZM118.641 62.8317V52.7422H122.571V62.8317H118.641ZM119.121 53.2332V62.3508H122.091V53.2332H119.121ZM118.641 43.0936V33.0041H122.571L122.571 43.0936H118.641ZM119.121 33.495V42.6127H122.091V33.495H119.121ZM118.641 23.3555V15.5905H120.261C120.961 15.5905 121.541 15.0194 121.541 14.308V13.266H122.581V23.3555H118.651H118.641ZM119.121 16.0714V22.8645H122.091V13.7469H122.021V14.298C122.021 15.2698 121.231 16.0614 120.261 16.0614H119.121V16.0714Z" fill="#19424B"/>
<path d="M114.001 84.4034V83.0808C114.001 82.5298 114.441 82.0889 114.991 82.0889H115.831V72.9713H114.991C114.451 72.9713 114.001 72.5305 114.001 71.9794V70.6568C114.001 70.1158 114.441 69.6649 114.991 69.6649H115.831V65.6472H114.991C114.451 65.6472 114.001 65.2063 114.001 64.6552V63.3327C114.001 62.7816 114.441 62.3408 114.991 62.3408H115.831V53.2232H114.991C114.451 53.2232 114.001 52.7823 114.001 52.2312V50.9087C114.001 50.3676 114.441 49.9168 114.991 49.9168H115.831V45.899H114.991C114.451 45.899 114.001 45.4582 114.001 44.9071V43.5845C114.001 43.0335 114.441 42.5926 114.991 42.5926H115.831V33.475H114.991C114.451 33.475 114.001 33.0342 114.001 32.4831V31.1605C114.001 30.6095 114.441 30.1686 114.991 30.1686H115.831L115.831 26.1509H114.991C114.451 26.1509 114.001 25.71 114.001 25.1589V23.8364C114.001 23.2853 114.441 22.8445 114.991 22.8445H115.831V16.0213C114.651 15.881 114.001 15.1696 114.001 13.9974V11.4224C114.001 11.4224 114.001 11.3923 114.001 11.3723V5.71137C114.001 5.31059 114.321 4.98998 114.721 4.98998H117.041C117.441 4.98998 117.761 5.31059 117.761 5.71137V6.7634C117.761 6.96379 117.681 7.14414 117.551 7.27439C117.411 7.41466 117.231 7.4848 117.041 7.4848C117.001 7.4848 116.961 7.51486 116.961 7.56495V10.701H117.061C117.451 10.701 117.781 11.0216 117.781 11.4224V12.4945C117.781 12.6147 117.781 12.7349 117.781 12.8452V12.8652C117.781 12.8652 117.821 12.9053 117.861 12.9053H119.501C119.501 12.9053 119.581 12.8652 119.581 12.8251V10.4305H121.281C121.281 10.4305 121.351 10.4305 121.391 10.4305H123.511C124.551 10.4305 125.391 11.2721 125.391 12.3141V24.2672C125.391 25.3092 124.551 26.1509 123.511 26.1509H119.121V30.1686H123.511C124.551 30.1686 125.391 31.0102 125.391 32.0523L125.391 44.0053C125.391 45.0474 124.551 45.889 123.511 45.889H119.121V49.9068H123.511C124.551 49.9068 125.391 50.7484 125.391 51.7904V63.7435C125.391 64.7755 124.551 65.6271 123.511 65.6271H119.121V69.6449H123.511C124.551 69.6749 125.391 70.5166 125.391 71.5486V83.5117C125.391 84.5437 124.551 85.3853 123.511 85.3853H120.171V91.948C120.171 92.5291 119.701 93 119.121 93H117.711C117.131 93 116.661 92.5291 116.661 91.948V85.3853H114.981C114.441 85.3853 113.991 84.9444 113.991 84.3934M117.281 6.7634V5.72139C117.281 5.59114 117.171 5.48093 117.041 5.48093H114.721C114.591 5.48093 114.481 5.59114 114.481 5.72139V14.0074C114.481 14.9993 115.001 15.5103 116.081 15.5704H116.311V23.3454H114.981C114.701 23.3454 114.481 23.5759 114.481 23.8464V25.169C114.481 25.4495 114.711 25.6799 114.981 25.6799H116.311L116.311 30.6696H114.981C114.701 30.6696 114.481 30.9 114.481 31.1806V32.5031C114.481 32.7837 114.711 33.0041 114.981 33.0041H116.311V43.0936H114.981C114.701 43.0936 114.481 43.324 114.481 43.6046V44.9271C114.481 45.2077 114.711 45.4281 114.981 45.4281H116.311V50.4177H114.981C114.701 50.4177 114.481 50.6482 114.481 50.9187V52.2413C114.481 52.5218 114.711 52.7422 114.981 52.7422H116.311V62.8317H114.981C114.701 62.8317 114.481 63.0622 114.481 63.3427V64.6653C114.481 64.9458 114.711 65.1662 114.981 65.1662H116.311V70.1559H114.981C114.701 70.1559 114.481 70.3863 114.481 70.6568V71.9794C114.481 72.2599 114.711 72.4904 114.981 72.4904H116.311V82.5799H114.981C114.701 82.5799 114.481 82.8103 114.481 83.0808V84.4034C114.481 84.6839 114.711 84.9044 114.981 84.9044H117.151V91.948C117.151 92.2586 117.401 92.5091 117.711 92.5091H119.121C119.431 92.5091 119.681 92.2586 119.681 91.948V84.9044H123.511C124.281 84.9044 124.901 84.2832 124.901 83.5117V71.5486C124.901 70.7771 124.271 70.1559 123.511 70.1559H118.641V65.1662H123.511C124.281 65.1662 124.901 64.545 124.901 63.7735V51.8204C124.901 51.049 124.271 50.4278 123.511 50.4278H118.641V45.4381H123.511C124.281 45.4381 124.901 44.8069 124.901 44.0454L124.901 32.0923C124.901 31.3208 124.271 30.6996 123.511 30.6996H118.641V25.71H123.511C124.281 25.71 124.901 25.0788 124.901 24.3173V12.3642C124.901 11.5927 124.271 10.9715 123.511 10.9715H121.351C121.351 10.9715 121.321 10.9715 121.301 10.9715H120.091V12.8752C120.091 13.1858 119.841 13.4463 119.521 13.4463H117.881C117.741 13.4463 117.611 13.3962 117.501 13.306H117.321V13.0656C117.321 13.0656 117.321 12.9854 117.321 12.9453V12.9253C117.321 12.8151 117.321 12.6949 117.321 12.5646V11.4925C117.321 11.3623 117.201 11.2521 117.071 11.2521H116.921C116.871 11.2521 116.811 11.2421 116.761 11.222C116.671 11.1819 116.601 11.1118 116.551 11.0317C116.521 10.9715 116.501 10.9014 116.501 10.8313V7.63509C116.501 7.32449 116.751 7.074 117.061 7.074C117.121 7.074 117.181 7.04394 117.231 7.00387C117.281 6.95377 117.301 6.87361 117.301 6.82352M118.641 82.5699V72.4804H122.571V82.5699H118.641ZM119.121 72.9713V82.0889H122.091V72.9713H119.121ZM118.641 62.8317V52.7422H122.571V62.8317H118.641ZM119.121 53.2332V62.3508H122.091V53.2332H119.121ZM118.641 43.0936V33.0041H122.571L122.571 43.0936H118.641ZM119.121 33.495V42.6127H122.091V33.495H119.121ZM118.641 23.3555V15.5905H120.261C120.961 15.5905 121.541 15.0194 121.541 14.308V13.266H122.581V23.3555H118.651H118.641ZM119.121 16.0714V22.8645H122.091V13.7469H122.021V14.298C122.021 15.2698 121.231 16.0614 120.261 16.0614H119.121V16.0714Z" stroke="#19424B" stroke-width="0.5"/>
<rect x="125.391" y="64.9458" width="3" height="15.029" rx="1.5" transform="rotate(-180 125.391 64.9458)" fill="#19424B"/>
<rect x="123.391" y="52.9226" width="9" height="3.00581" transform="rotate(-180 123.391 52.9226)" fill="#19424B"/>
<rect x="124.391" y="64.9458" width="10" height="2.00387" transform="rotate(-180 124.391 64.9458)" fill="#19424B"/>
<rect x="125.391" y="45.909" width="4" height="15.029" rx="1.5" transform="rotate(-180 125.391 45.909)" fill="#19424B"/>
<rect x="122.391" y="32.8839" width="9" height="2.00387" transform="rotate(-180 122.391 32.8839)" fill="#19424B"/>
<rect x="123.391" y="45.909" width="10" height="3.00581" transform="rotate(-180 123.391 45.909)" fill="#19424B"/>
<rect x="125.391" y="25.8703" width="4" height="15.029" rx="1.5" transform="rotate(-180 125.391 25.8703)" fill="#19424B"/>
<rect x="117.391" y="13.8471" width="3" height="9.01742" transform="rotate(-180 117.391 13.8471)" fill="#19424B"/>
<rect x="123.391" y="25.8703" width="10" height="3.00581" transform="rotate(-180 123.391 25.8703)" fill="#19424B"/>
<rect x="120.391" y="15.851" width="6" height="3.00581" rx="1" transform="rotate(-180 120.391 15.851)" fill="#19424B"/>
<rect x="123.391" y="15.851" width="4" height="5.00968" transform="rotate(-180 123.391 15.851)" fill="#19424B"/>
<rect x="125.391" y="84.9845" width="4" height="15.029" rx="1.5" transform="rotate(-180 125.391 84.9845)" fill="#19424B"/>
<rect x="123.391" y="72.9613" width="9" height="3.00581" transform="rotate(-180 123.391 72.9613)" fill="#19424B"/>
<rect x="123.391" y="84.9845" width="10" height="3.00581" transform="rotate(-180 123.391 84.9845)" fill="#19424B"/>
<rect x="118.391" y="82" width="2" height="67" transform="rotate(-180 118.391 82)" fill="#19424B"/>
<rect x="120.391" y="93" width="3" height="9" rx="1" transform="rotate(-180 120.391 93)" fill="#19424B"/>
</g>
<g clip-path="url(#clip2_352_237)">
<path d="M62 102L27 102L27 -4L62 -4L62 102Z" fill="#19424B" fill-opacity="0.5"/>
<path d="M50.9749 102H57.0236C57.5185 102 57.9309 101.885 58.0134 101.725H61.3951C61.7251 101.725 62 101.637 62 101.531L62 0.416182C62 0.309923 61.7251 0.221373 61.3951 0.221373L57.9584 0.221373C57.8209 0.0974043 57.436 0 56.9961 0L50.9474 0C50.5075 0 50.1225 0.0885493 49.9851 0.221373L46.4933 0.221373C46.3559 0.0974043 45.9709 0 45.531 0L39.4823 0C39.0424 0 38.6575 0.0885493 38.52 0.221373L35.0283 0.221373C34.8908 0.0974043 34.5059 0 34.066 0L28.0173 0C27.4399 0 27 0.150534 27 0.327633L27 101.664C27 101.849 27.4674 101.991 28.0173 101.991H34.066C34.5609 101.991 34.9733 101.876 35.0558 101.717L38.4925 101.717C38.575 101.867 38.9874 101.991 39.4823 101.991H45.531C46.0259 101.991 46.4383 101.876 46.5208 101.717H49.9576C50.0401 101.867 50.4525 101.991 50.9474 101.991M49.9301 0.442747L49.9301 101.495H46.5758L46.5758 0.442747L49.9301 0.442747ZM56.9961 101.77H50.9474C50.7549 101.77 50.6174 101.725 50.6174 101.664L50.6174 0.327633C50.6174 0.265648 50.7549 0.221373 50.9474 0.221373L56.9961 0.221373C57.1885 0.221373 57.326 0.265648 57.326 0.327633L57.326 101.664C57.326 101.725 57.1885 101.77 56.9961 101.77ZM61.3126 0.442747L61.3126 101.495H58.0409L58.0409 0.442747L61.3126 0.442747ZM38.4925 0.442747L38.4925 101.495L35.1383 101.495L35.1383 0.442747L38.4925 0.442747ZM34.121 101.77H28.0723C27.8798 101.77 27.7423 101.725 27.7423 101.664L27.7423 0.327633C27.7423 0.265648 27.8798 0.221373 28.0723 0.221373L34.121 0.221373C34.2859 0.221373 34.4509 0.265648 34.4509 0.327633L34.4509 101.664C34.4509 101.725 34.3134 101.77 34.121 101.77ZM45.586 101.77H39.5373C39.3449 101.77 39.2074 101.725 39.2074 101.664L39.2074 0.327633C39.2074 0.274503 39.3449 0.221373 39.5373 0.221373L45.586 0.221373C45.751 0.221373 45.9159 0.265648 45.9159 0.327633L45.9159 101.664C45.9159 101.725 45.7785 101.77 45.586 101.77Z" fill="#19424B"/>
</g>
<g clip-path="url(#clip3_352_237)">
<path d="M23 75.983V89.483C23 89.767 22.7628 90.0073 22.4662 90.0073H18.6112C18.3221 90.0073 18.0848 89.7743 18.0848 89.4903C18.0848 89.301 18.0848 89.017 18.0848 88.682V87.7718C18.0848 87.4879 18.3221 87.2549 18.6112 87.2549C18.8188 87.2549 19.0189 87.1748 19.1746 87.0218C19.3303 86.8689 19.4119 86.6796 19.4119 86.4684V81.2694C19.4119 81.1748 19.3896 81.0801 19.3377 81C19.3081 80.949 19.2784 80.9126 19.2413 80.8762C19.182 80.818 19.1153 80.7743 19.0486 80.7451C18.9819 80.716 18.9077 80.7015 18.8336 80.7015H18.5741C18.285 80.7015 18.0478 80.4685 18.0478 80.1845C18.0478 79.1942 18.0329 77.9126 18.0255 77.3665H15.1491V80.6432C15.1491 80.8544 15.0157 81.051 14.8155 81.1311C14.7488 81.1529 14.6895 81.1675 14.6227 81.1675H11.5461C11.5016 81.1675 11.4572 81.1675 11.4201 81.1529H7.44646C6.0972 81.1529 5 80.0752 5 78.7427L5 66.1893C5 64.8568 6.0972 63.7791 7.45387 63.7791H15.4086L15.4086 58.4418H7.44646C6.0972 58.4418 5 57.3641 5 56.0388L5 43.4854C5 42.1602 6.0972 41.0825 7.44646 41.0825H15.29L15.29 35.2864H7.44646C6.0972 35.2864 5 34.2087 5 32.8835L5 20.3301C5 19.0049 6.0972 17.9272 7.44646 17.9272H14.5338V10.0485C14.5338 9.46602 15.0157 9 15.6013 9L17.9366 9C18.5222 9 19.0041 9.4733 19.0041 10.0485V17.9709C20.1384 18.1893 20.9909 19.1723 20.9909 20.3301V24.5752H22.0288C22.5626 24.5752 23 25.0049 23 25.5291V27.6845C23 28.2087 22.5626 28.6383 22.0288 28.6383H20.9909V32.8835C20.9909 33.8811 20.3608 34.7694 19.4267 35.1262L19.4267 41.25C20.3608 41.6068 20.9909 42.4951 20.9909 43.4927V47.5121H22.0288C22.5626 47.5121 23 47.9417 23 48.466V50.6141C23 51.1384 22.5626 51.568 22.0288 51.568H20.9909V56.0388C20.9909 56.9927 20.4201 57.8447 19.5453 58.2306L19.5453 63.9903C20.4201 64.3762 20.9909 65.2282 20.9909 66.182V73.3981C22.3254 73.6748 23 74.5413 23 75.9757M22.3921 89.3956V75.9757C22.3921 74.7452 21.8509 74.1189 20.6499 73.9442L20.3904 73.9078V66.182C20.3904 65.4102 19.8937 64.7257 19.1524 64.4782L18.9448 64.4053L18.9448 57.8083L19.1524 57.7354C19.8937 57.4806 20.3979 56.7961 20.3979 56.0316V50.9563H22.0437C22.2438 50.9563 22.3995 50.7961 22.3995 50.5995V48.4515C22.3995 48.2549 22.2364 48.0947 22.0437 48.0947H20.3979V43.4782C20.3979 42.6699 19.8493 41.9563 19.056 41.7379L18.8336 41.6796L18.8336 34.6748L19.056 34.6165C19.8493 34.3981 20.3979 33.6845 20.3979 32.8762V28.034H22.0437C22.2438 28.034 22.3995 27.8738 22.3995 27.6772V25.5218C22.3995 25.3252 22.2364 25.1723 22.0437 25.1723H20.3979V20.3301C20.3979 19.3908 19.6491 18.6044 18.7002 18.5316L18.4185 18.5097V10.0485C18.4185 9.80097 18.2109 9.59709 17.9588 9.59709L15.6236 9.59709C15.3715 9.59709 15.1639 9.80097 15.1639 10.0485V18.5243H7.44646C6.43081 18.5243 5.60791 19.3325 5.60791 20.3301L5.60791 32.8835C5.60791 33.8811 6.43081 34.6893 7.44646 34.6893H15.8979L15.8979 41.6869H7.44646C6.43081 41.6869 5.60791 42.4951 5.60791 43.4927L5.60791 56.0461C5.60791 57.0437 6.43081 57.8519 7.44646 57.8519H16.0165L16.0165 64.3835H7.45387C6.43822 64.3835 5.61532 65.1918 5.61532 66.1893L5.61532 78.7427C5.61532 79.7403 6.43822 80.5485 7.45387 80.5485H11.5239L11.561 80.5631H14.5338V77.1335C14.5338 76.9296 14.7043 76.7621 14.9119 76.7621H18.3147C18.6186 76.7621 18.626 77.0316 18.626 77.2937C18.626 77.4466 18.626 77.6651 18.6334 77.949C18.6334 78.4879 18.6409 79.2379 18.6483 80.0971H18.8262C18.9819 80.0971 19.1376 80.1262 19.2784 80.1845C19.4193 80.2427 19.5453 80.3301 19.6565 80.4393C19.7306 80.5049 19.8048 80.5995 19.8641 80.7015C19.9605 80.8762 20.0124 81.0655 20.0124 81.2621V86.4612C20.0124 86.8325 19.8641 87.1748 19.5972 87.4369C19.3526 87.6772 19.0264 87.8228 18.6853 87.8447V88.6748C18.6853 88.9587 18.6853 89.2136 18.6853 89.4029H22.3773L22.3921 89.3956ZM17.4769 22.0485V31.1578C17.4769 31.5291 17.173 31.8277 16.7949 31.8277H9.20346C8.82537 31.8277 8.52142 31.5291 8.52142 31.1578L8.52142 21.9976C8.52142 21.6553 8.80313 21.3859 9.14415 21.3859H16.7801C17.1582 21.3859 17.4621 21.6845 17.4621 22.0558M9.12932 31.165C9.12932 31.2015 9.15898 31.2306 9.19605 31.2306H16.7801C16.8171 31.2306 16.8468 31.2015 16.8468 31.165V22.0558C16.8468 22.0194 16.8171 21.9903 16.7801 21.9903H9.15156C9.15156 21.9903 9.13674 21.9903 9.13674 22.0049L9.13674 31.165H9.12932ZM17.4621 45.2184V54.3277C17.4621 54.699 17.1582 54.9976 16.7801 54.9976H9.20346C8.82537 54.9976 8.52142 54.699 8.52142 54.3277V45.1675C8.52142 44.8325 8.80313 44.5558 9.14415 44.5558H16.7801C17.1582 44.5558 17.4621 44.8544 17.4621 45.2257M9.12932 54.335C9.12932 54.3714 9.15898 54.4005 9.19605 54.4005H16.7801C16.8171 54.4005 16.8468 54.3714 16.8468 54.335V45.2257C16.8468 45.1893 16.8171 45.1602 16.7801 45.1602H9.15156C9.15156 45.1602 9.13674 45.1602 9.13674 45.1748V54.335H9.12932ZM16.0165 67.2597V73.9223H13.2661C12.3616 73.9223 11.6203 74.6505 11.6203 75.5388V77.7015H9.19605C8.82537 77.6942 8.53624 77.4102 8.52142 77.0534V67.8641C8.52883 67.5218 8.80313 67.2597 9.14415 67.2597H16.0165ZM15.4086 73.318V67.8568H9.15156C9.15156 67.8568 9.13674 67.8568 9.13674 67.8714V77.0388C9.13674 77.0388 9.16639 77.0971 9.20346 77.0971H11.0124V75.5316C11.0124 74.3083 12.0206 73.318 13.2661 73.318H15.4086Z" fill="#19424B"/>
<rect x="5" y="18" width="4" height="17" rx="2" fill="#19424B"/>
<path d="M8 18H19V22H8V18Z" fill="#19424B"/>
<path d="M8 31.5H19V35H8V31.5Z" fill="#19424B"/>
<path d="M17 18H19C20.1046 18 21 18.8954 21 20V33C21 34.1046 20.1046 35 19 35H17V18Z" fill="#19424B"/>
<path d="M5 43C5 41.8954 5.89543 41 7 41H9L9 58H7C5.89543 58 5 57.1046 5 56L5 43Z" fill="#19424B"/>
<path d="M8 41H19V45H8V41Z" fill="#19424B"/>
<path d="M8 54.5H19V58H8V54.5Z" fill="#19424B"/>
<path d="M17 41H19C20.1046 41 21 41.8954 21 43V56C21 57.1046 20.1046 58 19 58H17V41Z" fill="#19424B"/>
<path d="M5 66C5 64.8954 5.89543 64 7 64H9L9 81H7C5.89543 81 5 80.1046 5 79L5 66Z" fill="#19424B"/>
<rect x="11" y="76" width="1" height="2" fill="#19424B"/>
<path d="M8 64H19V68H8V64Z" fill="#19424B"/>
<path d="M8 77.0785L15 77.1236V81H8V77.0785Z" fill="#19424B"/>
<path d="M11 75.5475C11 74.6072 11.7623 73.8449 12.7025 73.8449H16.2975C17.2377 73.8449 18 74.6072 18 75.5475V75.5475C18 76.4877 17.2377 77.25 16.2975 77.25H12.7025C11.7623 77.25 11 76.4877 11 75.5475V75.5475Z" fill="#19424B"/>
<path d="M16 64H19C20.1046 64 21 64.8954 21 66V77H16L16 64Z" fill="#19424B"/>
<path d="M15 10C15 9.44772 15.4477 9 16 9H18C18.5523 9 19 9.44772 19 10V18H15V10Z" fill="#19424B"/>
<path d="M15.5 33H19V42H15.5V33Z" fill="#19424B"/>
<path d="M16 57H19.5V66H16V57Z" fill="#19424B"/>
<path d="M20 79.5C20 78.6716 20.6716 78 21.5 78V78C22.3284 78 23 78.6716 23 79.5V88.5C23 89.3284 22.3284 90 21.5 90V90C20.6716 90 20 89.3284 20 88.5V79.5Z" fill="#19424B"/>
<path d="M18 76C18 74.8954 18.8954 74 20 74H21C22.1046 74 23 74.8954 23 76V79C23 80.1046 22.1046 81 21 81H20C18.8954 81 18 80.1046 18 79V76Z" fill="#19424B"/>
<path d="M18.5 87.5L20 86.5L21 87.5V89.5H18.5V87.5Z" fill="#19424B"/>
<path d="M20 25H22.5V28.5H20V25Z" fill="#19424B"/>
<path d="M20 48H22.5V51L20 51.5V48Z" fill="#19424B"/>
</g>
<defs>
<clipPath id="clip0_352_237">
<rect x="69" width="35" height="102" rx="5" fill="white"/>
</clipPath>
<clipPath id="clip1_352_237">
<rect width="11.39" height="88" fill="white" transform="matrix(-1 0 0 -1 125.391 93)"/>
</clipPath>
<clipPath id="clip2_352_237">
<rect x="62" y="102" width="35" height="102" rx="5" transform="rotate(-180 62 102)" fill="white"/>
</clipPath>
<clipPath id="clip3_352_237">
<rect width="18" height="81" fill="white" transform="translate(5 9)"/>
</clipPath>
</defs>
</svg>
